<?xml version="1.0" encoding="utf-8"?>
<svg viewBox="4.168 1.818 468.262 91.643" xmlns="http://www.w3.org/2000/svg">
  <g id="svgGroup" stroke-linecap="round" fill-rule="evenodd" font-size="9pt" stroke="#00000000" stroke-width="0" fill="#37008c" style="stroke: rgba(0, 0, 0, 0); stroke-width: 0; fill: rgb(55, 0, 140);" transform="matrix(1.706151, 0, 0, 1.706151, 11.416962, -83.471733)">
    <path d="M 19.067 89.564 L 10.267 89.564 L 10.267 63.256 L 0 63.256 L 0 55.647 L 29.333 55.647 L 29.333 63.256 L 19.067 63.256 L 19.067 89.564 Z" id="0" style=""/>
    <path d="M 42.075 89.564 L 33.366 89.564 L 33.366 65.272 L 42.075 65.272 L 42.075 89.564 Z M 35.98 62.575 C 36.542 62.758 37.13 62.849 37.721 62.843 C 37.831 62.843 37.942 62.84 38.053 62.834 C 39.271 62.798 40.429 62.301 41.295 61.445 C 41.314 61.427 41.332 61.408 41.35 61.39 C 42.234 60.534 42.728 59.353 42.716 58.122 C 42.716 58.081 42.716 58.038 42.715 57.997 C 42.709 56.76 42.196 55.579 41.295 54.731 C 40.792 54.238 40.185 53.864 39.519 53.637 C 38.939 53.445 38.331 53.35 37.721 53.356 C 37.545 53.355 37.369 53.362 37.194 53.377 C 36.055 53.449 34.981 53.929 34.168 54.731 C 33.746 55.139 33.406 55.625 33.165 56.161 C 32.897 56.779 32.762 57.448 32.771 58.122 C 32.766 58.68 32.864 59.235 33.057 59.758 C 33.302 60.394 33.681 60.969 34.168 61.445 C 34.675 61.958 35.296 62.346 35.98 62.575 Z" id="1" style=""/>
    <path d="M 56.008 89.564 L 47.3 89.564 L 47.3 65.272 L 56.008 65.272 L 56.008 68.71 L 56.237 68.71 C 56.568 68.168 56.995 67.605 57.518 67.019 C 57.526 67.01 57.535 67 57.543 66.991 C 58.078 66.395 58.789 65.883 59.674 65.455 C 60.087 65.26 60.522 65.113 60.969 65.017 C 61.39 64.924 61.844 64.862 62.332 64.834 C 62.561 64.82 62.791 64.813 63.02 64.814 C 64.509 64.814 65.762 65.067 66.78 65.574 C 67.112 65.739 67.426 65.937 67.718 66.166 C 68.864 67.067 69.681 68.198 70.17 69.558 C 70.659 70.917 70.904 72.285 70.904 73.66 L 70.904 89.564 L 62.195 89.564 L 62.195 75.401 C 62.195 74.515 61.966 73.698 61.508 72.949 C 61.199 72.445 60.703 72.085 60.129 71.947 C 59.83 71.867 59.495 71.826 59.124 71.826 C 57.933 71.826 57.116 72.208 56.672 72.972 C 56.229 73.736 56.008 74.546 56.008 75.401 L 56.008 89.564 Z" id="2" style=""/>
    <path d="M 74.158 98.318 L 74.158 91.443 L 74.708 91.489 C 75.039 91.516 75.482 91.531 76.038 91.534 C 76.099 91.534 76.159 91.534 76.22 91.534 C 76.641 91.535 77.063 91.519 77.483 91.485 C 78.161 91.428 78.756 91.322 79.268 91.168 C 79.826 90.995 80.338 90.7 80.766 90.302 C 80.997 90.091 81.209 89.859 81.399 89.609 L 72.737 65.272 L 81.353 65.272 L 86.028 79.939 L 90.52 65.272 L 99.137 65.272 L 90.933 87.959 C 90.18 90.077 89.3 91.884 88.294 93.379 C 88.198 93.522 88.1 93.663 87.999 93.803 C 86.869 95.377 85.44 96.553 83.714 97.332 C 82.959 97.666 82.172 97.92 81.364 98.089 C 80.573 98.26 79.715 98.378 78.788 98.443 C 78.208 98.482 77.626 98.502 77.045 98.501 C 76.289 98.501 75.674 98.48 75.199 98.439 C 75.104 98.43 75.009 98.421 74.914 98.409 L 74.158 98.318 Z" id="3" style=""/>
    <path d="M 103.032 78.655 L 111.924 78.655 L 112.107 79.297 C 112.23 79.725 112.497 80.221 112.909 80.787 C 113.11 81.057 113.344 81.301 113.607 81.513 C 113.837 81.702 114.099 81.881 114.392 82.051 C 114.53 82.13 114.669 82.205 114.812 82.276 C 115.16 82.446 115.526 82.578 115.903 82.667 C 116.581 82.834 117.378 82.918 118.295 82.918 C 119.803 82.918 120.932 82.677 121.681 82.196 C 121.823 82.106 121.955 82.002 122.076 81.887 C 122.308 81.668 122.514 81.424 122.689 81.158 C 122.96 80.743 123.112 80.309 123.146 79.858 C 123.151 79.793 123.153 79.728 123.153 79.664 C 123.156 79.374 123.108 79.086 123.011 78.813 C 122.876 78.455 122.649 78.139 122.351 77.899 C 122.162 77.747 121.955 77.619 121.735 77.517 C 121.201 77.262 120.481 77.061 119.578 76.914 L 115.041 76.18 C 113.085 75.844 111.237 75.31 109.495 74.576 C 108.402 74.125 107.39 73.5 106.498 72.725 C 106.045 72.326 105.629 71.888 105.255 71.414 C 104.228 70.111 103.687 68.425 103.633 66.355 C 103.63 66.239 103.628 66.122 103.628 66.005 C 103.62 64.896 103.783 63.791 104.114 62.732 C 104.381 61.894 104.765 61.098 105.255 60.368 C 106.091 59.135 107.185 58.098 108.461 57.33 C 108.927 57.045 109.41 56.789 109.907 56.564 C 111.037 56.059 112.225 55.699 113.445 55.491 C 114.58 55.29 115.8 55.189 117.103 55.189 C 117.925 55.186 118.748 55.227 119.566 55.311 C 120.351 55.394 121.082 55.52 121.759 55.689 C 122.059 55.763 122.356 55.849 122.649 55.945 C 124.124 56.432 125.358 57.061 126.349 57.833 C 126.383 57.861 126.418 57.888 126.453 57.916 C 127.461 58.726 128.271 59.574 128.882 60.46 C 129.493 61.346 129.951 62.194 130.257 63.003 C 130.347 63.24 130.432 63.478 130.512 63.717 C 130.659 64.157 130.765 64.538 130.831 64.862 C 130.839 64.899 130.846 64.937 130.853 64.974 L 130.991 65.73 L 122.328 65.73 L 122.168 65.203 C 122.125 65.066 122.07 64.933 122.002 64.806 C 121.874 64.56 121.692 64.295 121.457 64.012 C 121.286 63.808 121.093 63.623 120.881 63.461 C 120.681 63.306 120.455 63.157 120.204 63.016 C 120.081 62.947 119.957 62.882 119.83 62.82 C 119.538 62.68 119.231 62.573 118.916 62.499 C 118.349 62.362 117.684 62.293 116.92 62.293 C 116.131 62.293 115.451 62.37 114.88 62.526 C 114.628 62.593 114.383 62.684 114.147 62.797 C 113.915 62.909 113.693 63.04 113.483 63.189 C 113.134 63.44 112.866 63.722 112.68 64.035 C 112.39 64.524 112.245 65.012 112.245 65.501 C 112.24 65.816 112.303 66.127 112.43 66.415 C 112.581 66.746 112.825 67.025 113.162 67.252 C 113.272 67.325 113.387 67.391 113.505 67.449 C 113.898 67.639 114.303 67.801 114.718 67.933 C 115.284 68.117 115.911 68.268 116.599 68.389 L 121.366 69.168 C 122.824 69.397 124.251 69.794 125.618 70.35 C 125.954 70.487 126.286 70.636 126.613 70.795 C 128.218 71.574 129.509 72.643 130.486 74.003 C 131.108 74.881 131.536 75.879 131.743 76.934 C 131.887 77.652 131.958 78.382 131.953 79.114 C 131.953 81.222 131.403 83.101 130.303 84.751 C 129.485 85.963 128.418 86.986 127.174 87.752 C 126.649 88.081 126.102 88.372 125.536 88.624 C 123.735 89.432 121.588 89.89 119.097 89.997 C 118.707 90.014 118.318 90.022 117.928 90.022 C 115.969 90.022 114.248 89.831 112.765 89.449 C 112.474 89.375 112.186 89.291 111.901 89.197 C 110.353 88.685 109.056 88.042 108.009 87.266 C 107.931 87.208 107.853 87.149 107.776 87.089 C 107.234 86.664 106.725 86.198 106.255 85.695 C 105.862 85.273 105.504 84.82 105.187 84.339 C 104.919 83.934 104.671 83.517 104.441 83.09 C 104.215 82.668 104.024 82.258 103.868 81.861 C 103.833 81.771 103.798 81.68 103.766 81.589 C 103.46 80.733 103.262 80.03 103.17 79.48 L 103.032 78.655 Z" id="4" style=""/>
    <path d="M 144.282 89.564 L 135.574 89.564 L 135.574 65.272 L 144.282 65.272 L 144.282 89.564 Z M 138.188 62.575 C 138.75 62.758 139.337 62.849 139.928 62.843 C 140.039 62.843 140.15 62.84 140.26 62.834 C 141.478 62.798 142.636 62.301 143.503 61.445 C 143.521 61.427 143.54 61.408 143.558 61.39 C 144.442 60.534 144.935 59.353 144.924 58.122 C 144.924 58.081 144.923 58.038 144.922 57.997 C 144.916 56.76 144.403 55.579 143.503 54.731 C 143 54.238 142.392 53.864 141.726 53.637 C 141.146 53.445 140.539 53.35 139.928 53.356 C 139.752 53.355 139.576 53.362 139.401 53.377 C 138.263 53.449 137.189 53.929 136.376 54.731 C 135.954 55.139 135.613 55.625 135.373 56.161 C 135.104 56.779 134.97 57.448 134.978 58.122 C 134.974 58.68 135.071 59.235 135.265 59.758 C 135.51 60.394 135.889 60.969 136.376 61.445 C 136.883 61.958 137.503 62.346 138.188 62.575 Z" id="5" style=""/>
    <path d="M 151.386 80.81 L 151.386 72.147 L 147.445 72.147 L 147.445 65.272 L 151.386 65.272 L 151.386 59.314 L 160.094 59.314 L 160.094 65.272 L 164.815 65.272 L 164.815 72.147 L 160.094 72.147 L 160.094 80.489 C 160.092 80.795 160.126 81.101 160.195 81.4 C 160.294 81.833 160.495 82.236 160.782 82.574 C 161.24 83.109 162.08 83.376 163.303 83.376 C 163.792 83.376 164.204 83.338 164.54 83.262 L 165.044 83.147 L 165.044 89.564 L 163.692 89.793 C 163.272 89.862 162.85 89.915 162.426 89.949 C 161.992 89.985 161.532 90.008 161.047 90.017 C 160.882 90.021 160.717 90.022 160.553 90.022 C 159.961 90.024 159.37 89.995 158.781 89.938 C 157.73 89.831 156.823 89.622 156.061 89.312 C 155.615 89.132 155.185 88.916 154.775 88.666 C 154.3 88.373 153.89 88.047 153.545 87.685 C 153.48 87.618 153.418 87.549 153.357 87.478 C 152.951 87.009 152.606 86.491 152.331 85.935 C 152.194 85.656 152.077 85.368 151.982 85.072 C 151.707 84.216 151.539 83.414 151.478 82.666 C 151.42 81.954 151.389 81.36 151.386 80.883 C 151.386 80.859 151.386 80.834 151.386 80.81 Z" id="6" style=""/>
    <path d="M 170.819 80.81 L 170.819 72.147 L 166.878 72.147 L 166.878 65.272 L 170.819 65.272 L 170.819 59.314 L 179.528 59.314 L 179.528 65.272 L 184.248 65.272 L 184.248 72.147 L 179.528 72.147 L 179.528 80.489 C 179.525 80.795 179.559 81.101 179.628 81.4 C 179.727 81.833 179.928 82.236 180.215 82.574 C 180.673 83.109 181.514 83.376 182.736 83.376 C 183.225 83.376 183.637 83.338 183.973 83.262 L 184.478 83.147 L 184.478 89.564 L 183.125 89.793 C 182.706 89.862 182.283 89.915 181.859 89.949 C 181.425 89.985 180.965 90.008 180.48 90.017 C 180.315 90.021 180.15 90.022 179.986 90.022 C 179.394 90.024 178.803 89.995 178.214 89.938 C 177.163 89.831 176.257 89.622 175.494 89.312 C 175.048 89.132 174.618 88.916 174.208 88.666 C 173.733 88.373 173.323 88.047 172.978 87.685 C 172.913 87.618 172.851 87.549 172.79 87.478 C 172.384 87.009 172.039 86.491 171.764 85.935 C 171.627 85.656 171.511 85.368 171.415 85.072 C 171.14 84.216 170.972 83.414 170.911 82.666 C 170.853 81.954 170.823 81.36 170.819 80.883 C 170.819 80.859 170.819 80.834 170.819 80.81 Z" id="7" style=""/>
    <path d="M 211.977 77.647 L 211.977 79.618 L 195.982 79.618 C 196.073 80.657 196.478 81.574 197.196 82.368 C 197.699 82.918 198.363 83.295 199.093 83.442 C 199.471 83.523 199.857 83.562 200.244 83.559 C 201.252 83.559 202.016 83.384 202.536 83.032 C 202.871 82.806 203.136 82.579 203.331 82.352 C 203.432 82.238 203.518 82.112 203.59 81.978 L 203.865 81.451 L 211.84 81.451 L 211.611 82.322 C 211.552 82.54 211.483 82.755 211.404 82.966 C 211.242 83.406 211.021 83.902 210.74 84.453 C 210.518 84.883 210.26 85.293 209.968 85.679 C 209.691 86.048 209.374 86.419 209.017 86.79 C 208.951 86.86 208.883 86.929 208.815 86.997 C 208.334 87.472 207.801 87.89 207.225 88.244 C 206.724 88.556 206.172 88.841 205.568 89.1 C 205.527 89.117 205.487 89.134 205.446 89.151 C 204.797 89.416 204.123 89.615 203.434 89.744 C 202.48 89.929 201.417 90.022 200.244 90.022 C 198.111 90.022 196.252 89.701 194.663 89.058 C 194.591 89.029 194.518 88.998 194.446 88.968 C 193.479 88.558 192.57 88.024 191.743 87.378 C 191.255 86.994 190.802 86.568 190.39 86.103 C 189.321 84.896 188.526 83.537 188.007 82.024 C 187.487 80.512 187.228 78.961 187.228 77.372 C 187.228 75.844 187.48 74.332 187.984 72.835 C 188.488 71.337 189.259 69.985 190.298 68.778 C 191.152 67.796 192.176 66.976 193.321 66.358 C 193.628 66.19 193.943 66.034 194.263 65.891 C 195.867 65.173 197.769 64.814 199.969 64.814 C 202.352 64.814 204.446 65.318 206.248 66.326 C 208.051 67.335 209.457 68.793 210.465 70.703 C 211.018 71.769 211.416 72.91 211.645 74.089 C 211.846 75.084 211.956 76.151 211.975 77.29 C 211.976 77.409 211.977 77.528 211.977 77.647 Z M 195.936 74.805 L 203.682 74.805 C 203.675 74.441 203.633 74.078 203.555 73.722 C 203.389 72.996 203.065 72.417 202.582 71.987 C 202.117 71.578 201.554 71.296 200.949 71.168 C 200.567 71.085 200.177 71.044 199.786 71.047 C 198.808 71.047 197.945 71.353 197.196 71.964 C 196.759 72.327 196.427 72.802 196.236 73.337 C 196.11 73.671 196.022 74.043 195.97 74.452 C 195.956 74.569 195.944 74.687 195.936 74.805 Z" id="8" style=""/>
    <path d="M 223.665 89.564 L 214.956 89.564 L 214.956 65.272 L 223.573 65.272 L 223.573 69.122 L 223.848 69.122 C 224.024 68.644 224.243 68.183 224.504 67.746 C 224.629 67.535 224.762 67.329 224.902 67.128 C 225.187 66.725 225.534 66.368 225.929 66.071 C 226.226 65.846 226.542 65.648 226.873 65.478 C 227.729 65.035 228.859 64.814 230.265 64.814 C 230.998 64.814 231.556 64.867 231.938 64.974 L 232.51 65.135 L 232.51 73.751 L 231.892 73.591 C 231.761 73.558 231.629 73.532 231.495 73.513 C 231.115 73.458 230.629 73.43 230.036 73.43 C 229.433 73.426 228.831 73.477 228.237 73.583 C 227.585 73.704 227.006 73.897 226.5 74.161 C 226.008 74.415 225.567 74.758 225.2 75.172 C 224.793 75.647 224.476 76.192 224.265 76.781 C 223.892 77.771 223.693 79.004 223.667 80.48 C 223.666 80.59 223.665 80.7 223.665 80.81 L 223.665 89.564 Z" id="9" style=""/>
    <path d="M 234.398 81.635 L 242.235 81.635 L 242.51 82.207 C 242.584 82.355 242.676 82.493 242.786 82.617 C 242.985 82.846 243.258 83.076 243.606 83.306 C 243.631 83.322 243.655 83.338 243.679 83.353 C 243.913 83.499 244.166 83.613 244.431 83.691 C 244.911 83.838 245.493 83.916 246.176 83.925 C 246.222 83.926 246.268 83.926 246.315 83.926 C 246.508 83.927 246.702 83.919 246.895 83.904 C 247.368 83.864 247.732 83.773 247.987 83.628 C 248.089 83.571 248.187 83.507 248.279 83.436 C 248.47 83.29 248.601 83.132 248.675 82.964 C 248.757 82.775 248.808 82.624 248.827 82.508 C 248.832 82.476 248.835 82.445 248.835 82.414 C 248.836 82.026 248.635 81.666 248.305 81.463 C 248.008 81.257 247.587 81.101 247.041 80.994 C 246.952 80.976 246.863 80.961 246.773 80.947 L 243.427 80.397 C 241.93 80.153 240.509 79.755 239.165 79.205 C 238.442 78.915 237.763 78.53 237.142 78.06 C 236.687 77.711 236.274 77.311 235.91 76.868 C 235.085 75.86 234.673 74.546 234.673 72.926 C 234.673 71.399 235.07 70.024 235.865 68.801 C 236.432 67.94 237.169 67.204 238.032 66.639 C 238.458 66.356 238.906 66.105 239.371 65.891 C 240.187 65.518 241.046 65.246 241.929 65.083 C 242.69 64.937 243.505 64.85 244.375 64.823 C 244.578 64.817 244.782 64.814 244.985 64.814 C 245.681 64.811 246.376 64.849 247.068 64.925 C 248.156 65.05 249.112 65.28 249.935 65.616 C 250.46 65.827 250.969 66.073 251.46 66.354 C 251.974 66.65 252.431 66.972 252.83 67.319 C 252.921 67.398 253.011 67.48 253.098 67.564 C 253.428 67.88 253.739 68.216 254.026 68.571 C 254.332 68.95 254.589 69.331 254.799 69.714 C 254.828 69.768 254.857 69.823 254.885 69.878 C 255.281 70.655 255.541 71.311 255.664 71.845 C 255.664 71.846 255.664 71.848 255.664 71.849 L 255.848 72.651 L 248.24 72.651 L 247.987 72.17 C 247.823 71.856 247.497 71.549 247.009 71.249 C 246.999 71.243 246.989 71.236 246.979 71.23 C 246.475 70.925 245.734 70.772 244.756 70.772 C 243.779 70.772 243.121 70.948 242.785 71.299 C 242.564 71.53 242.416 71.758 242.34 71.983 C 242.302 72.094 242.282 72.212 242.281 72.33 C 242.278 72.491 242.31 72.649 242.374 72.797 C 242.454 72.975 242.587 73.123 242.773 73.239 C 242.85 73.287 242.931 73.328 243.015 73.362 C 243.37 73.506 243.798 73.638 244.298 73.758 C 244.495 73.805 244.694 73.849 244.894 73.889 L 247.873 74.439 C 248.832 74.61 249.777 74.854 250.699 75.167 C 251.689 75.509 252.58 75.926 253.372 76.416 C 253.591 76.551 253.805 76.694 254.014 76.845 C 255.331 77.783 256.177 79.246 256.334 80.855 C 256.377 81.205 256.399 81.557 256.398 81.91 C 256.435 83.963 255.6 85.935 254.1 87.338 C 253.968 87.465 253.832 87.589 253.694 87.707 C 251.891 89.251 249.279 90.022 245.856 90.022 C 245.134 90.024 244.413 89.988 243.695 89.912 C 242.984 89.835 242.327 89.717 241.724 89.558 C 241.329 89.455 240.941 89.327 240.562 89.174 C 239.172 88.609 238.065 87.906 237.24 87.066 C 236.897 86.719 236.575 86.352 236.275 85.967 C 235.97 85.572 235.71 85.177 235.497 84.786 C 235.458 84.714 235.42 84.641 235.383 84.568 C 235.262 84.326 235.147 84.081 235.039 83.832 C 234.818 83.321 234.665 82.871 234.581 82.482 L 234.398 81.635 Z" id="10" style=""/>
  </g>
  <g id="g-1" stroke-linecap="round" fill-rule="evenodd" font-size="9pt" stroke="#00000000" stroke-width="0" fill="#37008c" style="stroke: rgba(0, 0, 0, 0); stroke-width: 0; fill: rgb(55, 0, 140);" transform="matrix(0.192564, 0, 0, 0.192564, 449.689697, 19.219046)">
    <path d="M 28.246 71.33 A 45.03 45.03 0 0 0 36.2 72.001 Q 45.2 72.001 51.95 68.951 A 37.842 37.842 0 0 0 53.603 68.155 A 32.417 32.417 0 0 0 63.25 60.751 Q 67.8 55.601 70.05 49.151 Q 72.3 42.701 72.3 36.001 Q 72.3 29.201 70.05 22.801 Q 67.8 16.401 63.25 11.251 A 31.065 31.065 0 0 0 60.517 8.52 A 34.026 34.026 0 0 0 51.95 3.051 A 33.167 33.167 0 0 0 44.081 0.66 A 44.904 44.904 0 0 0 36.2 0.001 A 45.746 45.746 0 0 0 28.998 0.543 A 33.987 33.987 0 0 0 20.4 3.051 A 37.897 37.897 0 0 0 18.532 3.95 A 32.202 32.202 0 0 0 9.05 11.251 Q 4.5 16.401 2.25 22.801 Q 0 29.201 0 36.001 Q 0 42.701 2.25 49.151 Q 4.5 55.601 9.05 60.751 A 30.787 30.787 0 0 0 12.114 63.764 A 34.158 34.158 0 0 0 20.4 68.951 A 33.589 33.589 0 0 0 28.246 71.33 Z M 55.4 30.901 L 44.7 30.901 L 44.2 29.451 A 5.289 5.289 0 0 0 43.521 28.147 Q 43.146 27.61 42.615 27.08 A 10.779 10.779 0 0 0 42.1 26.601 A 4.95 4.95 0 0 0 40.466 25.675 Q 39.73 25.415 38.822 25.298 A 12.663 12.663 0 0 0 37.2 25.201 A 10.297 10.297 0 0 0 34.369 25.567 A 7.302 7.302 0 0 0 30.3 28.451 A 12.553 12.553 0 0 0 28.02 35.203 A 15.55 15.55 0 0 0 28 36.001 Q 28 40.301 30.3 43.551 Q 32.6 46.801 37.2 46.801 Q 39.264 46.801 40.663 46.233 A 4.803 4.803 0 0 0 42.1 45.351 A 10.831 10.831 0 0 0 43.07 44.36 Q 43.521 43.831 43.822 43.309 A 4.956 4.956 0 0 0 44.2 42.501 L 44.7 41.101 L 55.4 41.101 L 55.1 42.601 A 13.475 13.475 0 0 1 54.823 43.714 Q 54.491 44.857 53.9 46.301 Q 53 48.501 51 50.751 A 13.899 13.899 0 0 1 48.21 53.13 A 18.632 18.632 0 0 1 45.7 54.501 Q 43.056 55.702 39.256 55.941 A 31.199 31.199 0 0 1 37.3 56.001 Q 31.343 56.001 27.175 53.802 A 15.597 15.597 0 0 1 25.9 53.051 A 19.388 19.388 0 0 1 20.594 47.983 A 18.411 18.411 0 0 1 19.15 45.551 Q 16.9 41.001 16.9 36.001 Q 16.9 31.001 19.15 26.451 A 18.822 18.822 0 0 1 25.604 19.148 A 22.308 22.308 0 0 1 25.9 18.951 A 17.211 17.211 0 0 1 31.494 16.617 Q 34.147 16.001 37.3 16.001 A 28.624 28.624 0 0 1 40.733 16.194 Q 42.494 16.407 43.973 16.855 A 13.893 13.893 0 0 1 45.7 17.501 A 18.297 18.297 0 0 1 48.508 19.072 A 13.712 13.712 0 0 1 51 21.251 A 19.45 19.45 0 0 1 52.539 23.21 Q 53.287 24.306 53.768 25.391 A 11.547 11.547 0 0 1 53.9 25.701 A 31.988 31.988 0 0 1 54.448 27.13 Q 54.903 28.416 55.1 29.401 L 55.4 30.901 Z M 36.2 62.901 A 33.772 33.772 0 0 0 41.923 62.439 A 24.708 24.708 0 0 0 47.9 60.651 A 24.1 24.1 0 0 0 54.647 56.183 A 22.561 22.561 0 0 0 56.25 54.501 Q 59.6 50.601 61.3 45.801 Q 63 41.001 63 36.001 Q 63 30.901 61.3 26.151 Q 59.6 21.401 56.25 17.501 A 23.414 23.414 0 0 0 48.528 11.643 A 27.172 27.172 0 0 0 47.9 11.351 A 24.813 24.813 0 0 0 41.737 9.531 A 33.959 33.959 0 0 0 36.2 9.101 A 33.775 33.775 0 0 0 30.281 9.595 A 25.062 25.062 0 0 0 24.45 11.351 Q 19.4 13.601 16.05 17.501 Q 12.7 21.401 11 26.151 Q 9.3 30.901 9.3 36.001 Q 9.3 41.001 11 45.801 Q 12.7 50.601 16.05 54.501 A 23.184 23.184 0 0 0 23.442 60.176 A 27.148 27.148 0 0 0 24.45 60.651 A 25.366 25.366 0 0 0 30.841 62.5 A 34.319 34.319 0 0 0 36.2 62.901 Z" id="path-1"/>
  </g>
</svg>