<svg width="1198" height="1048" viewBox="0 0 1198 1048" fill="none" xmlns="http://www.w3.org/2000/svg">
<path d="M1167 920.344C1164.88 920.63 1163.34 920.24 1162.38 917.711C1161.17 914.547 1158.22 912.8 1154.83 911.931C1154.07 912.456 1155.52 913.433 1154.37 914.062C1152.11 914.011 1151.64 911.417 1149.9 910.462C1144.9 907.709 1136.69 909.074 1132 912.434C1124.76 917.614 1123.73 924.681 1125.29 932.39C1130.71 959.192 1113.46 979.564 1095.35 984.518C1084.2 987.57 1072.66 988.892 1061.38 982.082C1052.07 976.466 1044.1 969.706 1037.2 961.527C1034.16 957.918 1030.96 957.415 1026.71 958.7C1021.07 960.403 1016.91 963.908 1013.37 968.399C1009.73 973.019 1011.14 978.337 1011.4 983.446C1011.63 988.09 1012.35 992.709 1012.56 997.352C1012.79 1002.29 1011.21 1004.02 1006.42 1004.8C997.26 1006.28 986.013 999.415 983.174 990.449C980.8 982.954 979.951 975.175 980.002 967.367C980.065 957.733 985.071 950.229 991.284 943.432C1003.73 929.814 1018.98 922.973 1037.53 924.597C1043.83 925.147 1049.28 928.008 1053.91 932.27C1059.34 937.258 1064.6 942.428 1070.02 947.426C1071.41 948.705 1072.99 949.948 1074.7 950.665C1079.32 952.598 1084.02 952.874 1088.3 949.721C1092.24 946.816 1091.59 942.592 1091.25 938.447C1089.93 922.589 1090.07 906.893 1097.95 892.427C1105.6 878.381 1117.05 869.127 1133.1 867.26C1142.6 866.153 1151.74 868.564 1159.41 874.914C1161.82 876.91 1164.12 879.032 1166.74 881.179C1167 894.16 1167 907.059 1167 920.344ZM1096.13 975.103C1096.52 974.611 1097.33 974.365 1096.94 973.114C1093.82 973.342 1091.04 974.282 1088.68 976.378C1090.92 975.055 1093.72 977.139 1096.13 975.103Z" fill="#00AFA1"/>
<path d="M994 763C995.295 752.908 997.184 742.868 1002.22 733.78C1012.2 715.794 1027.22 705.123 1047.7 702.192C1059.86 700.451 1071.84 702.162 1083.87 703.441C1093.58 704.472 1103.14 705.954 1112.71 701.515C1125.22 695.713 1127.94 681.837 1117.81 672.486C1117.53 672.22 1117.32 671.864 1116.88 671.288C1125.33 664.524 1126.28 653.404 1132.15 645.067C1134.76 641.357 1135.3 641.04 1138.67 643.97C1143.61 648.278 1147.49 653.359 1151.07 658.939C1157.51 668.986 1159.04 679.475 1157.38 691.069C1155.88 701.631 1151.98 710.999 1146.06 719.706C1142.08 725.563 1136.13 728.954 1130.23 732.294C1117.43 739.547 1103.68 742.371 1088.96 740.714C1079.51 739.65 1070 738.946 1060.5 738.474C1042.13 737.56 1034.7 743.946 1032.11 762.675C1019.48 763 1006.93 763 994 763ZM1144.09 670.273C1146.81 669.399 1145.4 667.453 1145.17 665.887C1144.79 663.283 1142.64 664.247 1140.53 663.437C1142.02 666.045 1139.49 669.457 1144.09 670.273Z" fill="#00AFA1"/>
<path d="M35 1012C36.2948 1001.91 38.1845 991.868 43.224 982.78C53.199 964.794 68.2176 954.123 88.6963 951.192C100.859 949.451 112.843 951.162 124.873 952.441C134.583 953.472 144.141 954.954 153.712 950.515C166.22 944.713 168.941 930.837 158.814 921.486C158.526 921.22 158.322 920.864 157.876 920.288C166.328 913.524 167.277 902.404 173.147 894.067C175.76 890.357 176.304 890.04 179.666 892.97C184.607 897.278 188.495 902.359 192.07 907.939C198.507 917.986 200.036 928.475 198.384 940.069C196.879 950.631 192.983 959.999 187.062 968.706C183.078 974.563 177.132 977.954 171.235 981.294C158.425 988.547 144.685 991.371 129.96 989.714C120.507 988.65 111.001 987.946 101.499 987.474C83.1302 986.56 75.7047 992.946 73.1094 1011.67C60.4773 1012 47.9301 1012 35 1012ZM185.095 919.273C187.808 918.399 186.399 916.453 186.172 914.887C185.795 912.283 183.638 913.247 181.533 912.437C183.02 915.045 180.495 918.457 185.095 919.273Z" fill="#00AFA1"/>
<path d="M900.977 611.533C895.65 613.674 890.686 615.864 885.269 616.828C878.557 618.024 870.364 612.829 868.842 606.212C868.097 602.972 869.563 600.437 871.242 597.848C878.076 587.311 884.717 576.655 888.915 564.71C893.265 552.331 890.612 546.375 879.177 539.761C870.703 534.86 861.392 532.246 852.444 528.669C838.563 523.119 825.869 515.7 814.019 506.63C805.551 500.15 798.463 492.469 793.86 482.927C786.289 467.231 788.116 451.486 794.815 435.903C798.665 426.948 805.264 419.985 811.286 412.635C815.567 407.408 819.158 401.853 821.947 395.74C825.124 388.778 823.404 381.968 820.539 375.577C816.913 367.487 809.759 362.687 802.166 358.871C798.692 357.126 794.368 357.881 790.524 357.743C780.648 357.389 770.934 356.166 762.267 351.563C751.82 346.016 740.766 340.615 734.184 330.218C729.66 323.071 726.346 315.047 725.667 306.338C725.554 304.884 726.338 303.507 727.445 302.35C729.806 299.882 729.463 297.355 726.868 295.407C725.292 294.225 725.031 292.9 725 291.259C729.928 290.183 730.963 286.943 727.934 282.698C725.417 279.17 725.75 277.812 729.543 276.122C732.613 274.755 733.94 269.816 731.48 267.547C729.537 265.755 730.129 264.504 731.416 263.096C734.31 259.931 736.161 256.114 738.191 252.42C738.997 250.952 739.808 249.439 741.183 248.614C743.404 247.28 744.339 245.253 744.694 242.96C745.296 239.068 747.959 236.739 750.865 234.779C752.487 233.686 754.004 232.683 754.987 230.98C755.685 229.771 756.61 228.832 757.922 228.244C763.873 225.582 768.436 220.857 773.711 217.202C775.881 215.698 776.871 212.444 780.317 212.551C781.716 213.795 779.141 214.211 780.054 215.732C780.123 215.833 780.74 215.943 781.167 215.629C786.49 211.713 792.364 212.35 798.295 213.511C799.437 213.734 800.792 213.823 801.342 212.914C803.341 209.614 806.396 210.531 809.312 210.469C811.015 210.433 813.587 211.805 813.875 208.375C813.888 208.21 814.916 207.894 815.341 208.036C821.536 210.115 828.347 209.708 834.3 212.76C835.494 213.372 836.761 213.841 838.423 214.562C836.142 216.894 837.503 218.264 839.365 219.372C840.883 220.276 842.55 220.933 844.054 221.856C846.861 223.578 849.514 225.468 849.339 229.336C849.259 231.088 850.38 232.034 851.716 232.859C854.033 234.291 856.365 235.703 858.618 237.231C860.949 238.811 862.909 238.584 864.803 236.175C864.195 235.214 863.568 234.224 862.914 233.19C864.561 232.102 865.41 233.35 866.204 234.073C871.728 239.104 875.908 245.103 878.658 252.059C879.471 254.116 879.132 255.237 876.885 256.899C874.091 258.966 869.697 259.813 869.268 264.249C863.945 263.863 856.119 269.234 854.403 273.724C853.678 275.619 855.433 276.98 854.577 278.796C853.285 281.539 851.255 283.359 848.74 284.735C844.456 283.169 842.748 279.884 841.258 275.794C839.112 269.904 835.615 264.661 829.709 261.615C825.842 259.622 822.527 256.73 818.436 255.05C810.014 251.59 801.717 253.833 794.305 257.016C782.617 262.036 774.663 271.423 770.437 283.599C768.492 289.203 767.63 294.993 769.433 300.842C770.541 304.436 773.009 306.859 776.461 308.307C786.738 312.617 797.421 314.594 808.57 315.356C820.106 316.145 830.846 319.928 839.813 327.836C848.263 335.287 855.868 343.444 861.178 353.436C869.49 369.08 873.186 385.769 868.903 403.175C865.501 417.006 859.114 429.742 850.303 441.092C847.048 445.286 843.702 449.413 840.326 453.511C832.922 462.499 836.453 472.658 844.773 478.636C853.018 484.558 862.2 488.664 871.587 492.433C883.091 497.052 894.833 501.226 905.608 507.438C918.398 514.811 929.183 524.19 933.925 538.914C936.367 546.495 936.644 554.177 934.808 561.906C931.845 574.386 926.834 585.971 919.303 596.39C914.581 602.922 908.601 608 900.977 611.533ZM843.858 353.9C842.887 352.321 841.658 350.704 839.723 352.135C837.8 353.559 839.638 355.016 840.378 356.299C841.249 357.809 842.284 359.227 843.286 360.659C843.945 361.602 844.835 362.346 845.996 361.665C847.231 360.94 847.396 359.757 846.691 358.521C845.895 357.124 845.049 355.755 843.858 353.9Z" fill="#00AFA1"/>
<path d="M1120.77 483.045C1115.59 479.693 1109.55 479.097 1104.76 475.4C1089.47 463.605 1083.05 448.298 1085.51 429.014C1087.08 416.716 1093.09 406.853 1100.14 396.955C1105.75 389.063 1112.92 384.188 1120.99 379.954C1124.46 378.132 1128.19 377.554 1132.07 378.348C1138.27 379.613 1144.49 377.507 1150.75 378.678C1159.8 380.37 1168.27 382.885 1175.6 389.05C1179.74 392.539 1184.49 395.269 1187.58 399.934C1199.96 418.641 1201.09 438.165 1192.14 458.639C1187.06 470.243 1178.34 478.187 1167.76 484.149C1161.65 487.592 1154.76 488.167 1147.66 487.964C1138.48 487.703 1129.65 486.314 1120.77 483.045ZM1122.32 432.393C1124.16 438.573 1126.26 444.33 1132.36 447.992C1140.63 452.966 1150.47 455.071 1158.46 449.123C1166.96 442.79 1169.38 424.47 1158.13 415.145C1150.56 408.867 1142.12 407.864 1133.3 411.137C1128.74 412.828 1121.68 423.95 1122.32 432.393ZM1190.09 416.881C1188.22 407.693 1179.87 398.678 1174.06 399.806C1174.12 401.283 1174.03 402.928 1175.08 404.051C1178.75 407.977 1180.63 412.801 1182.39 417.77C1183.95 422.194 1185.14 426.906 1189.7 429.523C1190.66 430.073 1191.39 430.331 1192.27 429.792C1193.26 429.185 1193.17 428.197 1192.91 427.228C1192.02 423.97 1191.11 420.715 1190.09 416.881Z" fill="#00AFA1"/>
<path d="M1167.02 216.543C1171.34 219.946 1176.24 220.569 1181.18 221.549C1184.93 222.291 1188.72 224.05 1191.82 226.274C1193.76 227.661 1194.56 230.013 1193.58 233.602C1191.54 241.117 1186.12 245.408 1181.2 250.414C1174.8 256.928 1168.68 263.743 1160.59 268.325C1154.77 271.617 1148.58 273.666 1141.9 274.269C1137.62 274.655 1133.52 276.388 1129.02 275.207C1127.34 274.764 1125.39 275.89 1123.78 277.1C1121.38 278.903 1118.42 279.359 1115.58 278.992C1111.3 278.441 1107.21 278.627 1103.26 280.408C1102.14 280.911 1101.17 280.484 1100.09 280.273C1097.37 279.738 1094.8 278.645 1091.87 280.463C1089.9 281.683 1087.12 280.566 1085.13 279.672C1080.64 277.649 1075.81 276.967 1071.23 275.473C1052.2 269.265 1033.82 261.553 1019.5 246.992C1006.23 233.504 999.102 216.852 996.591 198.287C995.228 188.212 995.153 178.036 995.694 167.866C995.822 165.478 997.216 163.506 997.572 161.288C1000.01 146.127 1007.43 133.243 1015.07 120.19C1022.97 106.695 1033.11 95.3172 1043.93 84.3063C1051.25 76.8646 1055.34 67.7365 1057.1 57.5702C1058.18 51.3369 1055.52 46.3701 1049.85 43.4563C1040.15 38.4711 1030.09 39.5613 1020.29 42.5682C1008.97 46.0397 998.018 47.3137 986.719 42.4424C980.701 39.8476 979.126 37.3931 980.423 30.8177C982.331 21.1477 988.161 14.7393 996.736 10.6412C1008.52 5.01021 1020.8 0.524814 1033.96 0.0552479C1052.9 -0.620702 1069.97 4.89906 1083.71 18.3069C1092.19 26.5852 1096.08 37.1359 1097.24 48.9432C1098.99 66.7527 1094.32 82.7268 1085.14 97.8416C1078.77 108.334 1069.82 116.632 1062.26 126.092C1052.64 138.122 1042.71 150.142 1038.1 165.14C1034.41 177.169 1034.52 189.45 1037.77 201.785C1040.01 210.272 1045.23 215.823 1052.16 220.781C1062.3 228.032 1072.98 233.821 1085.36 235.793C1099.31 238.016 1113.35 238.593 1127.32 236.01C1130.64 235.398 1133.46 233.238 1136.2 231.156C1144.22 225.07 1152.03 218.733 1159.41 211.733C1162.05 213.454 1164.38 214.977 1167.02 216.543ZM1032.38 255.025C1035.77 255.492 1038.27 257.198 1040.47 259.862C1042.45 262.267 1045.46 262.706 1048.56 262.393C1048.48 260.994 1047.46 260.696 1046.72 260.165C1042.61 257.224 1037.54 255.735 1033.85 252.253C1029.25 247.916 1022.59 245.035 1022.53 237.186C1022.52 235.97 1021.51 234.905 1019.78 234.676C1017.57 234.385 1012.96 228.257 1013.94 226.824C1016.88 222.512 1013.18 221.328 1010.89 219.38C1011.92 228.043 1012.3 236.881 1019.13 243.627C1022.62 247.067 1025.73 250.896 1030.47 252.81C1031.11 253.069 1031.47 254.024 1032.38 255.025ZM1069.47 259.398C1070.38 259.949 1071.6 260.013 1072.19 261.079C1072.4 262.085 1070.24 261.648 1071.03 263.15C1073.02 266.955 1076.81 265.494 1080.36 266.756C1080.11 264.6 1079.91 262.967 1079.67 260.925C1074.85 261.813 1072.41 255.881 1066.87 257.331C1067.88 258.172 1068.46 258.658 1069.47 259.398ZM1107.74 267.444C1107 269.091 1106.66 270.8 1108.99 271.233C1111.1 271.627 1112.5 270.53 1112.97 268.106C1111.15 267.799 1109.99 265.871 1107.74 267.444ZM1099.6 267.885C1098.28 267.756 1096.99 267.75 1095.87 268.857C1098.8 271.142 1101.94 271.143 1105.25 270.336C1103.12 270.462 1101.87 268.702 1099.6 267.885Z" fill="#00AFA1"/>
<path d="M781.262 1045.13C765.898 1048.09 750.895 1049.55 735.768 1045.57C704.477 1037.32 685.118 1007.62 689.657 975.237C691.215 964.122 693.553 953.389 699.217 943.662C705.272 933.262 713.999 925.548 724.123 919.337C725.424 918.539 726.555 917.978 726.865 915.871C727.235 913.352 728.982 911.54 731.946 910.366C736.556 908.54 740.566 905.229 745.006 902.887C748.236 901.184 751.751 900.036 755.135 898.63C756.552 898.041 758.473 897.893 757.592 895.414C759.106 895.66 759.755 897.264 761.3 896.657C761.961 895.607 760.514 894.388 761.419 893.25C767.961 890.385 776.39 890.258 790.069 892.861C790.86 893.82 788.282 894.832 790.081 895.872C791.518 896.703 792.821 897.059 794.173 895.746C794.596 894.642 792.56 894.61 793.271 893.143C795.743 893.244 798.289 892.384 800.991 893.315C811.385 896.898 820.594 902.306 827.898 910.72C831.887 915.315 836.618 919.504 839.561 924.714C843.668 931.983 845.647 940.323 848.48 948.228C850.992 955.239 852.434 962.354 851.883 969.843C851.743 971.75 851.759 973.523 850.727 975.336C849.148 978.113 850.012 981.205 850.013 984.264C850.014 990.281 847.708 996.057 844.95 1001.42C838.298 1014.34 827.924 1023.71 815.79 1031.12C805.171 1037.61 793.897 1042.67 781.262 1045.13ZM806.787 941.041C800.85 933.643 793.796 928.912 783.852 928.053C772.761 927.096 763.742 931.413 755.038 937.051C745.315 943.35 739.532 953.376 732.766 962.422C729.373 966.958 727.479 971.961 726.773 977.801C724.574 996.001 734.583 1008.55 752.738 1009.57C757.762 1009.85 762.725 1009.42 767.73 1008.89C782.577 1007.32 795.233 1001.09 805.718 990.63C809.388 986.968 812.387 982.544 813.926 977.185C817.703 964.029 814.961 952.325 806.787 941.041ZM775.716 917.966C777.863 918.054 775.372 916.33 776.509 915.997C777.634 914.918 778.55 918.424 779.778 916.192C780.787 914.359 778.758 914.306 778.147 913.46C775.459 909.74 772.347 912.337 768.711 912.756C771.269 914.684 773.302 916.215 775.716 917.966Z" fill="#00AFA1"/>
<path d="M105 93.656C107.121 93.37 108.658 93.76 109.621 96.2891C110.826 99.4531 113.785 101.201 117.171 102.069C117.931 101.545 116.481 100.567 117.628 99.9385C119.89 99.9894 120.362 102.583 122.099 103.538C127.105 106.291 135.307 104.927 140.002 101.567C147.24 96.3865 148.27 89.3197 146.709 81.6101C141.286 54.8082 158.536 34.4363 176.647 29.4822C187.802 26.4307 199.339 25.1083 210.623 31.9179C219.931 37.5348 227.9 44.2945 234.796 52.4732C237.839 56.0821 241.039 56.5858 245.294 55.3002C250.933 53.597 255.086 50.0921 258.628 45.6011C262.272 40.9811 260.859 35.6638 260.603 30.5541C260.37 25.9107 259.647 21.2914 259.436 16.6479C259.212 11.707 260.793 9.97886 265.576 9.20305C274.74 7.71679 285.987 14.5856 288.826 23.5518C291.2 31.0465 292.049 38.8257 291.998 46.6333C291.935 56.267 286.929 63.7715 280.716 70.5684C268.267 84.1866 253.019 91.0274 234.467 89.4038C228.173 88.8529 222.724 85.9925 218.086 81.7304C212.658 76.7421 207.395 71.5728 201.976 66.5747C200.589 65.2956 199.014 64.0521 197.3 63.3354C192.679 61.4021 187.983 61.1266 183.702 64.2794C179.758 67.1839 180.41 71.4084 180.755 75.5532C182.074 91.4116 181.927 107.107 174.05 121.573C166.401 135.62 154.946 144.873 138.903 146.741C129.402 147.847 120.259 145.436 112.594 139.087C110.185 137.091 107.879 134.968 105.263 132.822C105 119.841 105 106.941 105 93.656ZM175.866 38.8972C175.483 39.3891 174.667 39.6357 175.063 40.8867C178.177 40.6582 180.96 39.7179 183.324 37.6228C181.078 38.9459 178.275 36.8616 175.866 38.8972Z" fill="#00AFA1"/>
<path d="M490 221C488.705 231.092 486.816 241.133 481.776 250.22C471.801 268.207 456.782 278.878 436.304 281.809C424.141 283.549 412.157 281.838 400.127 280.56C390.417 279.528 380.859 278.046 371.288 282.486C358.78 288.288 356.059 302.163 366.186 311.514C366.474 311.78 366.678 312.136 367.124 312.713C358.672 319.476 357.723 330.597 351.853 338.933C349.24 342.643 348.696 342.961 345.334 340.03C340.393 335.723 336.505 330.641 332.93 325.061C326.494 315.014 324.964 304.526 326.616 292.932C328.121 282.37 332.017 273.001 337.938 264.295C341.922 258.437 347.868 255.046 353.765 251.707C366.575 244.453 380.315 241.629 395.04 243.287C404.493 244.35 413.999 245.054 423.501 245.527C441.87 246.44 449.295 240.055 451.891 221.325C464.523 221 477.07 221 490 221ZM339.905 313.727C337.192 314.602 338.601 316.547 338.828 318.114C339.205 320.718 341.362 319.753 343.467 320.564C341.98 317.955 344.505 314.543 339.905 313.727Z" fill="#00AFA1"/>
<path d="M35.023 286.467C40.35 284.326 45.3141 282.137 50.7307 281.172C57.4429 279.977 65.6362 285.171 67.1582 291.789C67.9033 295.028 66.4369 297.563 64.758 300.152C57.9242 310.689 51.2829 321.345 47.0853 333.29C42.735 345.669 45.3876 351.626 56.8226 358.239C65.2969 363.141 74.6084 365.754 83.5559 369.332C97.4368 374.881 110.131 382.301 121.981 391.37C130.449 397.851 137.537 405.531 142.14 415.073C149.711 430.769 147.884 446.514 141.185 462.098C137.335 471.052 130.736 478.015 124.714 485.366C120.433 490.592 116.842 496.148 114.053 502.26C110.876 509.223 112.596 516.032 115.461 522.423C119.087 530.513 126.241 535.313 133.834 539.129C137.308 540.875 141.633 540.119 145.476 540.257C155.352 540.611 165.066 541.835 173.733 546.437C184.18 551.984 195.234 557.385 201.816 567.783C206.34 574.929 209.654 582.953 210.333 591.663C210.446 593.116 209.662 594.493 208.555 595.65C206.194 598.119 206.537 600.645 209.133 602.593C210.708 603.775 210.969 605.101 211 606.741C206.072 607.817 205.037 611.057 208.066 615.303C210.583 618.831 210.251 620.189 206.457 621.878C203.387 623.245 202.06 628.184 204.52 630.453C206.463 632.245 205.871 633.496 204.584 634.904C201.69 638.069 199.839 641.886 197.809 645.58C197.003 647.048 196.192 648.562 194.818 649.387C192.596 650.72 191.661 652.747 191.306 655.041C190.704 658.932 188.041 661.261 185.135 663.221C183.513 664.314 181.996 665.317 181.013 667.02C180.315 668.229 179.39 669.169 178.078 669.756C172.127 672.419 167.564 677.143 162.289 680.798C160.119 682.302 159.129 685.556 155.683 685.45C154.284 684.205 156.859 683.789 155.946 682.268C155.877 682.168 155.26 682.057 154.833 682.371C149.51 686.287 143.636 685.651 137.705 684.49C136.563 684.266 135.208 684.177 134.658 685.086C132.659 688.386 129.604 687.47 126.688 687.531C124.985 687.568 122.413 686.195 122.125 689.625C122.112 689.79 121.085 690.107 120.66 689.964C114.464 687.885 107.653 688.292 101.7 685.241C100.506 684.628 99.2389 684.159 97.5769 683.438C99.8578 681.107 98.4974 679.736 96.6348 678.628C95.1167 677.724 93.4505 677.068 91.9459 676.145C89.1389 674.422 86.4862 672.532 86.6614 668.664C86.7408 666.912 85.6197 665.966 84.2844 665.141C81.9674 663.71 79.6352 662.297 77.3817 660.77C75.0507 659.19 73.0907 659.417 71.1975 661.825C71.8053 662.786 72.4318 663.777 73.0857 664.811C71.4386 665.899 70.5898 664.651 69.7959 663.928C64.2722 658.896 60.0918 652.897 57.3419 645.941C56.5287 643.884 56.868 642.764 59.1149 641.101C61.9087 639.034 66.3029 638.188 66.7321 633.751C72.0547 634.137 79.8808 628.766 81.5975 624.276C82.3217 622.382 80.5672 621.021 81.423 619.204C82.7154 616.461 84.7445 614.642 87.2596 613.266C91.5439 614.831 93.2516 618.116 94.7416 622.206C96.8881 628.097 100.385 633.34 106.291 636.385C110.158 638.378 113.473 641.27 117.564 642.951C125.986 646.41 134.283 644.168 141.695 640.984C153.383 635.964 161.337 626.578 165.563 614.402C167.508 608.797 168.37 603.008 166.567 597.158C165.459 593.564 162.991 591.141 159.539 589.693C149.262 585.383 138.579 583.406 127.43 582.644C115.894 581.856 105.154 578.072 96.187 570.165C87.7368 562.713 80.1317 554.556 74.8225 544.564C66.5104 528.92 62.8144 512.231 67.0966 494.825C70.4995 480.994 76.8865 468.258 85.6967 456.908C88.9524 452.714 92.2976 448.588 95.6736 444.489C103.078 435.502 99.5471 425.342 91.2266 419.365C82.9818 413.442 73.8 409.336 64.413 405.567C52.9092 400.949 41.1667 396.774 30.3922 390.563C17.6022 383.19 6.81685 373.81 2.07499 359.087C-0.366646 351.505 -0.643603 343.824 1.19187 336.094C4.1554 323.614 9.16627 312.029 16.6972 301.61C21.4186 295.079 27.3989 290 35.023 286.467ZM92.1417 544.1C93.113 545.68 94.3423 547.297 96.2771 545.865C98.2004 544.442 96.362 542.984 95.6222 541.702C94.751 540.191 93.7159 538.773 92.7144 537.341C92.0549 536.398 91.1654 535.654 90.0039 536.336C88.7694 537.06 88.6038 538.243 89.3088 539.479C90.1053 540.876 90.9511 542.245 92.1417 544.1Z" fill="#00AFA1"/>
<path d="M497.234 536.955C502.415 540.308 508.447 540.904 513.239 544.601C528.528 556.396 534.947 571.702 532.49 590.987C530.922 603.285 524.906 613.147 517.865 623.045C512.25 630.937 505.084 635.813 497.011 640.046C493.535 641.869 489.811 642.446 485.926 641.653C479.729 640.387 473.51 642.493 467.249 641.323C458.198 639.63 449.73 637.115 442.405 630.951C438.258 627.461 433.508 624.732 430.42 620.067C418.038 601.36 416.913 581.835 425.864 561.362C430.938 549.757 439.66 541.813 450.241 535.852C456.353 532.408 463.24 531.833 470.344 532.036C479.516 532.298 488.349 533.687 497.234 536.955ZM495.678 587.607C493.836 581.428 491.736 575.67 485.643 572.008C477.368 567.035 467.529 564.929 459.542 570.878C451.039 577.21 448.616 595.53 459.868 604.855C467.443 611.133 475.877 612.136 484.699 608.863C489.256 607.173 496.322 596.05 495.678 587.607ZM427.914 603.119C429.779 612.308 438.131 621.322 443.943 620.194C443.882 618.718 443.974 617.072 442.923 615.949C439.247 612.023 437.367 607.2 435.613 602.231C434.052 597.806 432.86 593.094 428.296 590.477C427.338 589.928 426.607 589.67 425.729 590.209C424.742 590.815 424.827 591.804 425.092 592.772C425.984 596.031 426.889 599.285 427.914 603.119Z" fill="#00AFA1"/>
<path d="M246.981 831.457C242.662 828.055 237.764 827.431 232.816 826.451C229.073 825.71 225.283 823.95 222.177 821.726C220.24 820.339 219.44 817.987 220.418 814.398C222.465 806.883 227.882 802.592 232.8 797.586C239.198 791.072 245.317 784.257 253.412 779.675C259.228 776.383 265.418 774.334 272.1 773.731C276.375 773.345 280.479 771.612 284.975 772.793C286.663 773.237 288.613 772.111 290.225 770.9C292.624 769.098 295.579 768.642 298.422 769.008C302.703 769.559 306.793 769.374 310.742 767.592C311.858 767.089 312.831 767.516 313.907 767.728C316.627 768.262 319.205 769.355 322.134 767.537C324.1 766.317 326.883 767.434 328.868 768.328C333.364 770.351 338.194 771.033 342.774 772.527C361.795 778.735 380.179 786.447 394.503 801.008C407.772 814.497 414.898 831.148 417.409 849.713C418.772 859.788 418.847 869.964 418.305 880.134C418.178 882.522 416.784 884.494 416.428 886.713C413.992 901.873 406.573 914.758 398.933 927.81C391.034 941.305 380.888 952.683 370.066 963.694C362.751 971.136 358.66 980.264 356.898 990.43C355.817 996.663 358.481 1001.63 364.151 1004.54C373.853 1009.53 383.908 1008.44 393.712 1005.43C405.031 1001.96 415.982 1000.69 427.281 1005.56C433.299 1008.15 434.874 1010.61 433.577 1017.18C431.669 1026.85 425.839 1033.26 417.264 1037.36C405.483 1042.99 393.203 1047.48 380.041 1047.94C361.095 1048.62 344.026 1043.1 330.288 1029.69C321.806 1021.42 317.922 1010.86 316.759 999.057C315.006 981.248 319.682 965.273 328.856 950.159C335.225 939.666 344.175 931.369 351.74 921.908C361.361 909.878 371.293 897.858 375.896 882.861C379.588 870.832 379.484 858.55 376.228 846.216C373.986 837.728 368.769 832.177 361.837 827.219C351.7 819.968 341.016 814.18 328.637 812.207C314.695 809.985 300.648 809.407 286.677 811.99C283.365 812.602 280.543 814.762 277.798 816.844C269.775 822.93 261.966 829.267 254.594 836.267C251.952 834.546 249.616 833.023 246.981 831.457ZM381.616 792.975C378.227 792.509 375.725 790.802 373.531 788.139C371.549 785.733 368.541 785.294 365.44 785.607C365.517 787.006 366.537 787.304 367.279 787.835C371.388 790.776 376.457 792.265 380.151 795.748C384.752 800.084 391.412 802.965 391.474 810.815C391.483 812.03 392.487 813.095 394.224 813.324C396.43 813.615 401.043 819.743 400.064 821.176C397.119 825.488 400.817 826.672 403.114 828.621C402.084 819.957 401.699 811.12 394.866 804.373C391.381 800.933 388.272 797.104 383.528 795.19C382.886 794.931 382.528 793.976 381.616 792.975ZM344.53 788.602C343.618 788.051 342.403 787.987 341.807 786.921C341.601 785.915 343.76 786.352 342.973 784.85C340.978 781.045 337.193 782.506 333.636 781.244C333.894 783.4 334.089 785.033 334.333 787.075C339.152 786.187 341.586 792.119 347.129 790.67C346.12 789.829 345.536 789.342 344.53 788.602ZM306.255 780.557C306.996 778.91 307.34 777.201 305.015 776.768C302.899 776.373 301.504 777.47 301.025 779.894C302.851 780.201 304.014 782.129 306.255 780.557ZM314.396 780.115C315.721 780.244 317.012 780.25 318.128 779.143C315.201 776.858 312.059 776.857 308.752 777.664C310.882 777.538 312.126 779.299 314.396 780.115Z" fill="#00AFA1"/>
<path d="M632.738 2.87006C648.102 -0.0905688 663.105 -1.55098 678.232 2.43426C709.523 10.6781 728.882 40.3831 724.343 72.7633C722.784 83.8788 720.446 94.6109 714.783 104.338C708.728 114.738 700.001 122.452 689.877 128.663C688.576 129.462 687.445 130.022 687.135 132.129C686.765 134.649 685.018 136.46 682.054 137.634C677.444 139.46 673.434 142.771 668.993 145.113C665.764 146.816 662.249 147.965 658.865 149.371C657.447 149.96 655.527 150.107 656.407 152.586C654.893 152.341 654.245 150.736 652.699 151.343C652.039 152.393 653.486 153.613 652.581 154.75C646.039 157.616 637.61 157.743 623.931 155.139C623.14 154.18 625.718 153.168 623.919 152.128C622.482 151.298 621.178 150.942 619.827 152.254C619.404 153.358 621.439 153.39 620.729 154.857C618.257 154.756 615.711 155.616 613.009 154.685C602.615 151.102 593.406 145.695 586.102 137.281C582.113 132.685 577.382 128.496 574.439 123.286C570.332 116.017 568.353 107.677 565.52 99.7723C563.008 92.7614 561.566 85.6467 562.116 78.1575C562.257 76.2505 562.241 74.4778 563.272 72.6648C564.852 69.8878 563.988 66.7955 563.987 63.7361C563.986 57.7195 566.292 51.9433 569.05 46.5839C575.702 33.6597 586.076 24.2907 598.21 16.8782C608.828 10.3917 620.103 5.33495 632.738 2.87006ZM607.213 106.959C613.149 114.358 620.204 119.088 630.148 119.947C641.239 120.905 650.258 116.587 658.961 110.949C668.685 104.65 674.468 94.6241 681.234 85.5785C684.627 81.0419 686.521 76.0397 687.227 70.1998C689.426 51.999 679.417 39.4511 661.262 38.4317C656.238 38.1496 651.275 38.5821 646.27 39.1108C631.422 40.6788 618.767 46.91 608.282 57.3709C604.611 61.0324 601.613 65.4566 600.074 70.8154C596.297 83.9711 599.039 95.6757 607.213 106.959ZM638.284 130.035C636.137 129.946 638.628 131.67 637.49 132.003C636.366 133.082 635.45 129.576 634.221 131.808C633.212 133.641 635.242 133.695 635.852 134.54C638.54 138.261 641.653 135.664 645.289 135.244C642.73 133.317 640.698 131.785 638.284 130.035Z" fill="#00AFA1"/>
</svg>
