<svg width="1134" height="750" viewBox="0 0 1134 750" fill="none" xmlns="http://www.w3.org/2000/svg">
<path d="M1094.13 748.243C1073.87 749.725 1055.76 743.676 1038.88 734.406C1032.23 730.758 1025.82 725.742 1022.23 717.811C1020.07 713.052 1019.8 708.086 1018.12 703.371C1017.58 701.87 1019.01 699.672 1019.56 697.687C1024.35 698.609 1029.01 699.512 1033.66 700.398C1036.53 700.943 1038.26 702.829 1040.43 704.722C1046.01 709.585 1052.54 713.759 1060.09 714.525C1067.85 715.312 1075.74 715.101 1083.56 714.886C1091.54 714.667 1098.61 711.911 1103.62 705.349C1106.68 701.336 1107.77 696.743 1106.4 691.712C1105.37 687.938 1103.37 686.692 1099.37 687.928C1079.02 694.217 1059.91 690.375 1041.66 680.358C1035.82 677.155 1031.77 672.045 1027.61 667.058C1027.29 666.68 1026.84 666.183 1026.88 665.78C1027.65 657.453 1023.77 649.995 1022.56 642.066C1021.75 636.752 1026.98 633.233 1032.21 635.44C1034.44 636.381 1035.94 636.393 1038.19 635.728C1040.25 635.119 1043.96 635.106 1044.82 636.326C1048.58 641.661 1055.93 635.601 1059.17 641.347C1067.6 639.966 1073.34 645.959 1080.14 649.015C1081.35 649.557 1082.42 650.418 1083.65 650.905C1086.27 651.944 1088.12 656.112 1091.37 654.025C1095.51 651.373 1099.72 648.3 1100.09 642.572C1100.12 642.074 1100.13 641.573 1100.14 641.074C1100.18 629.812 1098.89 629.492 1089.23 632.297C1083.4 633.989 1077.67 632.442 1071.93 631.61C1062.84 630.292 1054 627.903 1045.44 624.63C1033.52 620.074 1028.98 612.65 1031.26 600.276C1031.96 596.47 1030.37 593.074 1031.07 589.449C1031.62 586.569 1036.42 583.425 1038.13 585.391C1040.51 588.138 1042.72 586.983 1044.75 586.179C1050.51 583.908 1056.19 584.202 1061.85 586.099C1067.3 587.93 1072.7 589.891 1078 592.238C1080.89 593.52 1081.46 596.423 1084.32 597.745C1087.77 599.344 1090.01 598.658 1092.46 596.817C1098.34 592.39 1101.48 586.219 1102.94 579.175C1103.86 574.767 1102.54 573.566 1098.17 574.973C1082.18 580.121 1066.62 577.436 1051.08 572.845C1039.49 569.421 1035.67 559.529 1031.65 549.849C1030.51 547.119 1030.07 544.07 1029.54 541.125C1028.82 537.063 1031.84 532.349 1035.73 530.928C1037.9 530.131 1040.02 529.142 1042.12 528.158C1045.37 526.637 1048.15 526.067 1050.67 529.775C1052.17 531.989 1062.39 531.174 1064.78 529.113C1069.17 525.317 1073.27 525.001 1077.77 528.312C1080.97 530.673 1084.35 532.752 1087.12 535.75C1090.45 539.345 1099.16 537.182 1102.19 533.408C1107.2 527.148 1107.23 520.191 1104.93 513.639C1102.13 505.627 1096.39 499.597 1087.61 497.386C1085.68 496.9 1083.71 496.522 1081.83 495.886C1079.31 495.035 1077.23 495.393 1075.63 497.586C1073.34 500.72 1071.07 500.017 1068.52 497.823C1063.49 493.498 1064.05 487.385 1068.9 482.871C1074.48 477.668 1081.17 476.254 1088.12 476.011C1094.45 475.79 1100.26 478.818 1106.1 481.083C1109.35 482.345 1112.29 483.53 1113.18 487.957C1113.99 492.011 1117.49 494.986 1120.99 497.353C1130.58 503.846 1133.18 513.508 1133.72 524.303C1133.83 526.482 1131.13 526.204 1131.35 528.689C1131.6 531.596 1132.9 534.478 1132.94 536.732C1133.01 540.365 1131.07 544.701 1127.61 547.443C1127.09 547.855 1126.5 548.187 1125.49 548.862C1129.3 550.379 1128.2 552.535 1126.48 554.742C1126.38 554.874 1126.28 555.012 1126.17 555.138C1115.42 567.571 1118.45 564.279 1124.17 578.017C1124.49 578.779 1125.36 579.636 1125.19 580.222C1123.72 585.307 1127.29 589.872 1127.03 594.271C1126.74 599.274 1122.32 603.588 1119.42 608.042C1119.08 608.576 1118.79 609.147 1118.47 609.697C1119.74 610.697 1120.12 608.603 1121.79 609.569C1119.67 612.95 1117.95 616.703 1115.32 619.639C1112.62 622.657 1113.14 624.82 1114.91 627.983C1119.1 635.494 1119.77 644.176 1122.27 652.173C1125.36 662.078 1117.5 667.757 1116.32 675.792C1115.58 680.842 1116.39 688.426 1120.36 691.904C1126.96 697.687 1128.47 705.725 1128.06 713.523C1127.49 724.462 1122.52 734.015 1114.12 741.328C1108.6 746.132 1101.47 746.966 1094.13 748.243ZM1076.64 544.332C1068.31 539.5 1059.62 537.004 1050.01 540.144C1048.41 540.668 1046.51 540.818 1046.23 542.8C1045.97 544.757 1047.7 545.739 1049.13 546.481C1057.77 550.971 1067.05 551.893 1076.58 550.934C1078.39 550.751 1080 549.716 1080.79 547.913C1080.44 545.861 1078.77 545.34 1076.64 544.332ZM1070.98 655.885C1062.06 651.343 1052.82 648.324 1042.51 648.971C1044.08 661.067 1063.85 667.051 1074.45 659.358C1074.33 657.567 1072.9 656.945 1070.98 655.885ZM1070.1 604.014C1071.07 603.744 1072.49 604.554 1073.06 602.225C1065.26 598.528 1057.69 594.087 1047.43 596.342C1053.96 603.031 1061.4 604.187 1070.1 604.014Z" fill="#00BFAF"/>
<path d="M903.909 129.642C901.261 147.738 892.212 161.56 877.864 171.626C873.027 175.02 866.78 177.178 860.657 173.136C860.38 172.953 860.089 172.773 859.779 172.661C856.432 171.443 851.624 172.193 850.237 168.241C848.675 163.787 847.978 158.846 848.439 154.037C849.167 146.427 850.184 138.849 853.658 131.838C855.704 127.709 855.781 122.901 858.322 118.838C860.424 115.479 862.01 111.892 865.135 109.187C868.483 106.289 869.029 103.077 865.785 99.3072C857.993 90.2545 848.062 84.7865 836.687 82.1493C833.575 81.4276 829.881 81.9866 826.457 82.0055C823.3 82.0229 819.23 83.0004 818.209 79.4303C816.952 75.0318 821.649 73.0876 824.572 72.3053C828.386 71.2845 830.641 68.892 832.831 66.3602C837.622 60.8211 842.452 55.9243 850.712 58.7678C851.015 58.8724 851.391 58.9026 851.702 58.8313C857.3 57.5487 862.397 57.0913 862.067 65.6831C858.682 66.8492 857.902 70.9046 855.75 73.8707C854.739 75.2629 855.065 76.8952 856.826 77.5707C858.314 78.1413 859.836 77.987 860.461 76.0887C860.716 75.315 860.74 74.4089 861.169 73.7623C861.81 72.7954 875.263 71.5104 876.248 72.3591C878.001 73.8684 879.876 74.2703 882.192 74.2213C886.734 74.1251 888.574 78.5303 891.741 80.7345C894.035 82.331 895.917 82.7396 898.597 82.3148C909.26 80.6246 920.063 77.4468 930.518 82.9129C932.94 84.1794 935.635 84.7472 937.886 86.1912C942.009 88.8363 944.654 88.2951 945.914 83.262C946.14 82.3597 947.001 81.6164 947.505 80.8924C949.605 79.8027 951.731 82.8245 953.668 80.6183C952.014 74.8834 955.915 71.0464 964.607 70.2038C963.606 72.8449 960.509 72.2065 959.098 74.2176C961.957 74.8694 964.12 73.4107 965.842 71.9372C976.045 63.2074 987.347 62.3162 999.427 66.9561C1003.17 68.3928 1004.92 65.5863 1007.23 63.9329C1020.1 54.7275 1033.66 51.7295 1048.41 59.2727C1056.88 63.603 1063.13 70.2185 1067.19 78.7012C1077.32 99.9069 1079.3 121.746 1071.4 144.141C1068.75 151.652 1062.29 153.444 1055.58 149.078C1050.58 145.827 1048.45 141.987 1048.1 135.638C1047.4 122.879 1044.85 110.235 1039.91 98.3141C1036.4 89.8505 1026.92 83.7736 1019.69 84.8737C1018.56 87.1232 1020.08 88.9933 1020.79 90.9081C1029.84 115.178 1028.17 138.497 1015.02 160.975C1011.03 167.789 1004.46 171.978 997.74 173.298C993.179 174.192 987.338 174.279 982.236 173.221C978.443 172.435 978.634 169.197 980.09 166.455C983.368 160.283 982.155 153.677 982.258 147.208C982.282 145.639 981.152 144.613 979.288 144.467C972.986 143.974 972.455 138.119 969.181 134.507C971.72 132.929 972.711 135.597 974.818 134.929C975.587 132.688 977.688 130.234 973.806 128.204C972.383 127.459 970.389 126.792 971.324 124.599C972.144 122.677 973.96 123.936 975.337 123.86C975.98 123.824 976.636 124.007 977.371 124.102C979.824 115.849 983.119 107.991 984.813 99.5799C985.599 95.6726 984.335 93.4915 981.213 91.8521C974.177 88.1568 967.2 88.3206 960.329 92.3393C959.756 92.6747 959.209 93.0598 958.62 93.3643C949.316 98.1758 949.078 98.282 953.516 107.978C960.032 122.215 962.459 137.169 960.655 152.519C959.46 162.684 955.273 172.137 947.93 179.642C944.082 183.575 939.098 185.555 933.452 185.093C931.913 184.967 930.482 184.924 929.077 185.577C925.439 187.267 921.928 186.471 918.456 185.029C915.409 183.764 913.749 181.79 915.459 178.424C917.07 175.253 916.681 172.201 915.882 168.836C914.492 162.98 916.407 157.318 918.315 151.87C919.401 148.771 920.068 146.103 918.745 142.838C917.75 140.382 918.372 137.64 920.273 135.623C921.953 135.753 921.557 137.116 921.943 138.162C929.818 121.528 920.882 109.603 908.01 104.3C904.371 102.802 902.619 103.485 903.034 107.782C903.723 114.897 904.631 122.011 903.909 129.642ZM988.352 147.726C989.308 149.557 989.143 152.026 991.34 153.158C1002.28 145.734 1004.84 113.429 991.908 104.078C989.629 105.766 988.803 108.339 988.261 110.889C985.711 122.887 986.074 134.919 988.352 147.726ZM864.923 126.641C860.669 134.467 859.728 143.008 859.552 151.703C859.508 153.907 859.715 156.279 862.024 157.242C864.313 158.197 865.62 156.125 867.002 154.773C877.302 144.706 876.619 131.227 878.142 118.461C878.264 117.438 877.488 116.252 876.972 115.219C875.714 112.699 874.241 112.255 872.028 114.455C868.739 117.726 867.051 121.858 864.923 126.641ZM925.15 142.953C925.232 150.999 922.371 159.335 927.349 167.025C935.643 159.43 936.952 139.53 929.704 131.761C925.944 134.337 928.578 139.522 925.15 142.953Z" fill="#00BFAF"/>
<path d="M833.095 265.645C828.868 268.825 826.664 278.764 829.327 283.031C830.507 284.922 829.799 286.542 829.31 288.264C826.955 296.554 821.502 302.236 814.069 306.214C813.216 306.671 811.967 306.596 811.593 307.681C808.499 316.656 800.049 316.993 792.86 318.953C788.421 320.164 783.718 318.746 779.854 323.515C777.519 326.397 772.743 328.391 768.094 328.319C766.418 328.293 764.765 328.596 763.965 330.486C760.705 338.193 756.29 345.248 751.712 352.216C750.918 353.424 749.88 354.047 748.62 354.568C747.725 354.938 746.483 355.428 746.619 356.541C747.414 363.015 743.272 361.56 739.38 360.78C738.054 364.32 735.233 365 731.807 365.9C727.861 366.937 723.65 368.971 720.529 371.453C716.67 374.522 711.038 375.359 708.7 380.572C708.263 381.545 705.739 381.582 703.998 382.105C704.046 383.89 703.847 385.558 704.183 387.111C704.887 390.367 704.165 392.622 700.752 393.714C699.476 394.122 698.373 395.075 697.894 396.37C696.235 400.858 692.597 400.571 689.009 399.978C686.7 399.597 684.528 399.999 684.343 402.266C684.182 404.223 683.151 407.577 687.178 407.682C687.034 409.237 686.1 409.775 684.862 410.035C677.889 411.501 672.283 416.833 664.465 416.299C647.978 415.172 634.566 409.126 627.144 393.686C624.69 388.58 620.115 384.577 619.789 378.242C619.456 371.787 623.241 367.501 629.641 368.585C635.434 369.567 640.378 372.189 645.371 375.51C656.237 382.737 667.918 387.725 681.405 381.949C685.743 380.09 688.103 376.459 690.386 372.9C691.924 370.502 689.553 368.831 687.619 367.308C677.819 359.593 668.876 350.988 661.487 340.897C653.94 330.59 648.626 319.361 646.135 306.642C643.931 295.388 645.761 284.536 646.989 273.461C648.131 263.148 655.45 259.029 663.198 254.982C664.644 254.226 666.264 253.837 667.668 252.866C674.376 248.227 686.513 251.388 690.424 260.152C691.803 263.242 693.065 266.06 692.597 269.444C692.398 270.882 692.944 271.989 693.896 273.05C696.552 276.008 697.939 279.444 697.924 283.498C697.919 284.757 698.318 286.294 699.099 287.233C703.423 292.436 704.167 297.985 702.679 304.604C701.917 307.993 703.671 311.947 704.357 316.058C707.509 313.795 708.34 315.552 708.566 318.026C708.974 322.491 708.907 326.931 708.541 331.43C708.295 334.448 707.031 338.648 710.698 340.39C715.358 342.604 720.19 346.927 725.705 341.806C728.138 339.548 731.375 341.05 734.253 340.029C741.856 337.332 745.722 331.927 747.587 324.556C748.099 322.533 747.415 321.028 745.648 319.877C719.619 302.91 709.654 276.873 705.598 247.8C704.546 240.255 707.433 233.944 713.256 227.821C717.65 223.2 721.348 224.046 726.052 223.71C729.596 223.457 732.982 221.486 736.533 220.719C741.358 219.677 742.441 220.679 741.836 225.626C741.393 229.25 743.436 231.874 745.349 234.13C748.543 237.896 749.798 242.26 750.794 246.789C751.887 251.753 753.37 256.513 755.16 261.309C758.911 271.361 762.932 281.266 767.439 290.993C768.186 292.606 769.53 293.045 770.928 293.509C776.183 295.253 781.659 295.195 786.657 293.346C792.188 291.299 797.894 289.228 802.592 285.445C804.775 283.686 806.611 281.448 807.542 278.681C815.053 256.36 811.18 236.384 795.165 218.94C794.385 218.091 793.524 217.001 792.513 216.733C788.495 215.668 786.512 212.802 788.023 209.331C789.469 206.009 792.901 204.053 796.991 204.265C813.634 205.127 825.249 213.386 833.02 227.959C837.485 236.331 840.352 245.041 841.338 254.424C841.524 256.186 842.257 258.063 840.148 259.638C837.298 256.978 839.362 252.839 837.321 249.976C835.784 253.162 835.771 254.446 837.212 260.824C835.663 262.038 833.466 262.908 833.095 265.645ZM678.981 271.915C677.933 268.649 675.038 268.643 672.443 268.43C669.461 268.186 669.353 271.018 668.466 272.817C667.059 275.672 666.564 278.816 665.954 281.93C664.343 290.16 668.219 297.204 670.907 304.402C675.237 315.994 683.956 324.327 693.18 332.032C696.83 335.082 698.006 334.293 698.785 329.465C698.997 328.154 699.331 326.873 698.795 325.541C696.926 320.892 697.649 315.818 696.724 310.959C695.311 303.534 692.11 296.416 692.173 288.669C692.185 287.157 690.779 285.789 689.886 284.391C686.98 279.843 681.426 277.713 678.981 271.915ZM749.93 264.091C745.556 255.909 742.98 246.536 734.458 240.685C731.328 244.156 732.868 247.985 733.196 251.636C734.046 261.097 738.992 269.229 741.948 278.001C743.84 283.617 748.523 285.428 753.673 283.641C753.932 277.131 751.79 271.019 749.93 264.091ZM717.589 232.454C717.724 230.301 716.573 230.574 715.596 231.601C712.307 235.064 711.036 239.202 711.222 245.261C715.083 240.98 715.006 236.401 717.589 232.454Z" fill="#00BFAF"/>
<path d="M566.77 446.726C558.484 448.551 550.542 448.137 542.897 445.734C531.367 442.11 520.973 436.172 511.51 428.655C508.089 425.938 506.16 427.437 504.598 430.745C501.895 436.473 503.638 441.842 505.979 447.081C507.121 449.637 509.582 448.899 511.724 448.655C520.675 447.636 529.696 446.321 538.49 449.252C553.771 454.345 566.019 463.68 575.45 476.709C576.01 477.483 576.319 478.54 576.454 479.506C577.209 484.904 575.266 490.058 573.174 494.575C571.481 498.229 566.105 497.484 562.234 498.015C542.864 500.677 526.892 492.425 511.825 481.771C508.554 479.458 505.856 479.02 502.218 480.688C491.5 485.604 486.64 494.961 483.708 505.414C481.662 512.707 479.452 520.222 481.541 528.027C481.76 528.844 481.634 529.685 480.835 530.343C478.888 530.665 477.582 529.677 477.232 527.852C475.612 519.405 471.373 512.073 467.365 504.677C460.382 491.792 463.928 480.209 471.551 469.185C474.392 465.076 477.915 461.37 482.295 458.864C485.675 456.931 486.111 454.719 484.481 451.483C481.362 445.289 480.225 438.567 479.341 431.764C478.016 421.567 480.859 412.509 487.268 404.758C489.751 401.755 489.962 399.175 489.25 395.682C486.901 384.16 487.973 372.968 494.742 363.081C503.717 349.972 516.752 346.864 531.712 349.206C541.985 350.814 551.865 353.655 561.24 358.2C563.829 359.455 566.177 360.989 567.893 363.335C571.525 368.3 569.201 375.07 563.413 377.008C558.554 378.634 553.686 378.631 548.635 378.372C537.942 377.824 527.249 377.798 517.839 384.278C515.558 385.85 514.01 387.747 513.555 390.344C515.418 391.9 517.13 391.225 518.706 391.066C541.581 388.755 560.764 397.211 577.943 411.398C581.483 414.322 583.604 418.366 585.2 422.612C586.382 425.755 585.979 428.84 584.143 431.688C582.712 433.908 580.899 435.888 580.695 438.769C580.59 440.253 579.106 440.748 577.887 441.326C574.283 443.035 570.7 444.786 566.77 446.726ZM543.228 416.975C537.75 417.046 532.167 416.316 525.922 418.663C531.62 424.522 537.678 427.883 543.985 430.689C550.415 433.551 557.21 435.083 564.368 434.357C568.25 433.963 568.816 431.846 567.176 428.887C566.319 427.341 564.987 425.939 563.585 424.834C557.827 420.292 551.157 417.925 543.228 416.975ZM539.189 478.679C548.457 482.845 550.541 483.298 554.697 481.812C549.358 477.755 543.543 476.658 537.158 477.25C537.662 477.619 538.166 477.988 539.189 478.679Z" fill="#00BFAF"/>
<path d="M873.427 544.712C868.536 558.357 876.073 573.364 889.205 576.66C893.862 571.317 897.127 564.862 903.149 560.791C905.306 559.333 906.669 556.803 910.342 559.23C912.216 560.468 915.266 557.165 917.204 555.317C923.97 548.864 931.129 545.865 940.609 549.534C944.545 551.058 950.523 550.56 952.094 554.268C953.922 558.586 956.666 558.432 959.802 559.031C960.439 559.153 961.436 559.465 961.694 559.176C963.531 557.123 965.416 556.875 967.131 559.069C968.919 561.355 970.195 563.872 966.956 566.401C970.18 566.829 970.18 566.829 971.48 569.768C970.978 571.116 967.957 569.796 968.579 572.173C969.906 577.241 965.995 580.46 964.427 584.483C961.134 592.931 953.226 596.251 946.088 600.243C938.91 604.258 930.639 603.341 922.854 604.536C919.363 605.072 917.929 606.432 917.681 609.859C916.966 619.726 919.456 628.577 925.151 636.689C928.286 641.155 931.881 645.403 933.646 650.712C935.732 656.983 932.364 661.751 925.77 662.611C908.383 664.88 896.081 654.154 888.53 641.322C885.272 635.786 882.182 630.109 881.965 623.771C881.716 616.469 880.043 609.197 881.137 601.864C881.652 598.413 880.064 596.059 877.447 594.263C874.572 592.288 873.121 590.037 872.698 586.218C871.795 578.065 867.799 571.148 861.757 565.46C860.847 564.603 860.259 563.22 859.918 561.972C857.83 554.332 855.956 546.642 855.025 538.752C854.825 537.06 855.878 535.896 856.537 534.623C860.093 527.748 861.172 519.791 865.857 513.417C867.961 510.554 866.132 507.614 865.827 504.747C865.512 501.794 864.476 498.907 864.275 495.955C863.31 481.86 876.774 467.218 891.454 466.526C893.304 466.439 894.546 466.105 895.802 464.891C899.176 461.632 903.274 461.528 907.466 462.632C911.631 463.729 915.715 465.131 919.859 466.318C924.545 467.66 921.914 472.063 923.675 474.595C920.629 477.894 917.488 476.48 914.459 475.223C905.703 471.587 897.869 473.341 890.68 479.112C886.38 482.564 883.771 494.027 886.064 498.965C886.911 500.788 888.2 500.802 889.772 500.233C894.143 498.651 898.781 497.561 902.82 495.367C908.368 492.353 914.088 494.487 916.869 497.59C920.708 501.875 925.829 504.337 929.43 508.681C933.539 513.639 933.867 515.983 929.835 520.756C926.542 524.655 922.35 527.419 917.309 528.324C913.686 528.974 910.848 530.39 908.376 533.157C904.144 537.895 900.139 537.096 894.903 533.622C889.921 530.317 884.252 527.195 877.65 527.923C876.348 528.066 875.278 528.807 875.279 530.082C875.285 534.929 872.712 539.415 873.427 544.712ZM904.464 518.989C905.945 518.981 907.442 519.103 908.904 518.93C910.459 518.745 911.81 517.996 911.946 516.214C912.068 514.617 910.793 513.714 909.585 513.394C906.284 512.52 902.93 511.704 899.546 511.346C897.877 511.169 895.877 511.734 895.38 514.209C897.269 517.24 900.473 518.038 904.464 518.989ZM933.25 591.145C935.682 590.606 938.483 590.727 939.739 587.762C934.713 585.507 931.208 586.611 928.83 591.029C930.009 592.162 931.304 591.411 933.25 591.145ZM900.064 572.648C898.132 574.035 898.082 575.569 899.184 577.651C899.694 578.614 900.078 579.367 901.097 579.552C902.027 579.721 902.831 579.041 902.995 578.306C903.544 575.839 904.412 573.101 900.064 572.648Z" fill="#00BFAF"/>
<path d="M1072.89 275.264C1077.77 286.673 1077.34 297.644 1072.37 308.481C1065.25 324.028 1051.63 329.719 1035.97 332.06C1029.06 333.095 1022.08 333.62 1015.11 332.149C1012.32 331.562 1010.48 332.969 1008.78 335.136C991.245 357.516 961.588 357.388 941.099 341.174C938.633 339.222 937.797 336.199 936.992 333.369C935.508 328.146 935.363 322.516 931.743 317.98C930.98 317.023 930.698 315.542 931.409 313.895C935.391 313.87 938.657 315.851 941.429 318.37C949.402 325.617 959.837 326.648 969.49 329.085C974.933 330.46 980.962 328.258 985.211 323.151C983.729 320.731 981.136 319.687 978.966 318.413C973.964 315.473 970.465 311.156 966.592 307.012C959.313 299.223 959.805 290.94 963.566 282.086C965.726 277.002 970.119 273.087 970.665 267.041C970.911 264.324 982.311 260.934 985.406 262.295C993.272 265.752 999.681 271.204 1004.73 278.014C1008.88 283.621 1012.34 289.793 1014.09 296.638C1015.01 300.208 1017.53 301.044 1020.38 301.108C1024.36 301.196 1028.37 300.938 1032.32 300.454C1036.67 299.921 1040.08 297.917 1041.85 293.508C1043.67 288.968 1040.55 286.702 1037.95 284.218C1029.5 276.153 1019.99 269.43 1010.36 262.882C1009.84 262.524 1008.98 262.027 1008.57 262.221C1001.72 265.475 1001.16 259.576 1000.5 255.919C999.714 251.521 1004.12 249.805 1007.31 248.636C1033.23 239.155 1047.8 243.732 1067.77 266.856C1069.8 269.21 1071.09 272.212 1072.89 275.264ZM992.203 289.719C988.268 285.342 986.394 278.748 979.224 276.926C979.998 283.595 987.072 290.882 993.329 292.105C993.054 291.447 992.798 290.837 992.203 289.719Z" fill="#00BFAF"/>
<path d="M641.311 108.129C645.153 109.738 641.763 111.074 640.924 111.877C635.789 116.794 635.986 119.204 642.445 122.659C653.838 128.755 665.374 129.473 676.534 122.285C681.82 118.879 688.355 117.896 692.856 112.888C696.369 108.979 698.687 104.403 701.595 100.165C705.768 94.0842 711.261 93.4269 715.565 99.4382C723.647 110.725 725.344 118.724 716.911 129.849C715.015 132.35 712.914 134.909 710.373 136.668C699.752 144.018 689.899 152.658 677.609 157.315C672.32 159.319 666.693 159.814 661.049 160.161C651.747 160.734 643.072 158.509 634.597 154.969C632.237 153.984 630.007 153.089 628.932 150.487C628.65 149.805 627.799 148.941 627.152 148.89C619.312 148.277 615.278 142.314 610.668 137.51C609.856 135.598 612.51 135.516 612.197 134.184C606.482 130.181 601.731 125.697 599.083 119.11C598.211 116.944 596.541 114.155 593.057 115.117C590.745 115.756 589.323 114.161 587.688 113.086C584.83 111.208 582.492 108.816 578.884 107.717C576.423 106.968 573.903 103.738 572.993 101.076C570.179 92.8485 567.952 84.2665 573.045 76.0557C576.807 69.989 581.046 64.2183 585.049 58.3C586.804 55.7066 589.23 56.1884 591.216 57.4453C593.58 58.942 593.332 61.0693 591.808 63.4439C585.251 73.6556 582.769 84.1084 590.488 94.9865C591.905 96.9844 593.524 98.8295 596.026 98.5917C598.351 98.3708 598.989 95.9808 599.377 94.0869C601.087 85.7518 605.341 78.7192 610.609 72.2999C614.732 67.2772 620.173 63.7073 626.471 62.2577C630.478 61.3355 633.858 59.4209 637.327 57.6161C645.793 53.2112 651.56 54.32 657.541 61.3139C659.827 63.987 661.964 65.7437 661.581 70.1778C661.272 73.7433 661.354 78.212 664.081 81.8765C666.064 84.5411 663.177 87.2025 662.348 89.7827C660.131 96.69 656.421 102.675 650.542 107.326C648.848 106.138 647.388 105.113 645.675 103.912C644.307 105.211 643.017 106.436 641.224 108.043C638.751 109.971 636.624 107.805 634.568 108.61C633.825 110.14 633.14 111.604 634.329 113.451C637.639 112.96 639.796 110.989 641.311 108.129ZM635.383 95.37C634.467 97.5932 635.6 98.3917 637.417 97.5497C641.756 95.5383 645.338 92.5734 648.07 87.353C642.011 87.8268 638.278 90.3023 635.383 95.37ZM631.131 140.697C631.045 136.942 627.683 135.703 626.163 132.713C623.512 137.591 624.849 141.283 626.933 144.904C628.196 143.562 629.43 142.252 631.131 140.697Z" fill="#00BFAF"/>
<path d="M722.87 86.1249C724.238 86.8545 725.321 87.8087 724.223 88.884C722.761 90.3145 720.854 90.7435 718.743 89.3151C719.267 87.3202 720.831 86.6219 722.87 86.1249Z" fill="black"/>
<path d="M649.224 695.093C652.478 684.089 642.123 669.049 633.8 665.246C630.741 663.848 629.002 664.331 628.149 667.459C625.72 676.367 620.697 683.783 614.746 690.605C605.519 701.182 594.242 709.089 579.834 707.668C569.563 706.655 560.494 700.894 555.562 690.951C554.154 688.114 553.535 684.469 558.345 683.006C560.634 682.31 561.849 679.946 562.839 677.881C567.713 667.706 577.698 664.642 586.907 660.681C590.834 658.993 594.992 657.916 598.918 656.005C602.851 654.09 602.399 651.588 601.248 648.671C600.589 647 599.426 645.491 598.314 644.044C596.685 641.922 594.819 639.822 592.33 638.886C588.913 637.6 588.523 641.376 586.881 642.906C576.76 652.332 565.514 659.901 552.012 663.375C548.657 664.238 544.807 663.424 541.219 663.051C537.828 662.699 534.676 660.519 531.052 661.7C530.803 661.781 530.352 661.584 530.135 661.372C525.805 657.14 521.194 653.098 519.154 647.127C518.516 645.259 519.975 644.481 521.381 643.788C524.926 642.039 527.444 639.322 529.408 635.882C531.307 632.557 534.992 631.241 538.034 629.273C547.221 623.331 556.922 619.005 568.239 619.009C572.958 619.011 574.074 614.332 574.341 611.046C575.042 602.42 572.866 593.969 567.781 587.075C563.735 581.589 558.889 576.368 551.996 573.777C549.848 572.971 546.745 571.642 547.351 568.672C547.976 565.604 550.908 564.844 553.75 565.631C559.65 567.266 564.743 564.823 569.925 562.769C573.322 561.422 576.825 561.82 579.161 564.159C582.755 567.756 587.096 570.6 589.977 574.969C591.691 577.569 592.766 580.531 596.394 581.96C599.211 583.071 598.837 586.305 596.157 588.502C605.683 594.219 595.454 599.321 596.039 604.851C600.147 604.85 597.886 598.716 602.351 598.7C601.95 602.197 603.968 605.694 600.971 609.073C599.397 610.848 601.516 621.593 603.472 623.363C607.142 626.686 610.826 630.012 614.736 633.036C615.774 633.839 615.754 634.381 615.786 635.385C615.854 637.539 616.876 639.135 618.941 640.019C620.361 640.627 621.73 641.294 620.911 643.347C620.7 643.875 620.953 645.157 621.082 645.17C626.737 645.716 627.297 653.5 634.066 653.646C637.19 653.713 640.678 656.014 644.304 653.923C645.119 656.993 641.624 659.446 644.903 661.433C647.761 663.165 647.911 659.719 650.103 658.607C654.897 666.057 664.227 668.61 669.059 675.988C674.562 684.392 675.914 693.957 673.295 703.607C669.757 716.644 663.239 727.568 649.443 732.21C645.528 733.528 641.661 734.481 638.687 730.25C636.047 726.496 636.195 719.91 639.062 716.252C643.909 710.068 648.676 703.834 649.224 695.093ZM573.27 693.4C575.532 693.951 577.558 693.236 579.476 692.154C588.266 687.197 594.917 680.157 599.463 671.183C600.758 668.627 602.633 666.05 601.481 662.816C599.311 661.937 597.779 663.067 596.123 663.754C592.754 665.153 589.363 666.501 585.947 667.781C578.485 670.578 573.074 675.68 570.025 682.921C568.49 686.567 567.608 690.785 573.27 693.4ZM552.111 632.31C546.266 634.033 541.615 637.838 536.758 641.247C535.476 642.147 533.901 643.402 534.725 645.351C535.458 647.083 537.285 646.726 538.684 646.594C540.806 646.395 542.979 646.087 544.983 645.399C552.776 642.723 558.973 638.011 563.825 630.789C559.337 629.415 556.251 631.727 552.111 632.31ZM583.187 588.656C585.49 595.072 591.455 599.846 591.364 607.563C590.836 603.576 594.485 601.459 595.02 597.568C591.43 599.182 591.9 596.228 591.382 594.611C590.576 592.093 590.205 589.464 589.082 587.006C587.956 584.544 585.571 585.175 583.897 584.978C582.083 584.764 582.576 586.749 583.187 588.656ZM585.136 579.741C583.407 579.484 583.299 577.026 581.359 576.922C579.646 578.727 580.388 580.377 581.96 581.484C583.373 582.48 584.75 581.914 585.136 579.741Z" fill="#00BFAF"/>
<path d="M183.59 717.767C189.199 721.093 194.588 723.874 200.837 722.729C201.535 721.348 200.999 720.632 200.586 719.943C188.598 699.92 187.523 678.303 192.063 656.201C193.917 647.174 197.815 638.801 207.334 634.647C210.597 633.223 213.563 631.489 217.273 632.655C220.225 633.582 222.82 631.847 225.515 631.232C229.494 630.323 231.669 632.185 233.715 635.087C241.674 646.375 245.799 659.269 249.574 672.331C250.143 674.302 250.539 676.333 250.109 678.245C248.049 687.424 246.288 696.754 241.419 704.986C239.216 708.71 240.202 710.888 243.873 712.325C245.413 712.928 247.042 713.373 248.67 713.668C255.543 714.913 256.953 713.514 256.06 706.651C254.206 692.403 253.06 678.194 257.855 664.202C259.103 660.56 260.297 656.945 262.604 653.811C266.234 648.878 270.178 647.561 275.991 649.192C278.993 650.035 281.905 650.761 285.22 650.009C288.336 649.303 290.838 650.359 291.618 654.398C293.071 661.913 293.303 669.406 292.334 676.93C291.949 679.915 290.131 682.747 289.343 685.369C288.19 689.209 286.296 693.446 286.721 697.561C287.182 702.027 289.511 706.081 292.636 709.469C298.38 715.698 305.721 718.394 313.99 718.922C317.993 719.178 321.105 717.263 323.565 714.379C329.296 707.662 334.189 700.475 335.4 691.254C338.863 697.998 342.016 705.309 337.981 712.317C334.439 718.47 334.659 727.663 325.512 729.536C325.486 731.054 327.714 730.062 326.964 732.04C322.247 733.728 318.416 737.249 314.395 740.561C311.49 742.953 308.541 745.049 304.019 743.978C301.781 743.448 299.547 746.695 296.182 745.628C285.874 742.357 275.535 739.332 267.658 731.282C267.089 730.701 266.354 730.283 265.423 729.584C260.309 733.571 254.581 736.32 248.728 739.023C240.788 742.69 232.863 743.081 225.204 739.913C218.508 737.144 213.549 737.107 207.115 741.485C176.474 762.329 132.672 740.539 124.363 707.193C121.391 695.265 119.283 683.373 122.943 671.271C125.223 663.732 128.523 656.889 137.243 654.873C144.175 653.269 148.822 655.207 152.3 661.434C154.984 666.242 156.789 671.411 158.468 676.67C162.262 688.553 165.826 700.608 174.56 710.134C177.158 712.967 180.021 715.506 183.59 717.767ZM220.655 653.696C216.397 668.051 217.831 681.584 225.955 694.694C235.111 684.039 231.991 655.84 223.57 650.212C222.14 650.637 221.59 651.874 220.655 653.696Z" fill="#00BFAF"/>
<path d="M312.009 64.4366C309.644 69.6436 307.935 74.687 306.682 79.8719C305.969 82.8211 304.872 85.6082 303.272 88.1379C300.849 91.9685 298.42 95.8244 292.754 94.8536C285.462 93.6043 282.234 91.4029 281.135 84.5901C277.884 64.4333 281.569 45.572 292.81 28.3552C299.023 18.8376 306.817 10.8392 316.1 4.2936C316.739 3.84331 317.72 3.16518 318.235 3.36891C321.601 4.70076 322.623 2.13505 323.993 0C327.29 1.02014 326.958 3.29499 325.442 5.78102C329.669 5.98351 329.759 3.2355 329.907 0.376472C332.38 1.54485 334.234 2.42107 336.678 3.57581C333.665 5.86927 330.115 6.23263 327.458 9.29888C329.716 8.80897 331.73 9.68815 333.022 7.80448C334.317 5.91505 336.449 5.90818 338.224 5.12228C341.101 3.84809 344.026 2.22822 347.057 4.83746C347.174 4.9383 347.466 5.04104 347.51 4.99189C351.741 0.350441 357.512 5.72192 362.191 2.63865C365.095 0.725883 368.658 -0.428696 370.881 4.26816C371.49 5.55542 372.985 6.47279 374.686 6.12729C377.278 5.60092 379.444 7.11463 381.085 8.37986C387.743 13.5124 395.785 15.0269 403.401 17.6684C404.15 17.9281 405.115 18.2988 405.748 18.044C411.24 15.8346 413.661 17.597 412.548 25.0749C420.719 20.8509 430.089 21.7113 433.942 11.9671C434.765 12.9912 435.105 13.218 435.119 13.4634C435.218 15.1895 431.879 17.1076 434.937 18.5049C437.014 19.4536 439.471 17.6311 440.333 16.069C442.995 11.2453 447.501 11.9322 451.677 11.4624C453.049 11.3081 454.982 11.712 455.241 12.7801C456.266 17.0079 460.739 16.4255 462.838 18.6306C469.684 25.8229 479.612 27.9062 487.065 34.0419C490.91 37.2074 494.994 39.7139 496.398 45.103C496.951 47.2265 499.243 49.4781 501.321 50.5203C509.357 54.5509 511.922 61.4633 512.287 69.6875C512.507 74.6469 514.005 79.0966 516.94 83.0681C517.799 84.2311 517.754 85.5871 516.648 86.1095C513.413 87.638 510.252 89.8931 506.336 88.6448C503.017 87.5868 501.903 84.7811 501.331 81.7467C500.624 77.9945 500.425 74.1241 499.463 70.4467C496.194 57.9388 487.4 49.5907 477.149 42.8321C461.659 32.6192 444.574 32.4453 427.157 36.4277C421.286 37.7702 418.893 44.7013 421.51 50.0839C425.289 57.8539 427.168 65.6485 425.197 74.8335C423.982 80.5008 420.257 86.7192 423.625 93.1155C418.05 97.7766 417.57 100.359 421.347 105.944C423.486 109.108 423.822 112.352 422.041 115.823C420.108 119.591 416.371 120.905 412.904 120.792C405.055 120.537 396.941 121.329 389.599 117.227C388.216 116.454 386.284 115.852 384.828 116.175C380.266 117.189 378.145 114.394 375.967 111.326C371.029 104.371 366.659 96.9743 365.528 88.4953C364.087 77.6954 364.204 66.9079 367.03 56.0752C368.989 48.5661 372.818 42.1458 376.063 35.3619C377.498 32.3637 379.6 29.6673 383.77 30.7779C385.835 31.3282 386.818 30.1641 387.346 28.2946C387.927 26.2331 387.049 25.5469 385.172 24.6851C375.498 20.2429 366.244 20.1112 355.855 23.5593C347.776 26.241 340.433 29.387 333.961 34.6976C324.253 42.664 317.364 52.7609 312.009 64.4366ZM402.716 103.554C408.411 105.334 410.347 102.411 413.953 95.7942C421.371 82.1835 418.385 68.2151 415.008 54.3061C414.618 52.7009 414.243 50.6131 411.497 50.2767C403.384 59.7209 398.446 70.7868 396.711 83.1738C395.693 90.4418 397.932 97.1661 402.716 103.554Z" fill="#00BFAF"/>
<path d="M379.335 344.431C375.487 346.799 375.183 342.411 373.321 341.395C369.182 339.136 366.648 335.083 364.147 330.758C358.951 321.773 357.308 312.026 355.298 302.214C354.543 298.529 351.049 297.496 347.965 297.533C340.886 297.617 334.281 296.631 327.407 294.349C315.811 290.5 307.835 283.023 301.315 273.341C299.772 271.049 297.567 270.877 295.161 270.921C287.652 271.061 280.268 270.746 272.983 268.287C256.432 262.7 245.493 250.946 237.697 236.102C226.31 214.421 225.858 191.438 231.665 168.186C235.127 154.321 248.86 148.011 259.463 146.1C264.163 145.253 270.084 149.918 271.909 155.167C274.8 163.476 275.33 172.068 274.904 180.78C274.379 191.502 275.019 202.083 278.972 212.236C282.487 221.264 288.43 228.426 295.632 234.937C298.82 231.807 298.244 228.096 298.722 224.787C301.942 202.478 313.221 184.788 329.468 169.699C338.56 161.256 348.482 154.777 360.734 151.835C365.453 150.702 369.708 150.558 373.618 153.205C379.616 157.265 385.519 161.456 391.164 166.049C399.133 172.533 399.598 181.549 397.822 189.816C394.568 204.956 389.437 219.653 378.245 231.299C369.848 240.036 359.938 246.709 349.672 252.959C341.538 257.911 341.717 257.902 346.532 266.38C348.961 270.656 352.187 273.625 356.673 275.52C361.685 277.637 362.901 277.192 365.057 272.389C370.771 259.657 378.202 247.99 388.985 239.031C397.818 231.69 407.542 225.677 418.643 221.877C428.786 218.404 436.798 222.52 444.377 227.925C447.166 229.913 450.543 231.959 451.975 235.639C452.876 237.953 453.556 240.019 450.996 241.785C445.386 245.657 442.404 251.748 438.66 257.101C431.49 267.351 422.558 275.56 411.997 282.088C409.596 283.572 406.944 284.645 404.474 286.025C394.992 291.321 392.959 296.023 394.394 306.907C396.155 320.262 401.337 332.14 408.694 343.269C410.827 346.496 412.538 350.062 413.608 355.062C402.362 349.085 390.371 348.825 379.335 344.431ZM347.14 229.547C353.119 225.775 358.004 220.707 362.77 215.631C371.736 206.085 377.989 195.065 379.151 181.674C379.599 176.508 376.666 174.17 371.828 175.993C369.658 176.81 367.415 177.699 365.562 179.047C349.803 190.508 340.624 205.988 338.08 225.281C337.716 228.039 335.229 231.901 338.347 233.57C341.279 235.139 343.82 231.349 347.14 229.547ZM419.085 248.488C412.858 253.505 407.282 259.022 403.761 267.133C412.49 265.952 431.054 249.346 432.796 241.959C427.134 241.279 423.896 245.754 419.085 248.488Z" fill="#00BFAF"/>
<path d="M292.504 429.942C293.501 435.791 296.278 440.879 295.465 446.823C295.19 448.831 295.688 450.968 293.882 453.347C300.61 456.115 307.443 457.724 313.347 461.407C319.143 465.024 324.772 468.684 327.786 475.315C329.01 478.008 333.8 479.07 331.943 483.211C330.092 487.339 331.272 491.577 331.308 495.308C329.207 497.179 327.832 494.186 325.998 495.736C325.085 501.279 330.956 503.004 332.239 507.219C334.664 506.443 333.032 504.464 334.236 503.644C336.64 502.63 338.489 504.846 340.839 504.899C341.873 504.922 344.462 506.827 343.669 509.228C342.681 512.222 344.418 515.072 343.785 518.003C341.928 526.593 345.489 535.394 341.767 544.256C340.205 547.975 338.298 552.232 337.744 556.662C336.266 568.479 329.876 576.946 319.352 582.37C312.218 586.047 306.324 592.144 297.486 592.501C292.183 592.716 287.662 591.061 283.21 588.782C280.752 587.523 279.673 584.928 280.035 582.442C280.449 579.596 282.77 578.015 285.206 576.256C293.305 570.408 302.801 566.329 308.587 557.436C313.623 549.696 318.354 541.982 319.358 532.527C319.644 529.822 319.849 527.477 316.484 526.758C314.679 526.371 314.493 525.04 314.934 523.701C316.221 519.785 316.191 515.435 315.098 511.977C312.72 504.458 310.323 496.51 304.073 491.074C299.656 487.233 295.906 488.364 292.34 493.602C296.955 497.481 295.916 500.077 288.064 503.391C291.84 505.616 292.644 508.084 290.837 512.375C288.077 518.926 284.628 524.986 280.065 530.231C269.562 542.303 252.467 542.343 242.285 532.111C229.901 519.667 228.649 504.445 234.56 488.238C239.51 474.666 249.289 465.913 261.991 460.1C265.483 458.503 266.803 456.831 265.889 452.938C263.843 444.215 262.697 435.24 256.8 427.903C252.029 421.968 245.572 419.919 238.149 421.873C228.486 424.416 220.818 429.999 213.862 436.908C206.936 443.788 203.192 453.288 194.678 459.032C196.207 460.046 198.064 457.43 198.533 460.19C198.855 462.085 197.885 463.083 196.252 463.433C194.569 463.793 193.134 463.333 191.696 462.113C184.11 455.678 183.632 436.555 190.894 428.921C195.138 424.46 196.59 417.383 201.763 413.597C214.51 404.266 226.925 394.443 244.127 394.034C264.527 393.549 277.978 403.339 287.308 420.418C288.984 423.486 290.692 426.536 292.504 429.942ZM321.317 496.517C320.93 495.226 321.966 493.523 320.268 492.569C316.574 495.75 316.644 497.15 320.559 499.782C321.663 499.143 321.18 498.04 321.317 496.517Z" fill="#00BFAF"/>
<path d="M92.1808 504.968C81.5328 508.474 70.8517 508.176 60.2646 508.686C59.7675 508.71 59.239 508.804 58.7751 508.679C55.7622 507.868 52.2269 506.379 49.8653 508.725C46.8242 511.746 45.0319 515.847 44.5346 520.325C43.5121 529.532 45.5825 537.939 49.8435 546.189C53.0619 552.42 57.503 557.86 61.7123 563.105C65.3155 567.594 71.4519 570.897 77.73 572.351C88.3769 574.818 99.4219 575.415 109.796 579.177C112.193 580.046 114.661 578.714 118.195 579.227C114.771 582.132 111.717 584.517 108.366 584.644C102.268 584.873 96.7769 587.485 91.0168 588.227C82.4209 589.334 73.7719 588.921 64.9755 586.72C56.5312 584.607 49.7326 580.057 42.3814 576.197C39.7171 574.798 37.4471 573.034 35.4762 570.657C31.8013 566.224 28.6268 561.277 23.4017 558.277C22.2042 557.589 21.3371 556.083 20.6549 554.777C10.4908 535.326 5.24521 515.457 15.9936 494.403C17.2266 491.988 16.9842 490.234 15.1748 488.134C7.19578 478.872 1.58316 468.353 0.395366 456.042C-0.737349 444.302 1.93244 433.133 7.92124 423.014C10.5166 418.629 11.0176 415.573 7.61135 411.122C-0.746938 400.2 -0.691198 387.37 0.702456 374.348C1.45644 367.303 3.39613 360.866 7.8309 355C9.03155 362.249 10.8233 369.2 13.2405 376.008C15.4159 382.135 17.4053 388.359 21.0084 393.802C24.6017 399.23 26.5211 399.583 30.887 395.039C44.0761 381.31 60.7941 377.172 78.9542 376.52C82.8403 376.38 86.5527 377.352 90.3236 377.913C102.69 379.752 110.803 392.727 105.509 406.411C99.6519 421.548 83.4559 433.535 67.1186 434.084C63.2908 434.213 59.4261 434.458 55.6334 434.087C51.6055 433.693 48.9547 435.269 46.8239 438.422C42.781 444.404 39.7252 450.814 37.9709 457.842C37.4496 459.931 38.1604 461.777 38.6301 463.707C39.4648 467.136 41.182 467.48 44.0436 465.638C49.222 462.303 54.4287 458.954 60.2384 456.787C77.2011 450.462 93.6084 451.713 107.992 462.832C113.839 467.352 119.546 473.413 118.471 482.594C117.847 487.917 114.707 492.503 111.159 494.445C104.937 497.85 99.8595 503.437 92.1808 504.968ZM80.2388 479.055C73.9065 481.21 68.2579 484.377 63.5067 489.891C64.3309 490.437 64.7138 490.769 65.1567 490.968C66.0651 491.377 66.9776 491.915 67.9373 492.049C79.0414 493.594 89.8568 492.532 100.189 488.025C101.736 487.35 103.917 486.544 103.615 484.245C103.329 482.073 101.516 480.944 99.6005 480.159C93.561 477.684 87.3877 477 80.2388 479.055Z" fill="#00BFAF"/>
<path d="M108.842 144.665C106.368 142.776 103.243 142.475 100.434 141.719C89.7774 138.849 81.7821 132.001 74.5011 124.421C68.7194 118.402 65.9239 110.631 66.0016 102.134C66.0266 99.3944 67.7494 96.7052 69.4856 95.1607C74.9912 90.2626 81.0222 85.9429 86.9668 81.5579C88.708 80.2735 90.9587 79.701 93.1374 79.7647C101.005 79.9945 109.112 78.7148 116.381 83.1374C116.799 83.3918 117.346 83.6855 117.783 83.6208C126.296 82.3601 129.173 88.6824 132.882 94.3428C134.831 97.3178 138.083 99.3262 141.993 101.287C143.321 95.498 141.06 90.7677 139 86.2855C133.449 74.2042 123.282 66.2307 113.033 58.4522C109.587 55.8377 105.969 53.5465 103.218 50.0457C101.123 47.3806 97.7436 47.0867 94.5306 47.0744C90.3296 47.0583 86.2309 46.7116 82.3589 44.8422C78.4609 42.9602 77.207 40.0265 79.3698 36.4279C81.75 32.4676 85.1274 29.8914 90.0049 29.2175C100.137 27.8176 110.247 27.0623 120.161 30.148C128.549 32.7587 136.988 35.2533 139.812 45.5434C140.523 48.1358 144.075 50.0509 146.508 52.0502C154.492 58.6112 162.417 65.1393 168.131 74.0075C175.246 85.0501 177.413 97.1264 175.946 109.857C175.488 113.83 173.858 118.037 171.611 121.357C167.055 128.091 164.663 134.995 166.055 143.168C166.442 145.44 166.49 148.038 165.088 150.277C162.899 149.363 164.21 147.024 162.181 145.346C162.064 153.417 162.481 161.214 154.585 167.062C154.793 174.394 156.872 182.998 159.573 191.412C160.908 195.572 160.738 199.954 162.187 204.014C162.694 205.434 161.818 205.955 160.992 206.304C159.328 207.006 159.793 205.34 159.247 204.379C158.28 205.926 157.482 207.454 156.441 208.792C155.425 210.099 154.838 212.592 151.643 209.863C154.533 222.641 142.839 228.159 139.703 238.061C136.082 237.195 133.704 240.742 131.249 242.764C126.048 247.048 120.265 249.668 113.967 250.77C109.869 251.486 105.313 250.93 101.212 249.927C96.5774 248.794 91.98 246.886 89.3965 242.256C87.1453 238.222 85.6283 234.007 87.538 229.454C88.4562 227.265 89.5712 225.466 92.7996 227.395C99.9001 231.638 108.207 232.023 115.74 230.493C122.065 229.208 128.41 226.473 133.34 220.886C141.837 211.256 139.324 196.655 134.248 188.173C132.995 186.08 131.249 185.393 128.715 186.329C125.763 187.419 122.62 187.984 119.596 188.896C112.233 191.117 105.503 188.965 98.797 186.156C96.677 185.268 94.3019 184.197 92.1431 184.381C88.9982 184.648 86.8274 184.876 87.2336 180.714C87.3365 179.66 86.1786 179.094 85.2153 178.75C81.0845 177.274 76.5261 176.787 74.1055 172.044C73.6208 171.094 70.2993 171.332 68.2798 170.773C66.5336 170.289 66.5152 169.513 66.583 168.466C66.8249 164.728 67.7227 160.493 70.4275 158.459C77.3511 153.253 83.6191 146.714 92.9976 145.478C97.9868 144.82 102.949 144.699 108.652 144.879C115.534 148.609 122.91 148.838 128.998 153.023C132.347 155.326 135.724 158.361 140.551 159.099C143.656 155.037 144.207 150.139 144.483 145.183C144.696 141.35 143.214 139.447 139.126 140.871C132.828 143.064 126.321 143.917 119.683 144.403C116.053 144.669 112.415 143.434 108.842 144.665ZM107.881 111.286C114.525 113.538 121.173 114.023 128.882 111.845C120.606 103.349 112.165 97.1491 101.705 94.1675C99.3924 93.5082 96.7902 93.2804 94.3283 94.1173C92.336 94.7946 90.8597 96.1789 92.0252 98.1956C94.4286 102.355 95.9028 107.459 101.718 108.61C103.623 108.987 105.385 110.087 107.881 111.286ZM95.4052 174.836C103.536 176.938 111.612 177.766 119.684 174.079C113.938 166.099 93.9282 161.644 84.3749 166.055C87.8638 168.866 91.3131 171.646 95.4052 174.836ZM157.471 193.761C157.316 192.778 157.103 191.824 155.567 190.693C157.668 195.302 150.672 197.821 154.454 203.018C155.578 199.817 156.525 197.123 157.471 193.761Z" fill="#00BFAF"/>
</svg>
