<svg width="1198" height="1048" viewBox="0 0 1198 1048" fill="none" xmlns="http://www.w3.org/2000/svg">
<path d="M31 127.656C33.1209 127.37 34.658 127.76 35.6212 130.289C36.8264 133.453 39.7849 135.201 43.1714 136.069C43.9313 135.545 42.4811 134.567 43.6276 133.938C45.8899 133.989 46.3619 136.583 48.0988 137.538C53.1048 140.291 61.3068 138.927 66.002 135.566C73.2401 130.386 74.2697 123.32 72.7095 115.61C67.2858 88.8081 84.536 68.4362 102.647 63.4821C113.802 60.4306 125.339 59.1081 136.623 65.9178C145.931 71.5347 153.9 78.2943 160.796 86.4731C163.839 90.082 167.039 90.5857 171.294 89.3001C176.933 87.5968 181.086 84.0919 184.628 79.601C188.272 74.981 186.859 69.6637 186.603 64.5539C186.37 59.9106 185.647 55.2913 185.436 50.6478C185.212 45.7069 186.793 43.9787 191.576 43.2029C200.74 41.7167 211.987 48.5855 214.826 57.5516C217.2 65.0464 218.049 72.8255 217.998 80.6331C217.935 90.2668 212.929 97.7714 206.716 104.568C194.267 118.187 179.019 125.027 160.467 123.404C154.173 122.853 148.724 119.992 144.086 115.73C138.658 110.742 133.395 105.573 127.976 100.575C126.589 99.2955 125.014 98.052 123.3 97.3353C118.679 95.402 113.983 95.1265 109.702 98.2793C105.758 101.184 106.41 105.408 106.755 109.553C108.074 125.411 107.927 141.107 100.05 155.573C92.4013 169.62 80.9456 178.873 64.9035 180.741C55.402 181.847 46.2593 179.436 38.594 173.087C36.1847 171.091 33.8794 168.968 31.2632 166.822C31 153.841 31 140.941 31 127.656ZM101.866 72.8971C101.483 73.3889 100.667 73.6356 101.063 74.8866C104.177 74.6581 106.96 73.7178 109.324 71.6227C107.078 72.9457 104.275 70.8614 101.866 72.8971Z" fill="#FB6A61"/>
<path d="M204 285C202.705 295.092 200.816 305.133 195.776 314.22C185.801 332.207 170.782 342.877 150.304 345.808C138.141 347.549 126.157 345.838 114.127 344.56C104.417 343.528 94.8594 342.046 85.2877 346.486C72.7796 352.288 70.0594 366.163 80.1862 375.514C80.4737 375.78 80.6776 376.136 81.1239 376.713C72.6717 383.476 71.7231 394.597 65.8531 402.933C63.2403 406.643 62.6959 406.96 59.3341 404.03C54.3925 399.723 50.5053 394.641 46.9303 389.061C40.4935 379.014 38.9639 368.525 40.616 356.931C42.1208 346.37 46.0171 337.001 51.9385 328.294C55.9217 322.437 61.8684 319.046 67.7654 315.706C80.5748 308.453 94.3151 305.629 109.04 307.286C118.493 308.35 127.999 309.054 137.501 309.527C155.87 310.44 163.295 304.054 165.891 285.325C178.523 285 191.07 285 204 285ZM53.9051 377.727C51.1923 378.602 52.6014 380.547 52.8282 382.114C53.205 384.717 55.3623 383.753 57.4673 384.563C55.9799 381.955 58.5051 378.543 53.9051 377.727Z" fill="#FB6A61"/>
<path d="M1163 36C1161.71 46.0921 1159.82 56.1327 1154.78 65.2198C1144.8 83.2065 1129.78 93.8774 1109.3 96.8084C1097.14 98.5492 1085.16 96.8381 1073.13 95.5596C1063.42 94.5278 1053.86 93.0458 1044.29 97.4857C1031.78 103.288 1029.06 117.163 1039.19 126.514C1039.47 126.78 1039.68 127.136 1040.12 127.713C1031.67 134.476 1030.72 145.597 1024.85 153.933C1022.24 157.643 1021.7 157.96 1018.33 155.03C1013.39 150.723 1009.51 145.641 1005.93 140.061C999.494 130.014 997.964 119.525 999.616 107.931C1001.12 97.3697 1005.02 88.0014 1010.94 79.2944C1014.92 73.4373 1020.87 70.0458 1026.77 66.7065C1039.57 59.453 1053.32 56.6294 1068.04 58.2865C1077.49 59.3502 1087 60.054 1096.5 60.5266C1114.87 61.4403 1122.3 55.0544 1124.89 36.3253C1137.52 36 1150.07 36 1163 36ZM1012.91 128.727C1010.19 129.602 1011.6 131.547 1011.83 133.114C1012.2 135.717 1014.36 134.753 1016.47 135.563C1014.98 132.955 1017.51 129.543 1012.91 128.727Z" fill="#FB6A61"/>
<path d="M297.023 436.467C302.35 434.326 307.314 432.137 312.731 431.172C319.443 429.977 327.636 435.171 329.158 441.789C329.903 445.028 328.437 447.563 326.758 450.152C319.924 460.689 313.283 471.345 309.085 483.29C304.735 495.669 307.388 501.626 318.823 508.239C327.297 513.14 336.608 515.754 345.556 519.331C359.437 524.881 372.131 532.3 383.981 541.37C392.449 547.851 399.537 555.531 404.14 565.073C411.711 580.769 409.884 596.514 403.185 612.097C399.335 621.052 392.736 628.015 386.714 635.366C382.433 640.592 378.842 646.148 376.053 652.26C372.876 659.223 374.596 666.032 377.461 672.423C381.087 680.513 388.241 685.313 395.834 689.129C399.308 690.875 403.633 690.119 407.476 690.257C417.352 690.611 427.066 691.834 435.733 696.437C446.18 701.984 457.234 707.385 463.816 717.783C468.34 724.929 471.654 732.953 472.333 741.662C472.446 743.116 471.662 744.493 470.555 745.65C468.194 748.119 468.537 750.645 471.133 752.593C472.708 753.775 472.969 755.101 473 756.741C468.072 757.817 467.037 761.057 470.066 765.303C472.583 768.83 472.251 770.189 468.457 771.878C465.387 773.245 464.06 778.184 466.52 780.453C468.463 782.245 467.871 783.496 466.584 784.904C463.69 788.069 461.839 791.886 459.809 795.58C459.003 797.048 458.192 798.561 456.818 799.387C454.596 800.72 453.661 802.747 453.306 805.041C452.704 808.932 450.041 811.261 447.135 813.221C445.513 814.314 443.996 815.317 443.013 817.02C442.315 818.229 441.39 819.169 440.078 819.756C434.127 822.419 429.564 827.143 424.289 830.798C422.119 832.302 421.129 835.556 417.683 835.45C416.284 834.205 418.859 833.789 417.946 832.268C417.877 832.168 417.26 832.057 416.833 832.371C411.51 836.287 405.636 835.651 399.705 834.49C398.563 834.266 397.208 834.177 396.658 835.086C394.659 838.386 391.604 837.469 388.688 837.531C386.985 837.567 384.413 836.195 384.125 839.625C384.112 839.79 383.085 840.107 382.66 839.964C376.464 837.885 369.653 838.292 363.7 835.24C362.506 834.628 361.239 834.159 359.577 833.438C361.858 831.107 360.497 829.736 358.635 828.628C357.117 827.724 355.45 827.067 353.946 826.144C351.139 824.422 348.486 822.532 348.661 818.664C348.741 816.912 347.62 815.966 346.284 815.141C343.967 813.71 341.635 812.297 339.382 810.77C337.051 809.189 335.091 809.417 333.198 811.825C333.805 812.786 334.432 813.777 335.086 814.811C333.439 815.898 332.59 814.651 331.796 813.927C326.272 808.896 322.092 802.897 319.342 795.941C318.529 793.884 318.868 792.763 321.115 791.101C323.909 789.034 328.303 788.188 328.732 783.751C334.055 784.137 341.881 778.766 343.597 774.276C344.322 772.382 342.567 771.02 343.423 769.204C344.715 766.461 346.745 764.641 349.26 763.266C353.544 764.831 355.252 768.116 356.742 772.206C358.888 778.097 362.385 783.34 368.291 786.385C372.158 788.378 375.473 791.27 379.564 792.951C387.986 796.41 396.283 794.167 403.695 790.984C415.383 785.964 423.337 776.577 427.563 764.401C429.508 758.797 430.37 753.007 428.567 747.158C427.459 743.564 424.991 741.141 421.539 739.693C411.262 735.383 400.579 733.406 389.43 732.644C377.894 731.856 367.154 728.072 358.187 720.165C349.737 712.713 342.132 704.556 336.823 694.564C328.51 678.92 324.814 662.231 329.097 644.825C332.499 630.994 338.887 618.258 347.697 606.908C350.952 602.714 354.298 598.588 357.674 594.489C365.078 585.502 361.547 575.342 353.227 569.365C344.982 563.442 335.8 559.336 326.413 555.567C314.909 550.948 303.167 546.774 292.392 540.563C279.602 533.19 268.817 523.81 264.075 509.086C261.633 501.505 261.356 493.824 263.192 486.094C266.155 473.614 271.166 462.029 278.697 451.61C283.419 445.078 289.399 440 297.023 436.467ZM354.142 694.1C355.113 695.68 356.342 697.297 358.277 695.865C360.2 694.442 358.362 692.984 357.622 691.701C356.751 690.191 355.716 688.773 354.714 687.341C354.055 686.398 353.165 685.654 352.004 686.336C350.769 687.06 350.604 688.243 351.309 689.479C352.105 690.876 352.951 692.245 354.142 694.1Z" fill="#FB6A61"/>
<path d="M77.2343 564.955C82.4145 568.307 88.4467 568.903 93.2391 572.601C108.528 584.396 114.947 599.702 112.49 618.986C110.922 631.285 104.906 641.147 97.8649 651.045C92.2502 658.937 85.0841 663.812 77.011 668.046C73.5351 669.869 69.8108 670.446 65.9255 669.652C59.729 668.387 53.5097 670.493 47.2493 669.323C38.198 667.63 29.7296 665.115 22.4046 658.95C18.2584 655.461 13.5082 652.732 10.4202 648.066C-1.96165 629.359 -3.08725 609.835 5.86418 589.361C10.9379 577.757 19.6602 569.813 30.2406 563.852C36.3526 560.408 43.2401 559.833 50.344 560.036C59.5164 560.298 68.349 561.687 77.2343 564.955ZM75.678 615.607C73.8361 609.428 71.7356 603.67 65.6435 600.008C57.3682 595.034 47.5285 592.929 39.5418 598.877C31.0392 605.21 28.6159 623.53 39.8681 632.855C47.4431 639.133 55.8772 640.136 64.6992 636.863C69.256 635.173 76.3219 624.05 75.678 615.607ZM7.91394 631.119C9.77906 640.308 18.1308 649.322 23.9434 648.194C23.8824 646.717 23.9744 645.072 22.923 643.949C19.2471 640.023 17.3666 635.199 15.6133 630.231C14.052 625.806 12.86 621.094 8.29634 618.477C7.3382 617.927 6.60653 617.67 5.72913 618.208C4.74177 618.815 4.82696 619.803 5.09215 620.772C5.98421 624.03 6.88899 627.285 7.91394 631.119Z" fill="#FB6A61"/>
<path d="M30.9807 831.457C26.6616 828.055 21.7638 827.431 16.8163 826.451C13.0728 825.71 9.28323 823.95 6.17667 821.726C4.23992 820.339 3.44002 817.987 4.41777 814.398C6.46484 806.883 11.8826 802.592 16.7999 797.586C23.198 791.072 29.3175 784.257 37.4124 779.675C43.2283 776.383 49.4183 774.334 56.1002 773.731C60.3753 773.345 64.4793 771.612 68.9755 772.793C70.6636 773.237 72.6128 772.111 74.225 770.9C76.6245 769.098 79.5795 768.642 82.4226 769.008C86.7028 769.559 90.7928 769.374 94.7422 767.592C95.8578 767.089 96.8313 767.516 97.9069 767.728C100.627 768.262 103.205 769.355 106.135 767.537C108.1 766.317 110.883 767.434 112.868 768.328C117.364 770.351 122.194 771.033 126.774 772.527C145.795 778.735 164.179 786.447 178.503 801.008C191.772 814.497 198.898 831.148 201.409 849.713C202.772 859.788 202.847 869.964 202.306 880.134C202.178 882.522 200.784 884.494 200.428 886.713C197.992 901.873 190.573 914.758 182.933 927.81C175.034 941.305 164.888 952.683 154.066 963.694C146.751 971.136 142.66 980.264 140.898 990.43C139.817 996.663 142.481 1001.63 148.151 1004.54C157.853 1009.53 167.909 1008.44 177.712 1005.43C189.031 1001.96 199.982 1000.69 211.281 1005.56C217.299 1008.15 218.874 1010.61 217.577 1017.18C215.669 1026.85 209.839 1033.26 201.264 1037.36C189.483 1042.99 177.203 1047.48 164.041 1047.94C145.095 1048.62 128.026 1043.1 114.288 1029.69C105.806 1021.42 101.922 1010.86 100.759 999.057C99.006 981.248 103.682 965.273 112.856 950.159C119.226 939.666 128.175 931.369 135.741 921.908C145.361 909.878 155.293 897.858 159.896 882.861C163.588 870.832 163.485 858.55 160.228 846.216C157.987 837.728 152.769 832.177 145.837 827.219C135.7 819.968 125.016 814.18 112.637 812.207C98.6948 809.985 84.6478 809.407 70.6767 811.99C67.3648 812.602 64.5434 814.762 61.7985 816.844C53.7751 822.93 45.9659 829.267 38.5945 836.267C35.9523 834.546 33.616 833.023 30.9807 831.457ZM165.617 792.975C162.227 792.509 159.726 790.802 157.531 788.139C155.549 785.733 152.541 785.294 149.44 785.607C149.517 787.006 150.537 787.304 151.279 787.835C155.388 790.776 160.457 792.265 164.151 795.748C168.753 800.084 175.412 802.965 175.474 810.815C175.483 812.03 176.487 813.095 178.224 813.324C180.43 813.615 185.044 819.743 184.064 821.176C181.119 825.488 184.817 826.672 187.114 828.621C186.084 819.957 185.699 811.12 178.866 804.373C175.381 800.933 172.272 797.104 167.528 795.19C166.886 794.931 166.528 793.976 165.617 792.975ZM128.53 788.602C127.619 788.051 126.404 787.987 125.807 786.921C125.601 785.915 127.761 786.352 126.973 784.85C124.978 781.045 121.193 782.506 117.636 781.244C117.894 783.4 118.089 785.033 118.333 787.075C123.152 786.187 125.586 792.119 131.129 790.67C130.12 789.829 129.537 789.342 128.53 788.602ZM90.2554 780.557C90.9959 778.91 91.3399 777.201 89.015 776.768C86.8996 776.373 85.5036 777.47 85.0256 779.894C86.8506 780.201 88.0143 782.129 90.2554 780.557ZM98.3962 780.115C99.7211 780.244 101.012 780.25 102.128 779.143C99.2007 776.858 96.0595 776.857 92.7519 777.664C94.8825 777.538 96.126 779.299 98.3962 780.115Z" fill="#FB6A61"/>
<path d="M416.738 2.86994C432.102 -0.0906909 447.105 -1.5511 462.232 2.43414C493.523 10.6779 512.882 40.3829 508.343 72.7632C506.785 83.8786 504.447 94.6108 498.783 104.338C492.728 114.738 484.001 122.452 473.877 128.663C472.576 129.462 471.445 130.022 471.135 132.129C470.765 134.648 469.018 136.46 466.054 137.634C461.444 139.46 457.434 142.771 452.994 145.113C449.764 146.816 446.249 147.965 442.865 149.371C441.448 149.96 439.527 150.107 440.407 152.586C438.894 152.341 438.245 150.736 436.699 151.343C436.039 152.393 437.486 153.613 436.581 154.75C430.039 157.615 421.61 157.743 407.931 155.139C407.14 154.18 409.718 153.168 407.919 152.128C406.482 151.298 405.179 150.942 403.827 152.254C403.404 153.358 405.44 153.39 404.729 154.857C402.257 154.756 399.711 155.616 397.009 154.685C386.615 151.102 377.406 145.695 370.102 137.281C366.113 132.685 361.382 128.496 358.439 123.286C354.332 116.017 352.353 107.677 349.52 99.7721C347.008 92.7613 345.566 85.6465 346.117 78.1574C346.257 76.2503 346.241 74.4776 347.273 72.6646C348.852 69.8877 347.988 66.7954 347.987 63.736C347.986 57.7194 350.292 51.9432 353.05 46.5838C359.702 33.6596 370.076 24.2906 382.21 16.8781C392.828 10.3916 404.103 5.33483 416.738 2.86994ZM391.213 106.959C397.15 114.358 404.204 119.088 414.148 119.947C425.239 120.905 434.258 116.587 442.962 110.949C452.685 104.65 458.468 94.624 465.234 85.5784C468.627 81.0418 470.521 76.0396 471.227 70.1996C473.426 51.9989 463.417 39.4509 445.262 38.4316C440.238 38.1495 435.275 38.582 430.27 39.1106C415.423 40.6786 402.767 46.9099 392.282 57.3707C388.612 61.0323 385.613 65.4564 384.074 70.8153C380.297 83.971 383.039 95.6756 391.213 106.959ZM422.284 130.034C420.137 129.946 422.628 131.67 421.491 132.003C420.366 133.082 419.45 129.576 418.222 131.808C417.212 133.641 419.242 133.695 419.853 134.54C422.54 138.261 425.653 135.663 429.289 135.244C426.73 133.316 424.698 131.785 422.284 130.034Z" fill="#FB6A61"/>
<path d="M1093 954.344C1090.88 954.63 1089.34 954.24 1088.38 951.711C1087.17 948.547 1084.22 946.799 1080.83 945.931C1080.07 946.455 1081.52 947.433 1080.37 948.062C1078.11 948.011 1077.64 945.417 1075.9 944.462C1070.9 941.709 1062.69 943.073 1058 946.434C1050.76 951.614 1049.73 958.68 1051.29 966.39C1056.71 993.192 1039.46 1013.56 1021.35 1018.52C1010.2 1021.57 998.661 1022.89 987.377 1016.08C978.069 1010.47 970.1 1003.71 963.204 995.527C960.161 991.918 956.961 991.414 952.705 992.7C947.067 994.403 942.914 997.908 939.372 1002.4C935.728 1007.02 937.141 1012.34 937.397 1017.45C937.63 1022.09 938.352 1026.71 938.564 1031.35C938.788 1036.29 937.207 1038.02 932.424 1038.8C923.26 1040.28 912.013 1033.41 909.174 1024.45C906.8 1016.95 905.951 1009.17 906.002 1001.37C906.065 991.733 911.071 984.229 917.284 977.432C929.733 963.814 944.981 956.973 963.533 958.596C969.827 959.147 975.276 962.008 979.914 966.27C985.342 971.258 990.605 976.427 996.024 981.425C997.411 982.705 998.986 983.948 1000.7 984.665C1005.32 986.598 1010.02 986.874 1014.3 983.721C1018.24 980.816 1017.59 976.592 1017.25 972.447C1015.93 956.589 1016.07 940.893 1023.95 926.427C1031.6 912.38 1043.05 903.127 1059.1 901.259C1068.6 900.153 1077.74 902.564 1085.41 908.913C1087.82 910.909 1090.12 913.032 1092.74 915.178C1093 928.159 1093 941.059 1093 954.344ZM1022.13 1009.1C1022.52 1008.61 1023.33 1008.36 1022.94 1007.11C1019.82 1007.34 1017.04 1008.28 1014.68 1010.38C1016.92 1009.05 1019.72 1011.14 1022.13 1009.1Z" fill="#FB6A61"/>
<path d="M708 827C709.295 816.908 711.184 806.867 716.224 797.78C726.199 779.793 741.218 769.123 761.696 766.192C773.859 764.451 785.843 766.162 797.873 767.44C807.583 768.472 817.141 769.954 826.712 765.514C839.22 759.712 841.941 745.837 831.814 736.486C831.526 736.22 831.322 735.864 830.876 735.287C839.328 728.524 840.277 717.403 846.147 709.067C848.76 705.357 849.304 705.04 852.666 707.97C857.607 712.277 861.495 717.359 865.07 722.939C871.506 732.986 873.036 743.475 871.384 755.069C869.879 765.63 865.983 774.999 860.061 783.706C856.078 789.563 850.132 792.954 844.235 796.294C831.425 803.547 817.685 806.371 802.96 804.714C793.507 803.65 784.001 802.946 774.499 802.473C756.13 801.56 748.705 807.946 746.109 826.675C733.477 827 720.93 827 708 827ZM858.095 734.273C860.808 733.398 859.398 731.453 859.172 729.886C858.795 727.283 856.638 728.247 854.533 727.437C856.02 730.045 853.495 733.457 858.095 734.273Z" fill="#FB6A61"/>
<path d="M1162.98 761.533C1157.65 763.674 1152.69 765.863 1147.27 766.828C1140.56 768.023 1132.36 762.829 1130.84 756.211C1130.1 752.972 1131.56 750.437 1133.24 747.848C1140.08 737.311 1146.72 726.655 1150.91 714.71C1155.26 702.331 1152.61 696.374 1141.18 689.761C1132.7 684.86 1123.39 682.246 1114.44 678.669C1100.56 673.119 1087.87 665.7 1076.02 656.63C1067.55 650.149 1060.46 642.469 1055.86 632.927C1048.29 617.231 1050.12 601.486 1056.82 585.903C1060.66 576.948 1067.26 569.985 1073.29 562.634C1077.57 557.408 1081.16 551.852 1083.95 545.74C1087.12 538.777 1085.4 531.968 1082.54 525.577C1078.91 517.487 1071.76 512.687 1064.17 508.871C1060.69 507.125 1056.37 507.881 1052.52 507.743C1042.65 507.389 1032.93 506.166 1024.27 501.563C1013.82 496.016 1002.77 490.615 996.184 480.217C991.66 473.071 988.346 465.047 987.667 456.338C987.554 454.884 988.337 453.507 989.444 452.35C991.806 449.881 991.463 447.355 988.867 445.407C987.292 444.225 987.03 442.899 987 441.259C991.928 440.183 992.963 436.943 989.934 432.697C987.417 429.17 987.749 427.811 991.543 426.122C994.613 424.755 995.94 419.816 993.48 417.547C991.537 415.755 992.129 414.504 993.416 413.096C996.31 409.931 998.161 406.114 1000.19 402.42C1001 400.952 1001.81 399.439 1003.18 398.613C1005.4 397.28 1006.34 395.253 1006.69 392.959C1007.3 389.068 1009.96 386.739 1012.87 384.779C1014.49 383.686 1016 382.683 1016.99 380.98C1017.69 379.771 1018.61 378.831 1019.92 378.244C1025.87 375.581 1030.44 370.857 1035.71 367.202C1037.88 365.698 1038.87 362.444 1042.32 362.55C1043.72 363.795 1041.14 364.211 1042.05 365.732C1042.12 365.832 1042.74 365.943 1043.17 365.629C1048.49 361.713 1054.36 362.349 1060.29 363.51C1061.44 363.734 1062.79 363.823 1063.34 362.914C1065.34 359.614 1068.4 360.531 1071.31 360.469C1073.01 360.433 1075.59 361.805 1075.87 358.375C1075.89 358.21 1076.92 357.893 1077.34 358.036C1083.54 360.115 1090.35 359.708 1096.3 362.76C1097.49 363.372 1098.76 363.841 1100.42 364.562C1098.14 366.893 1099.5 368.264 1101.37 369.372C1102.88 370.276 1104.55 370.933 1106.05 371.856C1108.86 373.578 1111.51 375.468 1111.34 379.336C1111.26 381.088 1112.38 382.034 1113.72 382.859C1116.03 384.29 1118.36 385.703 1120.62 387.23C1122.95 388.811 1124.91 388.583 1126.8 386.175C1126.19 385.214 1125.57 384.223 1124.91 383.189C1126.56 382.102 1127.41 383.349 1128.2 384.073C1133.73 389.104 1137.91 395.103 1140.66 402.059C1141.47 404.116 1141.13 405.237 1138.88 406.899C1136.09 408.966 1131.7 409.812 1131.27 414.249C1125.95 413.863 1118.12 419.234 1116.4 423.724C1115.68 425.618 1117.43 426.98 1116.58 428.796C1115.28 431.539 1113.26 433.359 1110.74 434.734C1106.46 433.169 1104.75 429.884 1103.26 425.794C1101.11 419.903 1097.62 414.66 1091.71 411.615C1087.84 409.622 1084.53 406.73 1080.44 405.049C1072.01 401.59 1063.72 403.833 1056.3 407.016C1044.62 412.036 1036.66 421.423 1032.44 433.599C1030.49 439.203 1029.63 444.993 1031.43 450.842C1032.54 454.436 1035.01 456.859 1038.46 458.307C1048.74 462.617 1059.42 464.594 1070.57 465.356C1082.11 466.144 1092.85 469.928 1101.81 477.835C1110.26 485.287 1117.87 493.444 1123.18 503.436C1131.49 519.08 1135.19 535.769 1130.9 553.175C1127.5 567.006 1121.11 579.742 1112.3 591.092C1109.05 595.286 1105.7 599.412 1102.33 603.511C1094.92 612.498 1098.45 622.658 1106.77 628.635C1115.02 634.558 1124.2 638.664 1133.59 642.433C1145.09 647.052 1156.83 651.226 1167.61 657.437C1180.4 664.81 1191.18 674.19 1195.92 688.914C1198.37 696.495 1198.64 704.176 1196.81 711.906C1193.84 724.386 1188.83 735.971 1181.3 746.39C1176.58 752.922 1170.6 758 1162.98 761.533ZM1105.86 503.9C1104.89 502.32 1103.66 500.703 1101.72 502.135C1099.8 503.558 1101.64 505.016 1102.38 506.299C1103.25 507.809 1104.28 509.227 1105.29 510.659C1105.95 511.602 1106.83 512.346 1108 511.664C1109.23 510.94 1109.4 509.757 1108.69 508.521C1107.89 507.124 1107.05 505.755 1105.86 503.9Z" fill="#FB6A61"/>
<path d="M700.766 511.045C695.585 507.693 689.553 507.097 684.761 503.399C669.472 491.605 663.053 476.298 665.51 457.014C667.077 444.715 673.094 434.853 680.135 424.955C685.75 417.063 692.916 412.188 700.989 407.954C704.465 406.131 708.189 405.554 712.074 406.348C718.271 407.613 724.49 405.507 730.751 406.677C739.802 408.37 748.27 410.885 755.595 417.05C759.742 420.539 764.492 423.268 767.58 427.934C779.962 446.641 781.087 466.165 772.136 486.639C767.062 498.243 758.34 506.187 747.759 512.148C741.647 515.592 734.76 516.167 727.656 515.964C718.483 515.702 709.651 514.313 700.766 511.045ZM702.322 460.393C704.164 466.572 706.264 472.33 712.356 475.992C720.632 480.966 730.471 483.071 738.458 477.123C746.961 470.79 749.384 452.47 738.132 443.145C730.557 436.867 722.123 435.864 713.301 439.137C708.744 440.827 701.678 451.95 702.322 460.393ZM770.086 444.881C768.221 435.692 759.869 426.678 754.057 427.806C754.118 429.283 754.026 430.928 755.077 432.051C758.753 435.977 760.633 440.801 762.387 445.769C763.948 450.194 765.14 454.906 769.704 457.523C770.662 458.073 771.393 458.33 772.271 457.792C773.258 457.185 773.173 456.197 772.908 455.228C772.016 451.97 771.111 448.715 770.086 444.881Z" fill="#FB6A61"/>
<path d="M951.019 216.543C955.338 219.945 960.236 220.569 965.184 221.549C968.927 222.29 972.717 224.05 975.823 226.274C977.76 227.661 978.56 230.013 977.582 233.602C975.535 241.117 970.117 245.408 965.2 250.414C958.802 256.928 952.682 263.743 944.588 268.325C938.772 271.617 932.582 273.666 925.9 274.269C921.625 274.655 917.521 276.388 913.024 275.207C911.336 274.763 909.387 275.889 907.775 277.1C905.376 278.902 902.42 279.358 899.577 278.992C895.297 278.441 891.207 278.626 887.258 280.408C886.142 280.911 885.169 280.484 884.093 280.272C881.373 279.738 878.795 278.645 875.865 280.463C873.9 281.683 871.117 280.566 869.132 279.672C864.636 277.649 859.806 276.967 855.226 275.473C836.205 269.265 817.821 261.553 803.497 246.992C790.228 233.503 783.102 216.852 780.591 198.287C779.228 188.212 779.153 178.036 779.694 167.866C779.821 165.478 781.216 163.506 781.572 161.287C784.008 146.127 791.427 133.242 799.067 120.19C806.966 106.695 817.112 95.317 827.934 84.3061C835.249 76.8643 839.34 67.7363 841.102 57.5699C842.183 51.3366 839.519 46.3699 833.848 43.4561C824.147 38.4709 814.091 39.5611 804.288 42.5679C792.969 46.0395 782.018 47.3135 770.719 42.4422C764.701 39.8474 763.125 37.3929 764.423 30.8175C766.331 21.1475 772.161 14.739 780.736 10.641C792.517 5.01 804.797 0.5246 817.959 0.0550317C836.905 -0.620921 853.974 4.89884 867.712 18.3067C876.194 26.5849 880.078 37.1357 881.241 48.943C882.994 66.7525 878.318 82.7266 869.144 97.8414C862.774 108.334 853.825 116.631 846.259 126.092C836.639 138.122 826.707 150.142 822.104 165.139C818.412 177.168 818.515 189.45 821.772 201.784C824.013 210.272 829.231 215.823 836.163 220.781C846.3 228.032 856.984 233.82 869.363 235.793C883.305 238.015 897.352 238.593 911.323 236.01C914.635 235.398 917.457 233.238 920.202 231.156C928.225 225.07 936.034 218.733 943.405 211.733C946.048 213.454 948.384 214.977 951.019 216.543ZM816.383 255.025C819.773 255.491 822.274 257.198 824.469 259.862C826.451 262.267 829.459 262.706 832.56 262.393C832.483 260.994 831.463 260.696 830.721 260.165C826.612 257.224 821.543 255.735 817.849 252.252C813.247 247.916 806.588 245.035 806.526 237.186C806.517 235.97 805.513 234.905 803.776 234.676C801.57 234.385 796.956 228.257 797.936 226.824C800.881 222.512 797.183 221.328 794.886 219.379C795.916 228.043 796.301 236.881 803.134 243.627C806.619 247.067 809.728 250.896 814.472 252.81C815.114 253.069 815.472 254.024 816.383 255.025ZM853.47 259.398C854.381 259.949 855.596 260.013 856.193 261.079C856.399 262.085 854.239 261.648 855.027 263.15C857.022 266.955 860.807 265.494 864.364 266.756C864.106 264.6 863.911 262.967 863.667 260.925C858.848 261.813 856.414 255.881 850.871 257.33C851.88 258.171 852.463 258.658 853.47 259.398ZM891.745 267.443C891.004 269.09 890.66 270.799 892.985 271.232C895.1 271.627 896.496 270.53 896.974 268.106C895.149 267.799 893.986 265.871 891.745 267.443ZM883.604 267.885C882.279 267.756 880.988 267.75 879.872 268.857C882.799 271.142 885.94 271.143 889.248 270.336C887.118 270.462 885.874 268.701 883.604 267.885Z" fill="#FB6A61"/>
<path d="M565.262 1045.13C549.898 1048.09 534.895 1049.55 519.768 1045.57C488.477 1037.32 469.118 1007.62 473.657 975.237C475.216 964.121 477.554 953.389 483.217 943.662C489.272 933.262 497.999 925.548 508.123 919.337C509.424 918.538 510.555 917.978 510.865 915.871C511.235 913.352 512.982 911.54 515.946 910.366C520.556 908.54 524.566 905.229 529.007 902.887C532.236 901.184 535.751 900.035 539.135 898.629C540.553 898.04 542.473 897.893 541.593 895.414C543.107 895.659 543.755 897.264 545.301 896.657C545.961 895.607 544.514 894.387 545.419 893.25C551.961 890.385 560.39 890.257 574.069 892.861C574.86 893.82 572.282 894.832 574.081 895.872C575.518 896.702 576.822 897.058 578.173 895.746C578.596 894.642 576.561 894.61 577.271 893.143C579.743 893.244 582.289 892.384 584.991 893.315C595.385 896.898 604.594 902.305 611.898 910.719C615.887 915.315 620.618 919.504 623.561 924.714C627.668 931.983 629.647 940.323 632.48 948.228C634.992 955.239 636.434 962.353 635.884 969.843C635.743 971.75 635.759 973.522 634.728 975.335C633.148 978.112 634.012 981.205 634.013 984.264C634.014 990.281 631.708 996.057 628.95 1001.42C622.298 1014.34 611.924 1023.71 599.79 1031.12C589.172 1037.61 577.897 1042.67 565.262 1045.13ZM590.787 941.041C584.851 933.642 577.796 928.912 567.852 928.053C556.761 927.095 547.742 931.413 539.039 937.051C529.315 943.35 523.532 953.376 516.766 962.422C513.373 966.958 511.479 971.96 510.773 977.8C508.574 996.001 518.583 1008.55 536.738 1009.57C541.762 1009.85 546.725 1009.42 551.73 1008.89C566.578 1007.32 579.233 1001.09 589.718 990.629C593.389 986.968 596.387 982.544 597.926 977.185C601.703 964.029 598.961 952.324 590.787 941.041ZM559.716 917.966C561.863 918.054 559.372 916.33 560.51 915.997C561.634 914.918 562.55 918.424 563.779 916.192C564.788 914.359 562.758 914.305 562.148 913.46C559.46 909.739 556.347 912.337 552.711 912.756C555.27 914.684 557.302 916.215 559.716 917.966Z" fill="#FB6A61"/>
</svg>
