<svg width="390" height="844" viewBox="0 0 390 844" fill="none" xmlns="http://www.w3.org/2000/svg">
<path d="M-6 45.6559C-3.87913 45.3699 -2.34202 45.7599 -1.37876 48.2889C-0.173646 51.453 2.78486 53.2007 6.17139 54.0691C6.9313 53.5446 5.48112 52.5669 6.62764 51.9384C8.88993 51.9893 9.3619 54.5829 11.0988 55.538C16.1048 58.291 24.3068 56.9266 29.002 53.5664C36.2401 48.3864 37.2697 41.3196 35.7095 33.6099C30.2858 6.80812 47.536 -13.5638 65.6467 -18.5179C76.8021 -21.5695 88.3393 -22.8919 99.6233 -16.0822C108.931 -10.4653 116.9 -3.70565 123.796 4.47308C126.839 8.08198 130.039 8.58568 134.294 7.30009C139.933 5.59685 144.086 2.09194 147.628 -2.39901C151.272 -7.01898 149.859 -12.3363 149.603 -17.4461C149.37 -22.0894 148.647 -26.7087 148.436 -31.3522C148.212 -36.2931 149.793 -38.0213 154.576 -38.7971C163.74 -40.2833 174.987 -33.4145 177.826 -24.4484C180.2 -16.9536 181.049 -9.17446 180.998 -1.36686C180.935 8.26683 175.929 15.7714 169.716 22.5683C157.267 36.1865 142.019 43.0272 123.467 41.4037C117.173 40.8528 111.724 37.9924 107.086 33.7303C101.658 28.7419 96.395 23.5727 90.976 18.5745C89.5892 17.2955 88.0139 16.052 86.3005 15.3353C81.6786 13.402 76.9831 13.1265 72.7021 16.2793C68.7584 19.1838 69.4099 23.4083 69.7547 27.5531C71.074 43.4115 70.9269 59.1073 63.05 73.573C55.4013 87.6196 43.9456 96.8732 27.9035 98.7407C18.402 99.8468 9.25934 97.4363 1.59399 91.0865C-0.815343 89.0907 -3.12061 86.9678 -5.73676 84.8217C-6 71.8406 -6 58.9409 -6 45.6559ZM64.8665 -9.10287C64.483 -8.61105 63.6669 -8.36444 64.0634 -7.11341C67.1766 -7.34189 69.96 -8.28223 72.3237 -10.3773C70.0785 -9.05427 67.2755 -11.1386 64.8665 -9.10287Z" fill="#FB6A61"/>
<path d="M167 203C165.705 213.092 163.816 223.133 158.776 232.22C148.801 250.207 133.782 260.877 113.304 263.808C101.141 265.549 89.1569 263.838 77.1266 262.56C67.4174 261.528 57.8594 260.046 48.2877 264.486C35.7796 270.288 33.0594 284.163 43.1862 293.514C43.4737 293.78 43.6776 294.136 44.1239 294.713C35.6717 301.476 34.7231 312.597 28.8531 320.933C26.2403 324.643 25.6959 324.96 22.3341 322.03C17.3925 317.723 13.5053 312.641 9.93032 307.061C3.49351 297.014 1.96394 286.525 3.61595 274.931C5.12083 264.37 9.0171 255.001 14.9385 246.294C18.9217 240.437 24.8684 237.046 30.7654 233.706C43.5748 226.453 57.3151 223.629 72.0404 225.286C81.4927 226.35 90.9993 227.054 100.501 227.527C118.87 228.44 126.295 222.054 128.891 203.325C141.523 203 154.07 203 167 203ZM16.9051 295.727C14.1923 296.602 15.6014 298.547 15.8282 300.114C16.205 302.717 18.3623 301.753 20.4673 302.563C18.9799 299.955 21.5051 296.543 16.9051 295.727Z" fill="#FB6A61"/>
<path d="M260.023 354.467C265.35 352.326 270.314 350.137 275.731 349.172C282.443 347.977 290.636 353.171 292.158 359.789C292.903 363.028 291.437 365.563 289.758 368.152C282.924 378.689 276.283 389.345 272.085 401.29C267.735 413.669 270.388 419.626 281.823 426.239C290.297 431.14 299.608 433.754 308.556 437.331C322.437 442.881 335.131 450.3 346.981 459.37C355.449 465.851 362.537 473.531 367.14 483.073C374.711 498.769 372.884 514.514 366.185 530.097C362.335 539.052 355.736 546.015 349.714 553.366C345.433 558.592 341.842 564.148 339.053 570.26C335.876 577.223 337.596 584.032 340.461 590.423C344.087 598.513 351.241 603.313 358.834 607.129C362.308 608.875 366.633 608.119 370.476 608.257C380.352 608.611 390.066 609.835 398.733 614.437C409.18 619.984 420.234 625.385 426.816 635.783C431.34 642.929 434.654 650.953 435.333 659.662C435.446 661.116 434.663 662.493 433.555 663.65C431.194 666.119 431.537 668.645 434.133 670.593C435.708 671.775 435.969 673.101 436 674.741C431.072 675.817 430.037 679.057 433.066 683.303C435.583 686.83 435.251 688.189 431.457 689.878C428.387 691.245 427.06 696.184 429.52 698.453C431.463 700.245 430.871 701.496 429.584 702.904C426.69 706.069 424.839 709.886 422.809 713.58C422.003 715.048 421.192 716.561 419.818 717.387C417.596 718.72 416.661 720.747 416.306 723.041C415.704 726.932 413.041 729.261 410.135 731.221C408.513 732.314 406.996 733.317 406.013 735.02C405.315 736.229 404.39 737.169 403.078 737.756C397.127 740.419 392.564 745.143 387.289 748.798C385.119 750.302 384.129 753.556 380.683 753.45C379.284 752.205 381.859 751.789 380.946 750.268C380.877 750.168 380.26 750.057 379.833 750.371C374.51 754.287 368.636 753.651 362.705 752.49C361.563 752.266 360.208 752.177 359.658 753.086C357.659 756.386 354.604 755.469 351.688 755.531C349.985 755.567 347.413 754.195 347.125 757.625C347.112 757.79 346.085 758.107 345.66 757.964C339.464 755.885 332.653 756.292 326.7 753.24C325.506 752.628 324.239 752.159 322.577 751.438C324.858 749.107 323.497 747.736 321.635 746.628C320.117 745.724 318.45 745.067 316.946 744.144C314.139 742.422 311.486 740.532 311.661 736.664C311.741 734.912 310.62 733.966 309.284 733.141C306.967 731.71 304.635 730.297 302.382 728.77C300.051 727.189 298.091 727.417 296.198 729.825C296.805 730.786 297.432 731.777 298.086 732.811C296.439 733.898 295.59 732.651 294.796 731.927C289.272 726.896 285.092 720.897 282.342 713.941C281.529 711.884 281.868 710.763 284.115 709.101C286.909 707.034 291.303 706.188 291.732 701.751C297.055 702.137 304.881 696.766 306.597 692.276C307.322 690.382 305.567 689.02 306.423 687.204C307.715 684.461 309.745 682.641 312.26 681.266C316.544 682.831 318.252 686.116 319.742 690.206C321.888 696.097 325.385 701.34 331.291 704.385C335.158 706.378 338.473 709.27 342.564 710.951C350.986 714.41 359.283 712.167 366.695 708.984C378.383 703.964 386.337 694.577 390.563 682.401C392.508 676.797 393.37 671.007 391.567 665.158C390.459 661.564 387.991 659.141 384.539 657.693C374.262 653.383 363.579 651.406 352.43 650.644C340.894 649.856 330.154 646.072 321.187 638.165C312.737 630.713 305.132 622.556 299.823 612.564C291.51 596.92 287.814 580.231 292.097 562.825C295.499 548.994 301.887 536.258 310.697 524.908C313.952 520.714 317.298 516.588 320.674 512.489C328.078 503.502 324.547 493.342 316.227 487.365C307.982 481.442 298.8 477.336 289.413 473.567C277.909 468.948 266.167 464.774 255.392 458.563C242.602 451.19 231.817 441.81 227.075 427.086C224.633 419.505 224.356 411.824 226.192 404.094C229.155 391.614 234.166 380.029 241.697 369.61C246.419 363.078 252.399 358 260.023 354.467ZM317.142 612.1C318.113 613.68 319.342 615.297 321.277 613.865C323.2 612.442 321.362 610.984 320.622 609.701C319.751 608.191 318.716 606.773 317.714 605.341C317.055 604.398 316.165 603.654 315.004 604.336C313.769 605.06 313.604 606.243 314.309 607.479C315.105 608.876 315.951 610.245 317.142 612.1Z" fill="#FB6A61"/>
<path d="M40.2343 482.955C45.4145 486.307 51.4466 486.903 56.2391 490.601C71.5282 502.396 77.9472 517.702 75.4897 536.986C73.9225 549.285 67.9061 559.147 60.8649 569.045C55.2502 576.937 48.0841 581.812 40.011 586.046C36.5351 587.869 32.8109 588.446 28.9255 587.652C22.729 586.387 16.5097 588.493 10.2493 587.323C1.19797 585.63 -7.27042 583.115 -14.5954 576.95C-18.7416 573.461 -23.4918 570.732 -26.5798 566.066C-38.9616 547.359 -40.0873 527.835 -31.1358 507.361C-26.0621 495.757 -17.3398 487.813 -6.75944 481.852C-0.6474 478.408 6.24008 477.833 13.344 478.036C22.5164 478.298 31.349 479.687 40.2343 482.955ZM38.678 533.607C36.8361 527.428 34.7356 521.67 28.6435 518.008C20.3682 513.034 10.5285 510.929 2.54183 516.877C-5.96083 523.21 -8.38408 541.53 2.8681 550.855C10.4431 557.133 18.8772 558.136 27.6992 554.863C32.256 553.173 39.3219 542.05 38.678 533.607ZM-29.0861 549.119C-27.2209 558.308 -18.8692 567.322 -13.0566 566.194C-13.1176 564.717 -13.0256 563.072 -14.077 561.949C-17.7529 558.023 -19.6334 553.199 -21.3867 548.231C-22.948 543.806 -24.14 539.094 -28.7037 536.477C-29.6618 535.927 -30.3935 535.67 -31.2709 536.208C-32.2582 536.815 -32.173 537.803 -31.9078 538.772C-31.0158 542.03 -30.111 545.285 -29.0861 549.119Z" fill="#FB6A61"/>
<path d="M-6.0193 749.457C-10.3384 746.055 -15.2362 745.431 -20.1837 744.451C-23.9272 743.71 -27.7168 741.95 -30.8233 739.726C-32.7601 738.339 -33.56 735.987 -32.5822 732.398C-30.5352 724.883 -25.1174 720.592 -20.2001 715.586C-13.802 709.072 -7.6825 702.257 0.412399 697.675C6.2283 694.383 12.4183 692.334 19.1002 691.731C23.3753 691.345 27.4793 689.612 31.9755 690.793C33.6636 691.237 35.6128 690.111 37.225 688.9C39.6245 687.098 42.5795 686.642 45.4226 687.008C49.7028 687.559 53.7928 687.374 57.7422 685.592C58.8578 685.089 59.8313 685.516 60.907 685.728C63.6271 686.262 66.2047 687.355 69.1346 685.537C71.1001 684.317 73.8832 685.434 75.868 686.328C80.3642 688.351 85.1942 689.033 89.7744 690.527C108.795 696.735 127.179 704.447 141.503 719.008C154.772 732.497 161.898 749.148 164.409 767.713C165.772 777.788 165.847 787.964 165.306 798.134C165.178 800.522 163.784 802.494 163.428 804.713C160.992 819.873 153.573 832.758 145.933 845.81C138.034 859.305 127.888 870.683 117.066 881.694C109.751 889.136 105.66 898.264 103.898 908.43C102.817 914.663 105.481 919.63 111.151 922.544C120.853 927.529 130.909 926.439 140.712 923.432C152.031 919.961 162.982 918.687 174.281 923.558C180.299 926.153 181.874 928.607 180.577 935.183C178.669 944.853 172.839 951.261 164.264 955.359C152.483 960.99 140.203 965.475 127.041 965.945C108.095 966.621 91.0261 961.101 77.2878 947.693C68.8056 939.415 64.922 928.864 63.7595 917.057C62.006 899.248 66.6818 883.273 75.8564 868.159C82.2255 857.666 91.1752 849.369 98.7406 839.908C108.361 827.878 118.293 815.858 122.896 800.861C126.588 788.832 126.485 776.55 123.228 764.216C120.987 755.728 115.769 750.177 108.837 745.219C98.7003 737.968 88.0163 732.18 75.6375 730.207C61.6948 727.985 47.6478 727.407 33.6767 729.99C30.3648 730.602 27.5434 732.762 24.7985 734.844C16.7751 740.93 8.96588 747.267 1.59454 754.267C-1.04773 752.546 -3.384 751.023 -6.0193 749.457ZM128.617 710.975C125.227 710.509 122.726 708.802 120.531 706.139C118.549 703.733 115.541 703.294 112.44 703.607C112.517 705.006 113.537 705.304 114.279 705.835C118.388 708.776 123.457 710.265 127.151 713.748C131.753 718.084 138.412 720.965 138.474 728.815C138.483 730.03 139.487 731.095 141.224 731.324C143.43 731.615 148.044 737.743 147.064 739.176C144.119 743.488 147.817 744.672 150.114 746.621C149.084 737.957 148.699 729.12 141.866 722.373C138.381 718.933 135.272 715.104 130.528 713.19C129.886 712.931 129.528 711.976 128.617 710.975ZM91.5301 706.602C90.6185 706.051 89.4036 705.987 88.8074 704.921C88.6007 703.915 90.7606 704.352 89.973 702.85C87.9781 699.045 84.1929 700.506 80.6359 699.244C80.8938 701.4 81.089 703.033 81.3331 705.075C86.152 704.187 88.5856 710.119 94.1286 708.67C93.1198 707.829 92.5366 707.342 91.5301 706.602ZM53.2554 698.557C53.9959 696.91 54.3399 695.201 52.015 694.768C49.8996 694.373 48.5036 695.47 48.0256 697.894C49.8506 698.201 51.0143 700.129 53.2554 698.557ZM61.3962 698.115C62.7211 698.244 64.0119 698.25 65.1281 697.143C62.2007 694.858 59.0595 694.857 55.7519 695.664C57.8824 695.538 59.126 697.299 61.3962 698.115Z" fill="#FB6A61"/>
<path d="M379.738 -79.1301C395.102 -82.0907 410.105 -83.5511 425.232 -79.5659C456.523 -71.3221 475.882 -41.6171 471.343 -9.23682C469.785 1.87864 467.447 12.6108 461.783 22.3378C455.728 32.7383 447.001 40.452 436.877 46.6632C435.576 47.4616 434.445 48.0221 434.135 50.1289C433.765 52.6484 432.018 54.4599 429.054 55.6339C424.444 57.4598 420.434 60.7712 415.994 63.1129C412.764 64.8158 409.249 65.9647 405.865 67.3706C404.448 67.9597 402.527 68.107 403.407 70.5861C401.894 70.3406 401.245 68.736 399.699 69.343C399.039 70.3933 400.486 71.6127 399.581 72.7503C393.039 75.6154 384.61 75.7425 370.931 73.1392C370.14 72.1803 372.718 71.1679 370.919 70.1283C369.482 69.2977 368.179 68.9416 366.827 70.2542C366.404 71.3584 368.44 71.3898 367.729 72.8572C365.257 72.7562 362.711 73.616 360.009 72.6848C349.615 69.102 340.406 63.6947 333.102 55.2806C329.113 50.6852 324.382 46.4958 321.439 41.2864C317.332 34.0168 315.353 25.6771 312.52 17.7721C310.008 10.7613 308.566 3.64654 309.117 -3.84261C309.257 -5.74966 309.241 -7.52237 310.273 -9.33535C311.852 -12.1123 310.988 -15.2046 310.987 -18.264C310.986 -24.2806 313.292 -30.0568 316.05 -35.4162C322.702 -48.3404 333.076 -57.7094 345.21 -65.1219C355.828 -71.6084 367.103 -76.6652 379.738 -79.1301ZM354.213 24.9588C360.15 32.3577 367.204 37.088 377.148 37.9468C388.239 38.9045 397.258 34.5874 405.962 28.9492C415.685 22.6502 421.468 12.624 428.234 3.57841C431.627 -0.958206 433.521 -5.96043 434.227 -11.8004C436.426 -30.0011 426.417 -42.5491 408.262 -43.5684C403.238 -43.8505 398.275 -43.418 393.27 -42.8894C378.423 -41.3214 365.767 -35.0901 355.282 -24.6293C351.612 -20.9677 348.613 -16.5436 347.074 -11.1847C343.297 1.97101 346.039 13.6756 354.213 24.9588ZM385.284 48.0344C383.137 47.9461 385.628 49.67 384.491 50.003C383.366 51.0821 382.45 47.5762 381.222 49.8079C380.212 51.6408 382.242 51.6945 382.853 52.5399C385.54 56.2606 388.653 53.6634 392.289 53.2441C389.73 51.3164 387.698 49.785 385.284 48.0344Z" fill="#FB6A61"/>
</svg>
