   <svg
      xmlns="http://www.w3.org/2000/svg"
      viewBox="19.459 233.754 455.015 77.025"
    >
      <g
        fill="#37008C"
        fillRule="evenodd"
        stroke="rgba(0, 0, 0, 0)"
        strokeLinecap="round"
        strokeWidth="0"
        fontSize="12"
        transform="translate(19.459 142.722) scale(1.70615)"
      >
        <path d="M19.067 89.564h-8.8V63.256H0v-7.609h29.333v7.609H19.067v26.308z"></path>
        <path d="M42.075 89.564h-8.709V65.272h8.709v24.292zM35.98 62.575c.562.183 1.15.274 1.741.268.11 0 .221-.003.332-.009a4.814 4.814 0 003.242-1.389l.055-.055a4.488 4.488 0 001.366-3.268l-.001-.125a4.515 4.515 0 00-1.42-3.266 4.707 4.707 0 00-1.776-1.094 5.55 5.55 0 00-1.798-.281 5.788 5.788 0 00-.527.021 4.732 4.732 0 00-3.026 1.354 4.629 4.629 0 00-1.003 1.43 4.772 4.772 0 00-.394 1.961 4.61 4.61 0 00.286 1.636 4.743 4.743 0 001.111 1.687 4.605 4.605 0 001.812 1.13z"></path>
        <path d="M56.008 89.564H47.3V65.272h8.708v3.438h.229c.331-.542.758-1.105 1.281-1.691l.025-.028c.535-.596 1.246-1.108 2.131-1.536a5.971 5.971 0 011.295-.438 8.601 8.601 0 011.363-.183c.229-.014.459-.021.688-.02 1.489 0 2.742.253 3.76.76.332.165.646.363.938.592a7.437 7.437 0 012.452 3.392c.489 1.359.734 2.727.734 4.102v15.904h-8.709V75.401c0-.886-.229-1.703-.687-2.452a2.228 2.228 0 00-1.379-1.002 3.888 3.888 0 00-1.005-.121c-1.191 0-2.008.382-2.452 1.146a4.768 4.768 0 00-.664 2.429v14.163z"></path>
        <path d="M74.158 98.318v-6.875l.55.046c.331.027.774.042 1.33.045h.182c.421.001.843-.015 1.263-.049a8.789 8.789 0 001.785-.317 3.89 3.89 0 001.498-.866c.231-.211.443-.443.633-.693l-8.662-24.337h8.616l4.675 14.667 4.492-14.667h8.617l-8.204 22.687c-.753 2.118-1.633 3.925-2.639 5.42-.096.143-.194.284-.295.424-1.13 1.574-2.559 2.75-4.285 3.529-.755.334-1.542.588-2.35.757-.791.171-1.649.289-2.576.354-.58.039-1.162.059-1.743.058-.756 0-1.371-.021-1.846-.062a9.176 9.176 0 01-.285-.03l-.756-.091z"></path>
        <path d="M103.032 78.655h8.892l.183.642c.123.428.39.924.802 1.49.201.27.435.514.698.726.23.189.492.368.785.538.138.079.277.154.42.225.348.17.714.302 1.091.391.678.167 1.475.251 2.392.251 1.508 0 2.637-.241 3.386-.722.142-.09.274-.194.395-.309.232-.219.438-.463.613-.729a2.73 2.73 0 00.464-1.494 2.465 2.465 0 00-.142-.851 2.143 2.143 0 00-.66-.914 2.988 2.988 0 00-.616-.382c-.534-.255-1.254-.456-2.157-.603l-4.537-.734a25.228 25.228 0 01-5.546-1.604 10.92 10.92 0 01-2.997-1.851 10.008 10.008 0 01-1.243-1.311c-1.027-1.303-1.568-2.989-1.622-5.059a13.551 13.551 0 01-.005-.35 10.715 10.715 0 01.486-3.273 9.316 9.316 0 011.141-2.364 10.278 10.278 0 013.206-3.038 13.23 13.23 0 011.446-.766 14.74 14.74 0 013.538-1.073 20.991 20.991 0 013.658-.302c.822-.003 1.645.038 2.463.122.785.083 1.516.209 2.193.378.3.074.597.16.89.256 1.475.487 2.709 1.116 3.7 1.888l.104.083c1.008.81 1.818 1.658 2.429 2.544.611.886 1.069 1.734 1.375 2.543.09.237.175.475.255.714.147.44.253.821.319 1.145l.022.112.138.756h-8.663l-.16-.527a2.298 2.298 0 00-.166-.397 4.585 4.585 0 00-.545-.794 3.62 3.62 0 00-.576-.551 5.511 5.511 0 00-.677-.445 7.378 7.378 0 00-.374-.196 4.489 4.489 0 00-.914-.321c-.567-.137-1.232-.206-1.996-.206-.789 0-1.469.077-2.04.233a4.19 4.19 0 00-.733.271 4.612 4.612 0 00-.664.392 2.843 2.843 0 00-.803.846c-.29.489-.435.977-.435 1.466-.005.315.058.626.185.914.151.331.395.61.732.837.11.073.225.139.343.197.393.19.798.352 1.213.484.566.184 1.193.335 1.881.456l4.767.779a19.19 19.19 0 014.252 1.182c.336.137.668.286.995.445 1.605.779 2.896 1.848 3.873 3.208a7.599 7.599 0 011.257 2.931c.144.718.215 1.448.21 2.18 0 2.108-.55 3.987-1.65 5.637a10.274 10.274 0 01-3.129 3.001c-.525.329-1.072.62-1.638.872-1.801.808-3.948 1.266-6.439 1.373-.39.017-.779.025-1.169.025-1.959 0-3.68-.191-5.163-.573a12.935 12.935 0 01-.864-.252c-1.548-.512-2.845-1.155-3.892-1.931a13.387 13.387 0 01-1.754-1.571 10.34 10.34 0 01-1.068-1.356 16.077 16.077 0 01-.746-1.249 11.591 11.591 0 01-.675-1.501c-.306-.856-.504-1.559-.596-2.109l-.138-.825z"></path>
        <path d="M144.282 89.564h-8.708V65.272h8.708v24.292zm-6.094-26.989a5.439 5.439 0 001.74.268c.111 0 .222-.003.332-.009a4.819 4.819 0 003.243-1.389l.055-.055a4.491 4.491 0 001.364-3.393 4.518 4.518 0 00-1.419-3.266 4.711 4.711 0 00-1.777-1.094 5.546 5.546 0 00-1.798-.281 5.788 5.788 0 00-.527.021 4.732 4.732 0 00-3.025 1.354 4.612 4.612 0 00-1.003 1.43 4.773 4.773 0 00-.395 1.961 4.611 4.611 0 00.287 1.636 4.743 4.743 0 001.111 1.687 4.598 4.598 0 001.812 1.13z"></path>
        <path d="M151.386 80.81v-8.663h-3.941v-6.875h3.941v-5.958h8.708v5.958h4.721v6.875h-4.721v8.342c-.002.306.032.612.101.911.099.433.3.836.587 1.174.458.535 1.298.802 2.521.802.489 0 .901-.038 1.237-.114l.504-.115v6.417l-1.352.229c-.42.069-.842.122-1.266.156a21.545 21.545 0 01-1.873.073 17.768 17.768 0 01-1.772-.084c-1.051-.107-1.958-.316-2.72-.626a8.786 8.786 0 01-1.286-.646 6.132 6.132 0 01-1.418-1.188 7.307 7.307 0 01-1.026-1.543 6.384 6.384 0 01-.349-.863 10.767 10.767 0 01-.504-2.406 24.576 24.576 0 01-.092-1.783v-.073z"></path>
        <path d="M170.819 80.81v-8.663h-3.941v-6.875h3.941v-5.958h8.709v5.958h4.72v6.875h-4.72v8.342c-.003.306.031.612.1.911.099.433.3.836.587 1.174.458.535 1.299.802 2.521.802.489 0 .901-.038 1.237-.114l.505-.115v6.417l-1.353.229a15.35 15.35 0 01-1.266.156 21.545 21.545 0 01-1.873.073 17.768 17.768 0 01-1.772-.084c-1.051-.107-1.957-.316-2.72-.626a8.786 8.786 0 01-1.286-.646 6.132 6.132 0 01-1.418-1.188 7.307 7.307 0 01-1.026-1.543 6.517 6.517 0 01-.349-.863 10.767 10.767 0 01-.504-2.406 25.163 25.163 0 01-.092-1.783v-.073z"></path>
        <path d="M211.977 77.647v1.971h-15.995c.091 1.039.496 1.956 1.214 2.75.503.55 1.167.927 1.897 1.074.378.081.764.12 1.151.117 1.008 0 1.772-.175 2.292-.527.335-.226.6-.453.795-.68.101-.114.187-.24.259-.374l.275-.527h7.975l-.229.871a7.205 7.205 0 01-.207.644c-.162.44-.383.936-.664 1.487-.222.43-.48.84-.772 1.226a11.989 11.989 0 01-1.153 1.318 8.876 8.876 0 01-1.59 1.247c-.501.312-1.053.597-1.657.856l-.122.051c-.649.265-1.323.464-2.012.593-.954.185-2.017.278-3.19.278-2.133 0-3.992-.321-5.581-.964l-.217-.09a11.998 11.998 0 01-2.703-1.59c-.488-.384-.941-.81-1.353-1.275a11.94 11.94 0 01-2.383-4.079 14.134 14.134 0 01-.023-9.189 12.056 12.056 0 012.314-4.057 10.813 10.813 0 013.023-2.42c.307-.168.622-.324.942-.467 1.604-.718 3.506-1.077 5.706-1.077 2.383 0 4.477.504 6.279 1.512 1.803 1.009 3.209 2.467 4.217 4.377a12.554 12.554 0 011.18 3.386 17.65 17.65 0 01.332 3.558zm-16.041-2.842h7.746a5.56 5.56 0 00-.127-1.083c-.166-.726-.49-1.305-.973-1.735a3.602 3.602 0 00-1.633-.819 5.287 5.287 0 00-1.163-.121 3.98 3.98 0 00-2.59.917 3.173 3.173 0 00-.96 1.373 4.91 4.91 0 00-.266 1.115 6.91 6.91 0 00-.034.353z"></path>
        <path d="M223.665 89.564h-8.709V65.272h8.617v3.85h.275c.176-.478.395-.939.656-1.376.125-.211.258-.417.398-.618.285-.403.632-.76 1.027-1.057.297-.225.613-.423.944-.593.856-.443 1.986-.664 3.392-.664.733 0 1.291.053 1.673.16l.572.161v8.616l-.618-.16a3.814 3.814 0 00-.397-.078c-.38-.055-.866-.083-1.459-.083a9.866 9.866 0 00-1.799.153 6.17 6.17 0 00-1.737.578 4.49 4.49 0 00-1.3 1.011 5.134 5.134 0 00-.935 1.609c-.373.99-.572 2.223-.598 3.699l-.002.33v8.754z"></path>
        <path d="M234.398 81.635h7.837l.275.572c.074.148.166.286.276.41.199.229.472.459.82.689l.073.047c.234.146.487.26.752.338.48.147 1.062.225 1.745.234l.139.001c.193.001.387-.007.58-.022.473-.04.837-.131 1.092-.276.102-.057.2-.121.292-.192.191-.146.322-.304.396-.472.082-.189.133-.34.152-.456a.607.607 0 00.008-.094c.001-.388-.2-.748-.53-.951-.297-.206-.718-.362-1.264-.469a6.001 6.001 0 00-.268-.047l-3.346-.55a19.496 19.496 0 01-4.262-1.192 8.745 8.745 0 01-2.023-1.145 7.512 7.512 0 01-1.232-1.192c-.825-1.008-1.237-2.322-1.237-3.942 0-1.527.397-2.902 1.192-4.125a7.54 7.54 0 012.167-2.162 9.908 9.908 0 011.339-.748 10.924 10.924 0 012.558-.808 15.543 15.543 0 012.446-.26c.203-.006.407-.009.61-.009a18.35 18.35 0 012.083.111c1.088.125 2.044.355 2.867.691.525.211 1.034.457 1.525.738.514.296.971.618 1.37.965a10.779 10.779 0 011.196 1.252 7.772 7.772 0 01.859 1.307c.396.777.656 1.433.779 1.967v.004l.184.802h-7.608l-.253-.481c-.164-.314-.49-.621-.978-.921l-.03-.019c-.504-.305-1.245-.458-2.223-.458-.977 0-1.635.176-1.971.527-.221.231-.369.459-.445.684a1.12 1.12 0 00.034.814c.08.178.213.326.399.442.077.048.158.089.242.123a9.11 9.11 0 001.283.396c.197.047.396.091.596.131l2.979.55c.959.171 1.904.415 2.826.728.99.342 1.881.759 2.673 1.249.219.135.433.278.642.429a5.59 5.59 0 012.32 4.01c.043.35.065.702.064 1.055a7.253 7.253 0 01-2.298 5.428 9.383 9.383 0 01-.406.369c-1.803 1.544-4.415 2.315-7.838 2.315a19.997 19.997 0 01-2.161-.11 13.397 13.397 0 01-1.971-.354 9.52 9.52 0 01-1.162-.384c-1.39-.565-2.497-1.268-3.322-2.108a12.436 12.436 0 01-.965-1.099 8.94 8.94 0 01-.892-1.399 14.928 14.928 0 01-.344-.736 7.446 7.446 0 01-.458-1.35l-.183-.847z"></path>
      </g>
      <g
        fill="#37008C"
        fillRule="evenodd"
        stroke="rgba(0, 0, 0, 0)"
        strokeLinecap="round"
        strokeWidth="0"
        fontSize="12"
        transform="matrix(.22175 0 0 .22175 458.442 241.614)"
      >
        <path d="M28.246 71.33a45.03 45.03 0 007.954.671q9 0 15.75-3.05a37.842 37.842 0 001.653-.796 32.417 32.417 0 009.647-7.404q4.55-5.15 6.8-11.6 2.25-6.45 2.25-13.15 0-6.8-2.25-13.2-2.25-6.4-6.8-11.55a31.065 31.065 0 00-2.733-2.731 34.026 34.026 0 00-8.567-5.469A33.167 33.167 0 0044.081.66 44.904 44.904 0 0036.2.001a45.746 45.746 0 00-7.202.542A33.987 33.987 0 0020.4 3.051a37.897 37.897 0 00-1.868.899 32.202 32.202 0 00-9.482 7.301q-4.55 5.15-6.8 11.55T0 36.001q0 6.7 2.25 13.15t6.8 11.6a30.787 30.787 0 003.064 3.013 34.158 34.158 0 008.286 5.187 33.589 33.589 0 007.846 2.379zM55.4 30.901H44.7l-.5-1.45a5.289 5.289 0 00-.679-1.304q-.375-.537-.906-1.067a10.779 10.779 0 00-.515-.479 4.95 4.95 0 00-1.634-.926q-.736-.26-1.644-.377a12.663 12.663 0 00-1.622-.097 10.297 10.297 0 00-2.831.366 7.302 7.302 0 00-4.069 2.884 12.553 12.553 0 00-2.28 6.752 15.55 15.55 0 00-.02.798q0 4.3 2.3 7.55t6.9 3.25q2.064 0 3.463-.568a4.803 4.803 0 001.437-.882 10.831 10.831 0 00.97-.991q.451-.529.752-1.051a4.956 4.956 0 00.378-.808l.5-1.4h10.7l-.3 1.5a13.475 13.475 0 01-.277 1.113q-.332 1.143-.923 2.587-.9 2.2-2.9 4.45a13.899 13.899 0 01-2.79 2.379 18.632 18.632 0 01-2.51 1.371q-2.644 1.201-6.444 1.44a31.199 31.199 0 01-1.956.06q-5.957 0-10.125-2.199a15.597 15.597 0 01-1.275-.751 19.388 19.388 0 01-5.306-5.068 18.411 18.411 0 01-1.444-2.432q-2.25-4.55-2.25-9.55 0-5 2.25-9.55a18.822 18.822 0 016.454-7.303 22.308 22.308 0 01.296-.197 17.211 17.211 0 015.594-2.334q2.653-.616 5.806-.616a28.624 28.624 0 013.433.193q1.761.213 3.24.661a13.893 13.893 0 011.727.646 18.297 18.297 0 012.808 1.571A13.712 13.712 0 0151 21.251a19.45 19.45 0 011.539 1.959q.748 1.096 1.229 2.181a11.547 11.547 0 01.132.31 31.988 31.988 0 01.548 1.429q.455 1.286.652 2.271l.3 1.5zm-19.2 32a33.772 33.772 0 005.723-.462 24.708 24.708 0 005.977-1.788 24.1 24.1 0 006.747-4.468 22.561 22.561 0 001.603-1.682q3.35-3.9 5.05-8.7 1.7-4.8 1.7-9.8 0-5.1-1.7-9.85t-5.05-8.65a23.414 23.414 0 00-7.722-5.858 27.172 27.172 0 00-.628-.292 24.813 24.813 0 00-6.163-1.82 33.959 33.959 0 00-5.537-.43 33.775 33.775 0 00-5.919.494 25.062 25.062 0 00-5.831 1.756q-5.05 2.25-8.4 6.15-3.35 3.9-5.05 8.65-1.7 4.75-1.7 9.85 0 5 1.7 9.8 1.7 4.8 5.05 8.7a23.184 23.184 0 007.392 5.675 27.148 27.148 0 001.008.475 25.366 25.366 0 006.391 1.849 34.319 34.319 0 005.359.401z"></path>
      </g>
    </svg>