<svg width="6846" height="1166" viewBox="0 0 6846 1166" fill="none" xmlns="http://www.w3.org/2000/svg">
<g clip-path="url(#clip0_112_625)">
<path d="M492.511 935.176H265.205V255.703H0.00537109V59.1812H757.684V255.703H492.511V935.176Z" fill="#37008C"/>
<path d="M1086.81 935.176H861.857V307.772H1086.81V935.176ZM929.378 238.115C943.894 242.841 959.083 245.191 974.348 245.036C977.19 245.036 980.057 244.959 982.924 244.804C1014.39 243.874 1044.3 231.038 1066.67 208.929C1067.16 208.465 1067.62 207.974 1068.09 207.509C1090.92 185.4 1103.68 154.898 1103.37 123.104C1103.37 122.045 1103.37 120.935 1103.34 119.876C1103.19 87.9271 1089.94 57.4246 1066.67 35.5228C1053.67 22.7898 1037.99 13.1303 1020.79 7.26745C1005.81 2.30855 990.105 -0.145129 974.348 0.00983667C969.802 -0.0159909 965.256 0.1648 960.736 0.552214C931.315 2.4118 903.573 14.8091 882.573 35.5228C871.673 46.0605 862.891 58.6127 856.666 72.4563C849.743 88.4178 846.256 105.697 846.488 123.104C846.359 137.516 848.891 151.85 853.876 165.358C860.204 181.785 869.994 196.635 882.573 208.929C895.669 222.179 911.71 232.2 929.378 238.115Z" fill="#37008C"/>
<path d="M1446.71 935.176H1221.78V307.772H1446.71V396.567H1452.62C1461.17 382.569 1472.2 368.028 1485.71 352.893C1485.92 352.66 1486.15 352.402 1486.36 352.169C1500.17 336.776 1518.54 323.553 1541.4 312.498C1552.07 307.462 1563.3 303.665 1574.85 301.186C1585.72 298.784 1597.45 297.182 1610.06 296.459C1615.97 296.098 1621.91 295.917 1627.83 295.943C1666.29 295.943 1698.65 302.477 1724.95 315.572C1733.52 319.833 1741.64 324.947 1749.18 330.862C1778.78 354.132 1799.88 383.343 1812.51 418.469C1825.14 453.569 1831.47 488.901 1831.47 524.414V935.176H1606.52V569.38C1606.52 546.497 1600.6 525.395 1588.77 506.05C1580.79 493.033 1567.98 483.735 1553.15 480.171C1545.43 478.105 1536.78 477.046 1527.19 477.046C1496.43 477.046 1475.33 486.912 1463.86 506.644C1452.41 526.377 1446.71 547.297 1446.71 569.38V935.176Z" fill="#37008C"/>
<path d="M1915.52 1161.27V983.706L1929.73 984.894C1938.28 985.592 1949.72 985.979 1964.09 986.057C1965.66 986.057 1967.21 986.057 1968.79 986.057C1979.66 986.082 1990.56 985.669 2001.41 984.791C2018.92 983.319 2034.29 980.581 2047.52 976.604C2061.93 972.136 2075.16 964.517 2086.21 954.237C2092.18 948.788 2097.65 942.796 2102.56 936.339L1878.82 307.772H2101.37L2222.13 686.586L2338.16 307.772H2560.74L2348.83 893.723C2329.38 948.426 2306.65 995.096 2280.66 1033.71C2278.18 1037.4 2275.65 1041.04 2273.04 1044.66C2243.85 1085.31 2206.94 1115.69 2162.36 1135.81C2142.86 1144.43 2122.53 1150.99 2101.66 1155.36C2081.23 1159.77 2059.06 1162.82 2035.12 1164.5C2020.14 1165.51 2005.1 1166.02 1990.1 1166C1970.57 1166 1954.68 1165.46 1942.41 1164.4C1939.96 1164.16 1937.51 1163.93 1935.05 1163.62L1915.52 1161.27Z" fill="#37008C"/>
<path d="M2661.35 653.423H2891.03L2895.76 670.004C2898.93 681.058 2905.83 693.869 2916.47 708.487C2921.66 715.461 2927.71 721.763 2934.5 727.238C2940.44 732.12 2947.21 736.743 2954.78 741.134C2958.34 743.174 2961.93 745.111 2965.63 746.945C2974.62 751.335 2984.07 754.745 2993.81 757.043C3011.32 761.356 3031.91 763.526 3055.59 763.526C3094.55 763.526 3123.71 757.302 3143.06 744.878C3146.72 742.554 3150.13 739.868 3153.26 736.898C3159.25 731.242 3164.57 724.939 3169.09 718.069C3176.09 707.351 3180.02 696.142 3180.9 684.494C3181.03 682.815 3181.08 681.136 3181.08 679.483C3181.16 671.993 3179.92 664.555 3177.41 657.504C3173.92 648.257 3168.06 640.096 3160.36 633.897C3155.48 629.971 3150.13 626.665 3144.45 624.031C3130.66 617.445 3112.06 612.254 3088.73 608.457L2971.54 589.5C2921.02 580.821 2873.28 567.029 2828.29 548.072C2800.06 536.424 2773.92 520.282 2750.88 500.265C2739.17 489.96 2728.43 478.647 2718.77 466.405C2692.24 432.752 2678.27 389.207 2676.87 335.743C2676.79 332.747 2676.74 329.725 2676.74 326.704C2676.54 298.061 2680.75 269.521 2689.3 242.17C2696.19 220.526 2706.11 199.968 2718.77 181.113C2740.36 149.268 2768.62 122.485 2801.58 102.649C2813.62 95.2882 2826.09 88.6763 2838.93 82.8651C2868.12 69.8221 2898.8 60.5242 2930.32 55.1521C2959.64 49.9607 2991.15 47.3521 3024.8 47.3521C3046.04 47.2746 3067.3 48.3336 3088.42 50.5031C3108.7 52.6468 3127.58 55.901 3145.07 60.2659C3152.82 62.1772 3160.49 64.3983 3168.06 66.8778C3206.16 79.4558 3238.03 95.7014 3263.63 115.64C3264.51 116.364 3265.41 117.061 3266.32 117.784C3292.35 138.704 3313.28 160.606 3329.06 183.489C3344.84 206.373 3356.67 228.275 3364.58 249.169C3366.9 255.29 3369.1 261.437 3371.16 267.61C3374.96 278.974 3377.7 288.814 3379.4 297.183C3379.61 298.138 3379.79 299.12 3379.97 300.075L3383.54 319.601H3159.77L3155.64 305.99C3154.52 302.452 3153.1 299.016 3151.35 295.736C3148.04 289.383 3143.34 282.538 3137.27 275.229C3132.85 269.96 3127.87 265.182 3122.39 260.998C3117.23 256.995 3111.39 253.147 3104.9 249.505C3101.73 247.723 3098.52 246.044 3095.24 244.443C3087.7 240.827 3079.77 238.063 3071.64 236.152C3056.99 232.614 3039.81 230.831 3020.08 230.831C2999.7 230.831 2982.13 232.82 2967.38 236.849C2960.87 238.58 2954.55 240.93 2948.45 243.849C2942.46 246.741 2936.72 250.125 2931.3 253.973C2922.28 260.456 2915.36 267.739 2910.56 275.823C2903.07 288.453 2899.32 301.057 2899.32 313.686C2899.19 321.822 2900.82 329.855 2904.1 337.293C2908 345.842 2914.3 353.048 2923.01 358.911C2925.85 360.796 2928.82 362.501 2931.87 363.999C2942.02 368.906 2952.48 373.09 2963.2 376.499C2977.82 381.251 2994.02 385.151 3011.79 388.277L3134.92 408.396C3172.58 414.311 3209.44 424.564 3244.75 438.925C3253.43 442.463 3262 446.311 3270.45 450.418C3311.91 470.538 3345.25 498.147 3370.49 533.273C3386.56 555.949 3397.61 581.725 3402.96 608.974C3406.68 627.518 3408.51 646.372 3408.38 665.278C3408.38 719.722 3394.18 768.252 3365.76 810.868C3344.63 842.171 3317.07 868.593 3284.94 888.377C3271.38 896.874 3257.25 904.39 3242.63 910.898C3196.11 931.767 3140.65 943.596 3076.31 946.36C3066.24 946.799 3056.19 947.005 3046.11 947.005C2995.51 947.005 2951.06 942.072 2912.75 932.206C2905.24 930.295 2897.8 928.125 2890.44 925.698C2850.45 912.474 2816.95 895.867 2789.9 875.824C2787.89 874.326 2785.88 872.803 2783.89 871.253C2769.89 860.276 2756.74 848.241 2744.6 835.249C2734.45 824.35 2725.2 812.65 2717.01 800.227C2710.09 789.767 2703.68 778.997 2697.74 767.968C2691.9 757.069 2686.97 746.48 2682.94 736.226C2682.04 733.902 2681.13 731.551 2680.31 729.201C2672.4 707.093 2667.29 688.936 2664.91 674.731L2661.35 653.423Z" fill="#37008C"/>
<path d="M3726.85 935.176H3501.92V307.772H3726.85V935.176ZM3569.44 238.115C3583.95 242.841 3599.11 245.191 3614.38 245.036C3617.25 245.036 3620.11 244.959 3622.96 244.804C3654.42 243.874 3684.33 231.038 3706.72 208.929C3707.19 208.465 3707.68 207.974 3708.14 207.509C3730.98 185.4 3743.71 154.898 3743.43 123.104C3743.43 122.045 3743.4 120.935 3743.38 119.876C3743.22 87.9271 3729.97 57.4246 3706.72 35.5228C3693.73 22.7898 3678.03 13.1303 3660.82 7.26745C3645.84 2.30855 3630.16 -0.145129 3614.38 0.00983667C3609.83 -0.0159909 3605.29 0.1648 3600.77 0.552214C3571.37 2.4118 3543.63 14.8091 3522.63 35.5228C3511.73 46.0605 3502.92 58.6127 3496.72 72.4563C3489.78 88.4178 3486.31 105.697 3486.52 123.104C3486.42 137.516 3488.92 151.85 3493.93 165.358C3500.26 181.785 3510.05 196.635 3522.63 208.929C3535.73 222.179 3551.74 232.2 3569.44 238.115Z" fill="#37008C"/>
<path d="M3910.34 709.081V485.336H3808.55V307.772H3910.34V153.891H4135.27V307.772H4257.22V485.336H4135.27V700.79C4135.22 708.694 4136.1 716.597 4137.88 724.319C4140.44 735.503 4145.63 745.911 4153.04 754.641C4164.87 768.459 4186.57 775.355 4218.16 775.355C4230.79 775.355 4241.44 774.373 4250.11 772.41L4263.13 769.44V935.176L4228.21 941.09C4217.36 942.873 4206.46 944.241 4195.51 945.12C4184.3 946.049 4172.42 946.643 4159.89 946.876C4155.63 946.979 4151.37 947.005 4147.13 947.005C4131.84 947.057 4116.57 946.308 4101.36 944.836C4074.21 942.072 4050.78 936.674 4031.1 928.667C4019.58 924.018 4008.47 918.44 3997.88 911.983C3985.61 904.415 3975.02 895.995 3966.11 886.646C3964.43 884.915 3962.83 883.133 3961.25 881.299C3950.77 869.186 3941.86 855.808 3934.75 841.447C3931.21 834.242 3928.19 826.803 3925.74 819.158C3918.63 797.05 3914.3 776.336 3912.72 757.017C3911.22 738.628 3910.42 723.286 3910.34 710.967C3910.34 710.347 3910.34 709.701 3910.34 709.081Z" fill="#37008C"/>
<path d="M4412.3 709.081V485.336H4310.51V307.772H4412.3V153.891H4637.26V307.772H4759.18V485.336H4637.26V700.79C4637.18 708.694 4638.06 716.597 4639.84 724.319C4642.4 735.503 4647.59 745.911 4655 754.641C4666.83 768.459 4688.56 775.355 4720.12 775.355C4732.75 775.355 4743.4 774.373 4752.07 772.41L4765.12 769.44V935.176L4730.17 941.09C4719.35 942.873 4708.42 944.241 4697.47 945.12C4686.26 946.049 4674.38 946.643 4661.85 946.876C4657.59 946.979 4653.32 947.005 4649.09 947.005C4633.8 947.057 4618.53 946.308 4603.32 944.836C4576.17 942.072 4552.77 936.674 4533.06 928.667C4521.54 924.018 4510.43 918.44 4499.84 911.983C4487.57 904.415 4476.98 895.995 4468.07 886.646C4466.39 884.915 4464.79 883.133 4463.21 881.299C4452.73 869.186 4443.82 855.808 4436.71 841.447C4433.17 834.242 4430.18 826.803 4427.7 819.158C4420.59 797.05 4416.25 776.336 4414.68 757.017C4413.18 738.628 4412.41 723.286 4412.3 710.967C4412.3 710.347 4412.3 709.701 4412.3 709.081Z" fill="#37008C"/>
<path d="M5475.42 627.389V678.295H5062.27C5064.62 705.13 5075.08 728.814 5093.63 749.321C5106.62 763.526 5123.77 773.263 5142.63 777.06C5152.39 779.152 5162.36 780.159 5172.36 780.081C5198.39 780.081 5218.13 775.562 5231.56 766.47C5240.21 760.633 5247.06 754.77 5252.1 748.907C5254.7 745.963 5256.93 742.709 5258.79 739.248L5265.89 725.637H5471.88L5465.97 748.133C5464.45 753.763 5462.66 759.316 5460.62 764.766C5456.44 776.13 5450.73 788.94 5443.47 803.171C5437.74 814.277 5431.07 824.867 5423.53 834.836C5416.38 844.366 5408.19 853.948 5398.97 863.53C5397.26 865.338 5395.51 867.121 5393.75 868.877C5381.32 881.145 5367.56 891.941 5352.68 901.084C5339.74 909.142 5325.48 916.503 5309.88 923.192C5308.82 923.631 5307.79 924.07 5306.73 924.509C5289.96 931.354 5272.55 936.494 5254.76 939.825C5230.11 944.603 5202.66 947.005 5172.36 947.005C5117.26 947.005 5069.24 938.715 5028.2 922.107C5026.34 921.358 5024.45 920.558 5022.59 919.783C4997.62 909.194 4974.14 895.402 4952.77 878.717C4940.17 868.799 4928.47 857.797 4917.83 845.787C4890.21 814.613 4869.68 779.513 4856.27 740.436C4842.84 701.385 4836.15 661.326 4836.15 620.286C4836.15 580.821 4842.66 541.77 4855.68 503.106C4868.7 464.416 4888.61 429.497 4915.45 398.323C4937.51 372.961 4963.96 351.782 4993.53 335.821C5001.46 331.482 5009.6 327.452 5017.87 323.759C5059.3 305.215 5108.43 295.943 5165.25 295.943C5226.81 295.943 5280.9 308.96 5327.44 334.994C5374.01 361.054 5410.33 398.711 5436.37 448.042C5450.65 475.574 5460.93 505.043 5466.85 535.494C5472.04 561.192 5474.88 588.75 5475.37 618.168C5475.4 621.242 5475.42 624.315 5475.42 627.389ZM5061.08 553.986H5261.16C5260.98 544.585 5259.9 535.21 5257.88 526.015C5253.59 507.264 5245.22 492.31 5232.75 481.204C5220.74 470.641 5206.2 463.357 5190.57 460.051C5180.7 457.908 5170.63 456.849 5160.53 456.926C5135.27 456.926 5112.97 464.829 5093.63 480.61C5082.34 489.986 5073.76 502.254 5068.83 516.071C5065.58 524.698 5063.3 534.306 5061.96 544.869C5061.6 547.891 5061.29 550.939 5061.08 553.986Z" fill="#37008C"/>
<path d="M5777.33 935.176H5552.37V307.772H5774.95V407.208H5782.06C5786.6 394.863 5792.26 382.956 5799 371.669C5802.23 366.22 5805.66 360.899 5809.28 355.708C5816.64 345.299 5825.61 336.079 5835.81 328.408C5843.48 322.597 5851.64 317.483 5860.19 313.092C5882.3 301.651 5911.49 295.943 5947.81 295.943C5966.74 295.943 5981.15 297.312 5991.02 300.075L6005.8 304.234V526.764L5989.83 522.632C5986.45 521.78 5983.04 521.108 5979.58 520.617C5969.76 519.197 5957.21 518.474 5941.89 518.474C5926.32 518.37 5910.77 519.687 5895.42 522.425C5878.58 525.55 5863.63 530.535 5850.56 537.354C5837.85 543.914 5826.46 552.773 5816.98 563.465C5806.46 575.733 5798.28 589.809 5792.83 605.022C5783.19 630.591 5778.05 662.437 5777.38 700.558C5777.35 703.399 5777.33 706.24 5777.33 709.081V935.176Z" fill="#37008C"/>
<path d="M6054.56 730.389H6257L6264.1 745.162C6266.01 748.985 6268.39 752.549 6271.23 755.752C6276.37 761.666 6283.42 767.607 6292.41 773.547C6293.05 773.96 6293.67 774.373 6294.29 774.761C6300.34 778.532 6306.87 781.476 6313.72 783.491C6326.12 787.287 6341.15 789.302 6358.79 789.534C6359.98 789.56 6361.17 789.56 6362.38 789.56C6367.37 789.586 6372.38 789.379 6377.36 788.992C6389.58 787.959 6398.98 785.608 6405.57 781.863C6408.21 780.391 6410.74 778.738 6413.11 776.904C6418.05 773.134 6421.43 769.053 6423.34 764.714C6425.46 759.832 6426.78 755.933 6427.27 752.937C6427.4 752.11 6427.48 751.309 6427.48 750.509C6427.5 740.488 6422.31 731.19 6413.79 725.947C6406.11 720.626 6395.24 716.597 6381.14 713.834C6378.84 713.369 6376.54 712.981 6374.21 712.62L6287.79 698.414C6249.12 692.113 6212.41 681.833 6177.7 667.628C6159.02 660.138 6141.48 650.194 6125.44 638.055C6113.69 629.041 6103.02 618.71 6093.62 607.269C6072.31 581.234 6061.67 547.297 6061.67 505.456C6061.67 466.018 6071.92 430.505 6092.46 398.917C6107.1 376.68 6126.14 357.671 6148.43 343.078C6159.43 335.769 6171.01 329.286 6183.02 323.759C6204.1 314.125 6226.28 307.1 6249.09 302.89C6268.75 299.119 6289.8 296.872 6312.27 296.175C6317.52 296.02 6322.79 295.943 6328.03 295.943C6346.01 295.865 6363.96 296.847 6381.83 298.81C6409.94 302.038 6434.63 307.978 6455.89 316.656C6469.45 322.106 6482.6 328.46 6495.28 335.717C6508.56 343.362 6520.36 351.679 6530.67 360.641C6533.02 362.681 6535.34 364.799 6537.59 366.969C6546.11 375.13 6554.15 383.808 6561.56 392.977C6569.46 402.766 6576.1 412.606 6581.53 422.498C6582.28 423.893 6583.03 425.313 6583.75 426.734C6593.98 446.802 6600.69 463.745 6603.87 477.537V477.64L6608.62 498.354H6412.11L6405.57 485.931C6401.34 477.821 6392.91 469.892 6380.31 462.143C6380.05 461.988 6379.79 461.808 6379.53 461.653C6366.52 453.775 6347.38 449.824 6322.11 449.824C6296.88 449.824 6279.88 454.369 6271.2 463.435C6265.49 469.401 6261.67 475.29 6259.71 481.101C6258.73 483.968 6258.21 487.015 6258.18 490.063C6258.11 494.221 6258.93 498.302 6260.59 502.124C6262.65 506.722 6266.09 510.544 6270.89 513.54C6272.88 514.78 6274.97 515.839 6277.14 516.717C6286.31 520.436 6297.37 523.846 6310.28 526.945C6315.37 528.159 6320.51 529.295 6325.68 530.328L6402.63 544.534C6427.4 548.95 6451.81 555.252 6475.62 563.336C6501.2 572.169 6524.21 582.939 6544.67 595.595C6550.32 599.081 6555.85 602.775 6561.25 606.675C6595.27 630.901 6617.12 668.687 6621.18 710.244C6622.29 719.283 6622.86 728.375 6622.83 737.492C6623.79 790.516 6602.22 841.448 6563.47 877.684C6560.06 880.964 6556.55 884.167 6552.98 887.214C6506.41 927.092 6438.94 947.005 6350.53 947.005C6331.88 947.057 6313.25 946.127 6294.71 944.164C6276.34 942.175 6259.37 939.128 6243.8 935.021C6233.59 932.361 6223.57 929.055 6213.78 925.103C6177.88 910.511 6149.28 892.354 6127.97 870.659C6119.11 861.697 6110.8 852.218 6103.05 842.274C6095.17 832.072 6088.45 821.87 6082.95 811.772C6081.94 809.912 6080.96 808.027 6080.01 806.141C6076.88 799.891 6073.91 793.563 6071.12 787.132C6065.41 773.934 6061.46 762.312 6059.29 752.265L6054.56 730.389Z" fill="#37008C"/>
<path fill-rule="evenodd" clip-rule="evenodd" d="M6717.58 384.407C6725.23 385.744 6732.99 386.399 6740.76 386.363C6758.26 386.363 6773.56 383.399 6786.68 377.472C6788.31 376.738 6789.91 375.964 6791.5 375.152C6802.15 369.796 6811.69 362.473 6819.62 353.569C6828.47 343.561 6835.07 332.289 6839.45 319.755C6843.82 307.22 6846.01 294.443 6846.01 281.422C6846.01 268.208 6843.82 255.381 6839.45 242.944C6835.07 230.507 6828.47 219.284 6819.62 209.275C6817.14 206.459 6814.47 203.8 6811.66 201.315C6804.18 194.78 6795.76 189.406 6786.68 185.372C6779.35 182.106 6771.65 179.765 6763.74 178.402C6756.15 177.088 6748.46 176.445 6740.76 176.481C6733.73 176.454 6726.71 176.982 6719.77 178.061C6711.13 179.382 6702.7 181.84 6694.7 185.372C6692.86 186.196 6691.05 187.07 6689.26 187.993C6678.79 193.298 6669.42 200.517 6661.61 209.275C6652.77 219.284 6646.16 230.507 6641.79 242.944C6637.42 255.381 6635.23 268.208 6635.23 281.422C6635.23 294.443 6637.42 307.22 6641.79 319.755C6646.16 332.289 6652.77 343.561 6661.61 353.569C6664.38 356.701 6667.37 359.636 6670.55 362.352C6677.83 368.524 6685.97 373.616 6694.7 377.472C6702.01 380.709 6709.7 383.038 6717.58 384.407ZM6796.74 266.556H6765.54L6764.09 262.329C6763.61 260.976 6762.94 259.696 6762.11 258.528C6761.38 257.484 6760.5 256.447 6759.47 255.417C6758.98 254.936 6758.48 254.47 6757.96 254.021C6756.56 252.826 6754.95 251.909 6753.2 251.322C6751.77 250.816 6750.17 250.45 6748.41 250.223C6746.84 250.027 6745.26 249.933 6743.68 249.94C6740.89 249.911 6738.11 250.27 6735.43 251.007C6730.61 252.33 6726.41 255.306 6723.56 259.414C6719.49 265.195 6717.18 272.031 6716.92 279.096C6716.88 279.871 6716.86 280.647 6716.86 281.422C6716.86 289.779 6719.09 297.115 6723.56 303.431C6728.03 309.747 6734.74 312.905 6743.68 312.905C6747.69 312.905 6751.06 312.353 6753.78 311.249C6755.31 310.645 6756.73 309.775 6757.96 308.678C6758.97 307.776 6759.91 306.811 6760.79 305.789C6761.67 304.761 6762.4 303.74 6762.98 302.725C6763.42 301.975 6763.79 301.187 6764.09 300.37L6765.54 296.289H6796.74L6795.86 300.661C6795.64 301.754 6795.37 302.836 6795.06 303.906C6794.41 306.127 6793.51 308.641 6792.37 311.447C6790.62 315.722 6787.8 320.046 6783.91 324.419C6781.52 327.079 6778.78 329.411 6775.78 331.354C6773.44 332.871 6771 334.207 6768.46 335.35C6763.32 337.684 6757.06 339.083 6749.67 339.548C6747.77 339.666 6745.87 339.724 6743.97 339.723C6732.39 339.723 6722.55 337.586 6714.45 333.313C6713.18 332.642 6711.94 331.912 6710.74 331.123C6704.69 327.228 6699.44 322.214 6695.27 316.35C6693.68 314.098 6692.28 311.728 6691.06 309.261C6686.68 300.419 6684.5 291.139 6684.5 281.422C6684.5 271.706 6686.68 262.426 6691.06 253.584C6695.35 244.959 6701.84 237.617 6709.87 232.295C6710.16 232.102 6710.45 231.91 6710.74 231.721C6715.73 228.506 6721.25 226.203 6727.04 224.917C6732.2 223.72 6737.84 223.122 6743.97 223.122C6747.32 223.109 6750.66 223.297 6753.98 223.684C6757.4 224.098 6760.55 224.741 6763.42 225.611C6765.14 226.127 6766.82 226.756 6768.46 227.494C6771.32 228.778 6774.06 230.31 6776.65 232.074C6779.32 233.89 6781.75 236.023 6783.91 238.426C6785.53 240.231 6787.03 242.139 6788.4 244.136C6789.85 246.266 6791.05 248.385 6791.98 250.494C6792.11 250.793 6792.24 251.094 6792.37 251.398C6792.93 252.773 6793.46 254.162 6793.96 255.563C6794.85 258.062 6795.48 260.269 6795.86 262.183L6796.74 266.556ZM6740.76 359.836C6746.35 359.862 6751.94 359.411 6757.45 358.49C6763.45 357.495 6769.31 355.744 6774.87 353.278C6782.12 350.076 6788.77 345.672 6794.54 340.253C6796.18 338.7 6797.74 337.064 6799.22 335.35C6805.73 327.771 6810.63 319.318 6813.94 309.989C6817.24 300.661 6818.89 291.139 6818.89 281.422C6818.89 271.511 6817.24 261.94 6813.94 252.709C6810.63 243.478 6805.73 235.073 6799.22 227.494C6792.99 220.295 6785.32 214.478 6776.7 210.418C6776.1 210.127 6775.49 209.843 6774.87 209.567C6769.14 207.027 6763.1 205.244 6756.91 204.262C6751.57 203.404 6746.17 202.985 6740.76 203.008C6734.98 202.981 6729.21 203.462 6723.51 204.448C6717.65 205.457 6711.95 207.176 6706.51 209.567C6696.69 213.939 6688.53 219.915 6682.02 227.494C6675.51 235.073 6670.6 243.478 6667.3 252.709C6663.99 261.94 6662.34 271.511 6662.34 281.422C6662.34 291.139 6663.99 300.661 6667.3 309.989C6670.6 319.318 6675.51 327.771 6682.02 335.35C6688.01 342.266 6695.34 347.894 6703.57 351.893C6704.54 352.375 6705.52 352.836 6706.51 353.278C6712.46 355.884 6718.72 357.697 6725.14 358.667C6730.31 359.465 6735.53 359.856 6740.76 359.836Z" fill="#37008C"/>
</g>
<defs>
<clipPath id="clip0_112_625">
<rect width="6846" height="1166" fill="white"/>
</clipPath>
</defs>
</svg>
